{
.appVersion = "3223";
.formatVersion = 3;
DisplayStrings = (
"%/uni0000/uni000D  ABCDEFG

Hone

IJKLNOPQRSTUVWXYZ@abcdefghijklHlnoqprstuvwxyz1234560879mM/A.ss01/B.ss01/C.ss01/D.ss01/E.ss01/F.ss01/G.ss01/H.ss01/I.ss01/J.ss01/K.ss01/L.ss01/M.ss01/N.ss01/O.ss01/P.ss01/Q.ss01/R.ss01/S.ss01/T.ss01/W.ss01/Y.ss01/Z.ss01/a.ss01/b.ss01/c.ss01/d.ss01/e.ss01/f.ss01/g.ss01/h.ss01/i.ss01/j.ss01/k.ss01/m.ss01/n.ss01/p.ss01/q.ss01/r.ss01/u.ss01/v.ss01/w.ss01/x.ss01/y.ss01/z.ss01/one.ss01/six.ss01/eight.ss01/C.ss02/E.ss02/s.ss01/t.ss01/V.ss01/X.ss01 .,!#<>=$///backslash ˜^*/g.ss02 -+:;?'\"€()&{|}[]‘’“”‚„•_–—¯¬™®©¢£/A.ss02/B.ss02/F.ss02/G.ss02/K.ss02/P.ss02/R.ss02/Y.ss02/a.ss02/b.ss02/c.ss02/d.ss02/f.ss02/g.ss03/h.ss02/i.ss02/n.ss02/p.ss02/q.ss02/s.ss02/u.ss02/v.ss02/y.ss03/i.ss03/S.ss02/V.ss02/Q.ss02/Q.ss03 

nnonnonoonnoononononnhoonoonoono"
);
axes = (
{
name = Weight;
tag = wght;
}
);
customParameters = (
{
name = vendorID;
value = "    ";
},
{
name = panose;
value = (
0,
0,
0,
0,
0,
0,
0,
0,
0,
0
);
},
{
name = unicodeRanges;
value = (
0,
1,
5,
31,
33,
35
);
},
{
name = codePageRanges;
value = (
"1252"
);
},
{
name = fsType;
value = (
);
}
);
date = "2023-10-25 20:34:19 +0000";
familyName = Madimi;
features = (
{
automatic = 1;
code = "";
tag = aalt;
},
{
code = "script DFLT;
language dflt;
lookup SUB_2 {
	sub A from [A.ss01 A.ss02];
	sub B from [B.ss01 B.ss02];
	sub C from [C.ss01 C.ss02];
	sub D from [D.ss01];
	sub E from [E.ss01 E.ss02];
	sub F from [F.ss01 F.ss02];
	sub G from [G.ss01 G.ss02];
	sub H from [H.ss01];
	sub I from [I.ss01];
	sub J from [J.ss01];
	sub K from [K.ss01 K.ss02];
	sub L from [L.ss01];
	sub N from [N.ss01];
	sub O from [O.ss01];
	sub P from [P.ss01 P.ss02];
	sub Q from [Q.ss01 Q.ss02 Q.ss03];
	sub R from [R.ss01 R.ss02];
	sub S from [S.ss01 S.ss02];
	sub T from [T.ss01];
	sub V from [V.ss01 V.ss02];
	sub W from [W.ss01];
	sub X from [X.ss01];
	sub Y from [Y.ss01 Y.ss02];
	sub Z from [Z.ss01];
	sub a from [a.ss01 a.ss02];

glyphs = (
{
color = 0;
glyphname = A;
lastChange = "2023-10-25 20:37:14 +0000";
layers = (
{
hints = (
{
horizontal = 1;
place = (675,27);
type = Stem;
},
{
horizontal = 1;
place = (337,26);
type = Stem;
},
{
horizontal = 1;
place = (-2,21);
target = up;
type = BottomGhost;
},
{
place = (404,30);
type = Stem;
},
{
place = (66,30);
type = Stem;
}
);
layerId = m01;
shapes = (
{
closed = 1;
nodes = (
(88,-2,o),
(96,4,o),
(96,12,cs),
(96,233,l),
(104,313,o),
(148,337,o),
(220,337,cs),
(281,337,o),
(342,336,o),
(404,336,c),
(404,12,ls),
(404,4,o),
(411,-2,o),
(419,-2,cs),
(426,-2,o),
(434,4,o),
(434,12,cs),
(434,686,ls),
(434,695,o),
(425,699,o),
(417,700,cs),
(399,700,o),
(380,700,o),
(362,700,cs),
(251,700,ls),
(233,700,o),
(215,700,o),
(196,700,cs),
(121,700,o),
(66,640,o),
(66,566,cs),
(66,12,ls),
(66,4,o),
(74,-2,o),
(81,-2,cs)
);
},
{
closed = 1;
nodes = (
(95,556,ls),
(95,575,o),
(96,593,o),
(104,611,cs),
(120,648,o),
(156,673,o),
(196,673,cs),
(213,673,o),
(231,673,o),
(248,673,cs),
(352,673,ls),
(369,673,o),
(387,673,o),
(404,673,c),
(404,363,l),
(334,363,o),
(265,363,o),
(196,363,cs),
(156,363,o),
(120,345,o),
(96,316,c)
);
}
);
width = 499;
},
{
hints = (
{
horizontal = 1;
place = (652,72);
type = Stem;
},
{
horizontal = 1;
place = (313,73);
type = Stem;
},
{
horizontal = 1;
place = (-24,21);
target = up;
type = BottomGhost;
},
{
place = (410,91);
type = Stem;
},
{
place = (73,90);
type = Stem;
}
);
layerId = "2F065738-4B59-43EB-A5F2-FD5F277958EA";
shapes = (
{
closed = 1;
nodes = (
(135,-24,o),
(152,-16,o),
(160,0,cs),
(164,7,o),
(163,19,o),
(163,28,cs),
(163,232,ls),
(163,289,o),
(200,313,o),
(252,313,cs),
(410,313,l),
(410,3,ls),
(410,-17,o),
(437,-24,o),
(456,-24,cs),
(476,-24,o),
(501,-11,o),
(501,12,cs),
(501,688,ls),
(501,724,o),
(457,724,o),
(432,724,cs),
(233,724,ls),
(149,724,o),
(73,660,o),
(73,573,cs),
(73,12,ls),
(73,-11,o),
(97,-24,o),
(118,-24,cs)
);
},
{
closed = 1;
nodes = (
(162,428,o),
(162,481,o),
(162,534,cs),
(162,551,o),
(162,583,o),
(167,599,cs),
(176,628,o),
(202,652,o),
(234,652,cs),
(411,652,l),
(411,630,o),
(411,608,o),
(411,585,cs),
(410,453,ls),
(410,430,o),
(410,408,o),
(410,386,c),
(212,386,ls),
(195,386,o),
(178,382,o),
(162,374,c)
);
}
);
width = 573;
}
);
note = A;
unicode = 65;
},
{
color = 0;
glyphname = B;
lastChange = "2023-10-25 20:36:27 +0000";
layers = (
{
hints = (
{
horizontal = 1;
place = (675,28);
type = Stem;
},
{
horizontal = 1;
place = (337,27);
type = Stem;
},
{
horizontal = 1;
place = (-1,27);
type = Stem;
},
{
place = (404,30);
type = Stem;
},
{
place = (66,30);
type = Stem;
}
);
layerId = m01;
shapes = (
{
closed = 1;
nodes = (
(304,-1,ls),
(379,-1,o),
(434,58,o),
(434,132,cs),
(434,235,ls),
(434,287,o),
(404,328,o),
(361,350,c),
(405,371,o),
(434,418,o),
(434,470,cs),
(434,574,ls),
(434,649,o),
(372,702,o),
(299,702,cs),
(293,702,o),
(288,702,o),
(282,702,cs),
(247,703,ls),
(242,703,o),
(236,703,o),
(230,703,cs),
(210,703,o),
(190,703,o),
(170,699,cs),
(107,689,o),
(66,630,o),
(66,569,cs),
(66,239,ls),
(66,237,o),
(66,236,o),
(66,233,cs),
(66,12,ls),
(66,4,o),
(74,-1,o),
(81,-1,cs)
);
},
{
closed = 1;
nodes = (
(96,235,l),
(98,244,o),
(98,254,o),
(101,263,cs),
(120,327,o),
(168,337,o),
(225,337,cs),
(248,337,o),
(270,337,o),
(293,337,cs),
(303,337,o),
(314,337,o),
(324,335,cs),
(370,325,o),
(404,282,o),
(404,235,cs),
(404,127,ls),
(404,72,o),
(359,26,o),
(304,26,cs),
(96,26,l)
);
},
{
closed = 1;
nodes = (
(96,573,ls),
(96,594,o),
(103,616,o),
(115,633,cs),
(145,673,o),
(176,675,o),
(222,675,cs),
(304,675,ls),
(359,675,o),
(404,629,o),
(404,573,cs),
(404,466,ls),
(404,420,o),
(377,383,o),
(333,370,cs),
(323,366,o),
(314,366,o),
(303,364,c),
(278,365,o),
(247,364,o),
(228,364,cs),
(175,364,o),
(133,361,o),
(96,316,c)
);
}
);
width = 499;
},
{
hints = (
{
horizontal = 1;
place = (653,72);
type = Stem;
},
{
horizontal = 1;
place = (315,72);
type = Stem;
},
{
horizontal = 1;
place = (-24,72);
type = Stem;
},
{
place = (389,90);
type = Stem;
},
{
place = (51,90);
type = Stem;
}
);
layerId = "2F065738-4B59-43EB-A5F2-FD5F277958EA";
shapes = (
{
closed = 1;
nodes = (
(319,-24,ls),
(403,-24,o),
(479,40,o),
(479,127,cs),
(479,235,ls),
(479,282,o),
(456,323,o),
(422,350,c),
(456,377,o),
(479,418,o),
(479,466,cs),
(479,574,ls),
(479,660,o),
(403,724,o),
(319,724,cs),
(220,725,ls),
(132,725,o),
(51,667,o),
(51,574,cs),
(51,12,ls),
(51,-11,o),
(76,-24,o),
(96,-24,cs)
);
},
{
closed = 1;
nodes = (
(141,236,l),
(146,255,o),
(149,278,o),
(165,293,cs),
(195,323,o),
(268,315,o),
(309,315,cs),
(356,315,o),
(389,281,o),
(389,234,cs),
(389,128,ls),
(389,88,o),
(360,48,o),
(318,48,cs),
(141,48,l)
);
},
{
closed = 1;
nodes = (
(141,573,ls),
(141,620,o),
(174,653,o),
(222,653,cs),
(287,653,o),
(389,670,o),
(389,573,cs),
(389,466,ls),
(389,405,o),
(351,395,o),
(318,387,c),
(307,387,o),
(296,387,o),
(285,387,cs),
(249,387,o),
(211,390,o),
(176,382,cs),
(164,379,o),
(152,375,o),
(141,370,c)
);
}
);
width = 529;
}
);
note = B;
unicode = 66;
},
{
color = 0;
glyphname = C;
lastChange = "2023-10-25 20:36:27 +0000";
layers = (
{
hints = (
{
horizontal = 1;
place = (681,27);
type = Stem;
},
{
horizontal = 1;
place = (-2,27);
type = Stem;
},
{
place = (66,30);
type = Stem;
}
);
layerId = m01;
shapes = (
{
closed = 1;
nodes = (
(418,-2,ls),
(425,-2,o),
(433,4,o),
(433,12,cs),
(433,26,o),
(415,27,o),
(405,27,cs),
(339,27,o),
(272,25,o),
(206,25,cs),
(146,25,o),
(96,64,o),
(96,127,cs),
(96,579,ls),
(96,634,o),
(141,681,o),
(196,681,cs),
(304,681,ls),
(349,681,o),
(385,653,o),
(399,610,cs),
(402,600,o),
(402,589,o),
(404,579,cs),
(406,571,o),
(411,566,o),
(420,566,cs),
(428,566,o),
(434,572,o),
(434,580,cs),
(434,655,o),
(371,708,o),
(299,708,cs),
(196,708,ls),
(121,708,o),
(66,648,o),
(66,575,cs),
(66,127,ls),
(66,52,o),
(128,-2,o),
(201,-2,cs)
);
}
);
width = 485;
},
{
hints = (
{
horizontal = 1;
place = (659,72);
type = Stem;
},
{
horizontal = 1;
place = (-24,71);
type = Stem;
},
{
place = (51,90);
type = Stem;
}
);
layerId = "2F065738-4B59-43EB-A5F2-FD5F277958EA";
shapes = (
{
closed = 1;
nodes = (
(433,-24,ls),
(453,-24,o),
(478,-11,o),
(478,12,cs),
(478,47,o),
(438,48,o),
(413,48,cs),
(264,47,ls),
(205,47,o),
(141,48,o),
(141,128,cs),
(141,579,ls),
(141,618,o),
(170,659,o),
(212,659,cs),
(318,659,ls),
(352,659,o),
(382,630,o),
(387,597,cs),
(392,566,o),
(395,544,o),
(434,544,cs),
(455,544,o),
(479,557,o),
(479,580,cs),
(479,666,o),
(403,731,o),
(319,731,cs),
(211,731,ls),
(127,731,o),
(51,666,o),
(51,580,cs),
(51,127,ls),
(51,41,o),
(127,-24,o),
(211,-24,cs)
);
}
);
width = 520;
}
);
note = C;
unicode = 67;
},
{
color = 0;
glyphname = D;
lastChange = "2023-10-25 20:36:27 +0000";
layers = (
{
hints = (
{
horizontal = 1;
place = (675,27);
type = Stem;
},
{
horizontal = 1;
place = (-2,27);
type = Stem;
},
{
place = (404,30);
type = Stem;
},
{
place = (66,30);
type = Stem;
}
);
layerId = m01;
shapes = (
{
closed = 1;
nodes = (
(304,-2,ls),
(379,-2,o),
(434,58,o),
(434,132,cs),
(434,573,ls),
(434,649,o),
(372,702,o),
(299,702,cs),
(83,702,ls),
(75,702,o),
(66,697,o),
(66,688,cs),
(66,12,ls),
(66,6,o),
(70,2,o),
(75,0,cs),
(78,-2,o),
(126,-2,o),
(132,-2,cs)
);
},
{
closed = 1;
nodes = (
(96,26,l),
(96,675,l),
(303,675,ls),
(359,675,o),
(404,628,o),
(404,573,cs),
(404,127,ls),
(404,72,o),
(359,25,o),
(303,25,cs),
(196,25,l)
);
}
);
width = 499;
},
{
hints = (
{
horizontal = 1;
place = (652,72);
type = Stem;
},
{
horizontal = 1;
place = (-25,73);
type = Stem;
},
{
place = (389,90);
type = Stem;
},
{
place = (51,90);
type = Stem;
}
);
layerId = "2F065738-4B59-43EB-A5F2-FD5F277958EA";
shapes = (
{
closed = 1;
nodes = (
(319,-24,ls),
(403,-24,o),
(479,40,o),
(479,127,cs),
(479,573,ls),
(479,660,o),
(403,724,o),
(319,724,cs),
(114,724,ls),
(89,724,o),
(51,722,o),
(51,688,cs),
(51,12,ls),
(51,-22,o),
(90,-25,o),
(115,-25,cs)
);
},
{
closed = 1;
nodes = (
(141,652,l),
(317,652,ls),
(360,652,o),
(389,612,o),
(389,573,cs),
(389,127,ls),
(389,88,o),
(360,48,o),
(317,48,cs),
(141,48,l)
);
}
);
width = 529;
}
);
note = D;
unicode = 68;
},
{
color = 0;
glyphname = E;
lastChange = "2023-10-25 20:36:27 +0000";
layers = (
{
hints = (
{
horizontal = 1;
place = (675,27);
type = Stem;
},
{
horizontal = 1;
place = (337,27);
type = Stem;
},
{
horizontal = 1;
place = (-2,27);
type = Stem;
},
{
place = (66,30);
type = Stem;
}
);
layerId = m01;
shapes = (
{
closed = 1;
nodes = (
(426,-3,o),
(434,3,o),
(434,11,cs),
(434,26,o),
(416,24,o),
(406,24,cs),
(234,25,ls),
(215,25,o),
(195,23,o),
(176,27,cs),
(129,37,o),
(96,79,o),
(96,127,cs),
(96,235,l),
(97,244,o),
(98,252,o),
(100,261,cs),
(111,299,o),
(138,326,o),
(176,334,cs),
(211,342,o),
(268,337,o),
(305,337,cs),
(379,337,ls),
(390,337,o),
(408,335,o),
(408,350,cs),
(408,358,o),
(400,364,o),
(393,364,cs),
(226,364,ls),
(174,364,o),
(133,361,o),
(96,316,c),
(96,573,ls),
(96,595,o),
(103,617,o),
(116,634,cs),
(146,673,o),
(179,675,o),
(224,675,cs),
(419,674,ls),
(426,674,o),
(434,680,o),
(434,688,cs),
(434,697,o),
(425,701,o),
(417,701,cs),
(343,701,o),
(270,702,o),
(196,702,cs),
(121,702,o),
(66,642,o),
(66,568,cs),
(66,126,ls),
(66,62,o),
(118,3,o),
(183,-1,cs),
(213,-3,o),
(243,-2,o),
(274,-2,cs),
(322,-2,o),
(370,-3,o),
(419,-3,cs)
);
}
);
width = 499;
},
{
hints = (
{
horizontal = 1;
place = (652,72);
type = Stem;
},
{
horizontal = 1;
place = (314,72);
type = Stem;
},
{
horizontal = 1;
place = (-25,71);
type = Stem;
},
{
place = (51,90);
type = Stem;
}
);
layerId = "2F065738-4B59-43EB-A5F2-FD5F277958EA";
shapes = (
{
closed = 1;
nodes = (
(434,-25,ls),
(454,-25,o),
(479,-12,o),
(479,11,cs),
(479,27,o),
(465,39,o),
(451,44,cs),
(432,50,o),
(317,46,o),
(286,46,cs),
(223,46,o),
(141,38,o),
(141,127,cs),
(141,237,l),
(149,267,o),
(152,305,o),
(204,313,cs),
(219,316,o),
(234,314,o),
(250,314,cs),
(342,314,ls),
(371,314,o),
(453,303,o),
(453,350,cs),
(453,373,o),
(428,386,o),
(408,386,cs),
(227,386,ls),
(197,386,o),
(167,380,o),
(141,369,c),
(141,573,ls),
(141,668,o),
(234,652,o),
(298,652,cs),
(434,652,ls),
(454,652,o),
(479,665,o),
(479,688,cs),
(479,723,o),
(435,724,o),
(410,724,cs),
(211,724,ls),
(127,724,o),
(51,660,o),
(51,573,cs),
(51,126,ls),
(51,19,o),
(145,-26,o),
(238,-26,cs)
);
}
);
width = 529;
}
);
note = E;
unicode = 69;
},
{
color = 0;
glyphname = F;
lastChange = "2023-10-25 20:36:27 +0000";
layers = (
{
hints = (
{
horizontal = 1;
place = (675,27);
type = Stem;
},
{
horizontal = 1;
place = (336,27);
type = Stem;
},
{
horizontal = 1;
place = (-2,21);
target = up;
type = BottomGhost;
},
{
place = (66,30);
type = Stem;
}
);
layerId = m01;
shapes = (
{
closed = 1;
nodes = (
(88,-2,o),
(96,4,o),
(96,12,cs),
(96,49,o),
(96,87,o),
(96,124,cs),
(96,125,o),
(96,125,o),
(96,126,cs),
(96,230,ls),
(98,277,o),
(120,316,o),
(167,331,cs),
(186,337,o),
(251,337,o),
(273,337,cs),
(307,337,o),
(342,336,o),
(377,336,cs),
(385,336,o),
(395,339,o),
(395,349,cs),
(395,357,o),
(387,363,o),
(380,363,cs),
(196,363,ls),
(155,363,o),
(119,344,o),
(96,315,c),
(96,396,o),
(95,477,o),
(95,558,cs),
(95,620,o),
(129,675,o),
(197,675,cs),
(304,675,ls),
(350,675,o),
(386,646,o),
(399,603,cs),
(403,593,o),
(403,583,o),
(405,572,cs),
(407,564,o),
(412,559,o),
(421,559,cs),
(428,559,o),
(435,566,o),
(435,573,cs),
(435,649,o),
(372,702,o),
(300,702,cs),
(196,702,ls),
(121,702,o),
(66,642,o),
(66,568,cs),
(66,12,ls),
(66,4,o),
(74,-2,o),
(81,-2,cs)
);
}
);
width = 500;
},
{
hints = (
{
horizontal = 1;
place = (652,72);
type = Stem;
},
{
horizontal = 1;
place = (313,72);
type = Stem;
},
{
horizontal = 1;
place = (-24,21);
target = up;
type = BottomGhost;
},
{
place = (51,89);
type = Stem;
}
);
layerId = "2F065738-4B59-43EB-A5F2-FD5F277958EA";
shapes = (
{
closed = 1;
nodes = (
(113,-24,o),
(131,-16,o),
(138,0,cs),
(142,7,o),
(142,115,o),
(142,232,c),
(146,278,o),
(163,314,o),
(222,314,cs),
(234,314,o),
(247,314,o),
(260,314,cs),
(337,313,ls),
(350,313,o),
(363,313,o),
(376,313,cs),
(401,313,o),
(440,316,o),
(440,349,cs),
(440,372,o),
(415,385,o),
(395,385,cs),
(211,385,ls),
(187,385,o),
(163,380,o),
(141,370,c),
(141,449,o),
(140,514,o),
(140,534,cs),
(140,583,o),
(145,652,o),
(213,652,cs),
(318,652,ls),
(353,652,o),
(382,623,o),
(388,590,cs),
(394,560,o),
(395,537,o),
(435,537,cs),
(455,537,o),
(480,550,o),
(480,573,cs),
(480,660,o),
(404,724,o),
(320,724,cs),
(211,724,ls),
(127,724,o),
(51,660,o),
(51,573,cs),
(51,12,ls),
(51,-11,o),
(76,-24,o),
(96,-24,cs)
);
}
);
width = 530;
}
);
note = F;
unicode = 70;
},
{
color = 0;
glyphname = G;
lastChange = "2023-10-25 20:36:27 +0000";
layers = (
{
hints = (
{
horizontal = 1;
place = (675,27);
type = Stem;
},
{
horizontal = 1;
place = (337,27);
type = Stem;
},
{
horizontal = 1;
place = (-2,27);
type = Stem;
},
{
place = (404,30);
type = Stem;
},
{
place = (66,30);
type = Stem;
}
);
layerId = m01;
shapes = (
{
closed = 1;
nodes = (
(304,-2,ls),
(368,-2,o),
(429,49,o),
(433,115,cs),
(434,128,o),
(434,142,o),
(434,156,cs),
(434,350,ls),
(434,358,o),
(426,364,o),
(419,364,cs),
(337,364,ls),
(329,364,o),
(248,364,o),
(245,363,cs),
(239,360,o),
(235,357,o),
(235,350,cs),
(235,343,o),
(239,340,o),
(245,337,cs),
(249,335,o),
(384,337,o),
(404,337,c),
(404,153,ls),
(404,109,o),
(401,74,o),
(363,45,cs),
(346,33,o),
(325,25,o),
(303,25,cs),
(196,25,ls),
(141,25,o),
(96,72,o),
(96,127,cs),
(96,272,o),
(96,416,o),
(96,561,cs),
(96,579,o),
(97,596,o),
(104,613,cs),
(120,650,o),
(157,675,o),
(197,675,cs),
(203,675,o),
(209,675,o),
(215,675,cs),
(251,676,ls),
(257,676,o),
(263,676,o),
(269,676,cs),
(287,676,o),
(306,676,o),
(324,673,cs),
(362,664,o),
(390,637,o),
(400,599,cs),
(402,590,o),
(402,581,o),
(404,573,cs),
(405,564,o),
(411,560,o),
(419,560,cs),
(427,560,o),
(434,566,o),
(434,574,cs),
(434,644,o),
(374,702,o),
(305,702,cs),
(196,702,ls),
(133,702,o),
(71,651,o),
(67,586,cs),
(66,564,o),
(66,542,o),
(66,521,cs),
(66,127,ls),
(66,52,o),
(128,-2,o),
(201,-2,cs)
);
}
);
width = 499;
},
{
hints = (
{
horizontal = 1;
place = (653,71);
type = Stem;
},
{
horizontal = 1;
place = (314,72);
type = Stem;
},
{
horizontal = 1;
place = (-24,72);
type = Stem;
},
{
place = (389,90);
type = Stem;
},
{
place = (51,90);
type = Stem;
}
);
layerId = "2F065738-4B59-43EB-A5F2-FD5F277958EA";
shapes = (
{
closed = 1;
nodes = (
(319,-24,ls),
(423,-24,o),
(480,53,o),
(480,151,cs),
(480,170,o),
(479,190,o),
(479,210,cs),
(479,350,ls),
(479,373,o),
(454,386,o),
(434,386,cs),
(333,386,ls),
(304,386,o),
(220,397,o),
(220,350,cs),
(220,306,o),
(284,314,o),
(313,314,cs),
(389,314,l),
(389,201,ls),
(389,148,o),
(400,48,o),
(317,48,cs),
(212,48,ls),
(170,48,o),
(141,88,o),
(141,127,cs),
(141,560,ls),
(141,669,o),
(223,653,o),
(303,653,cs),
(424,653,o),
(354,537,o),
(434,537,cs),
(454,537,o),
(479,550,o),
(479,573,cs),
(479,660,o),
(403,724,o),
(319,724,cs),
(211,724,ls),
(113,724,o),
(51,652,o),
(51,557,cs),
(51,127,ls),
(51,40,o),
(127,-24,o),
(211,-24,cs)
);
}
);
width = 530;
}
);
note = G;
unicode = 71;
},
{
color = 0;
glyphname = H;
lastChange = "2023-10-25 20:36:27 +0000";
layers = (
{
hints = (
{
horizontal = 1;
place = (702,-20);
target = down;
type = TopGhost;
},
{
horizontal = 1;
place = (701,-20);
target = down;
type = TopGhost;
},
{
horizontal = 1;
place = (337,26);
type = Stem;
},
{
horizontal = 1;
place = (-2,21);
target = up;
type = BottomGhost;
},
{
place = (404,30);
type = Stem;
},
{
place = (66,30);
type = Stem;
}
);
layerId = m01;
shapes = (
{
closed = 1;
nodes = (
(88,-2,o),
(96,4,o),
(96,12,cs),
(96,86,o),
(96,160,o),
(96,233,c),
(104,313,o),
(148,337,o),
(220,337,cs),
(281,337,o),
(342,336,o),
(404,336,c),
(404,12,ls),
(404,4,o),
(411,-2,o),
(419,-2,cs),
(426,-2,o),
(434,4,o),
(434,12,cs),
(434,688,ls),
(434,696,o),
(426,701,o),
(419,701,cs),
(411,701,o),
(404,696,o),
(404,688,cs),
(404,363,l),
(334,363,o),
(265,363,o),
(196,363,cs),
(156,363,o),
(120,345,o),
(96,316,c),
(96,397,o),
(95,477,o),
(95,558,cs),
(95,628,o),
(127,667,o),
(197,675,cs),
(204,676,o),
(211,680,o),
(211,689,cs),
(211,697,o),
(202,702,o),
(195,702,cs),
(121,702,o),
(66,641,o),
(66,568,cs),
(66,12,ls),
(66,4,o),
(74,-2,o),
(81,-2,cs)
);
}
);
width = 499;
},
{
hints = (
{
horizontal = 1;
place = (724,-20);
target = down;
type = TopGhost;
},
{
horizontal = 1;
place = (315,71);
type = Stem;
},
{
horizontal = 1;
place = (-24,21);
target = up;
type = BottomGhost;
},
{
place = (389,90);
type = Stem;
},
{
place = (51,90);
type = Stem;
}
);
layerId = "2F065738-4B59-43EB-A5F2-FD5F277958EA";
shapes = (
{
closed = 1;
nodes = (
(113,-24,o),
(131,-16,o),
(138,0,cs),
(145,14,o),
(141,204,o),
(141,235,cs),
(141,291,o),
(180,315,o),
(231,315,cs),
(284,315,o),
(336,314,o),
(389,313,c),
(389,12,ls),
(389,-11,o),
(413,-24,o),
(434,-24,cs),
(454,-24,o),
(479,-11,o),
(479,12,cs),
(479,688,ls),
(479,711,o),
(454,724,o),
(434,724,cs),
(413,724,o),
(389,711,o),
(389,688,cs),
(389,386,l),
(211,386,ls),
(187,386,o),
(163,380,o),
(141,370,c),
(140,552,ls),
(140,695,o),
(256,624,o),
(256,688,cs),
(256,711,o),
(231,724,o),
(211,724,cs),
(127,724,o),
(51,660,o),
(51,573,cs),
(51,12,ls),
(51,-11,o),
(76,-24,o),
(96,-24,cs)
);
}
);
width = 529;
}
);
note = H;
unicode = 72;
},
{
color = 0;
glyphname = I;
lastChange = "2023-10-25 20:36:27 +0000";
layers = (
{
hints = (
{
horizontal = 1;
place = (675,27);
type = Stem;
},
{
horizontal = 1;
place = (-2,27);
type = Stem;
},
{
place = (235,30);
type = Stem;
}
);
layerId = m01;
shapes = (
{
closed = 1;
nodes = (
(419,-2,ls),
(426,-2,o),
(434,4,o),
(434,12,cs),
(434,20,o),
(426,25,o),
(419,25,cs),
(265,25,l),
(265,675,l),
(419,675,ls),
(426,675,o),
(434,680,o),
(434,688,cs),
(434,696,o),
(426,702,o),
(419,702,cs),
(81,702,ls),
(74,702,o),
(66,696,o),
(66,688,cs),
(66,680,o),
(74,675,o),
(81,675,cs),
(235,675,l),
(235,25,l),
(81,25,ls),
(74,25,o),
(66,20,o),
(66,12,cs),
(66,4,o),
(74,-2,o),
(81,-2,cs)
);
}
);
width = 499;
},
{
hints = (
{
horizontal = 1;
place = (652,72);
type = Stem;
},
{
horizontal = 1;
place = (-24,72);
type = Stem;
},
{
place = (220,90);
type = Stem;
}
);
layerId = "2F065738-4B59-43EB-A5F2-FD5F277958EA";
shapes = (
{
closed = 1;
nodes = (
(434,-24,ls),
(454,-24,o),
(479,-11,o),
(479,12,cs),
(479,35,o),
(454,48,o),
(434,48,cs),
(310,48,l),
(310,652,l),
(434,652,ls),
(454,652,o),
(479,665,o),
(479,688,cs),
(479,711,o),
(454,724,o),
(434,724,cs),
(96,724,ls),
(75,724,o),
(51,711,o),
(51,688,cs),
(51,665,o),
(75,652,o),
(96,652,cs),
(220,652,l),
(220,48,l),
(96,48,ls),
(75,48,o),
(51,35,o),
(51,12,cs),
(51,-11,o),
(75,-24,o),
(96,-24,cs)
);
}
);
width = 529;
}
);
note = I;
unicode = 73;
},
{
color = 0;
glyphname = J;
lastChange = "2023-10-25 20:36:27 +0000";
layers = (
{
hints = (
{
horizontal = 1;
place = (702,-20);
target = down;
type = TopGhost;
},
{
horizontal = 1;
place = (-2,27);
type = Stem;
},
{
place = (404,30);
type = Stem;
}
);
layerId = m01;
shapes = (
{
closed = 1;
nodes = (
(304,-2,ls),
(368,-2,o),
(429,49,o),
(433,115,cs),
(435,136,o),
(434,157,o),
(434,179,cs),
(434,310,o),
(434,442,o),
(434,573,cs),
(434,645,o),
(374,702,o),
(303,702,cs),
(296,702,o),
(289,695,o),
(289,688,cs),
(289,680,o),
(296,676,o),
(303,675,cs),
(315,673,o),
(325,672,o),
(337,668,cs),
(378,654,o),
(404,617,o),
(404,573,cs),
(404,139,ls),
(404,120,o),
(403,104,o),
(396,87,cs),
(380,50,o),
(343,25,o),
(303,25,cs),
(196,25,ls),
(152,25,o),
(116,53,o),
(102,94,cs),
(98,106,o),
(98,116,o),
(96,127,cs),
(94,136,o),
(89,140,o),
(80,140,cs),
(73,140,o),
(66,134,o),
(66,126,cs),
(66,51,o),
(129,-2,o),
(201,-2,cs)
);
}
);
width = 499;
},
{
hints = (
{
horizontal = 1;
place = (724,-20);
target = down;
type = TopGhost;
},
{
horizontal = 1;
place = (-24,72);
type = Stem;
},
{
place = (389,90);
type = Stem;
}
);
layerId = "2F065738-4B59-43EB-A5F2-FD5F277958EA";
shapes = (
{
closed = 1;
nodes = (
(319,-24,ls),
(416,-24,o),
(479,48,o),
(479,142,cs),
(479,302,l),
(479,573,ls),
(479,660,o),
(403,724,o),
(319,724,cs),
(299,724,o),
(274,711,o),
(274,688,cs),
(274,630,o),
(389,679,o),
(389,573,cs),
(389,140,ls),
(389,96,o),
(369,48,o),
(317,48,cs),
(212,48,ls),
(178,48,o),
(148,77,o),
(143,110,cs),
(138,140,o),
(136,163,o),
(96,163,cs),
(75,163,o),
(51,150,o),
(51,127,cs),
(51,40,o),
(127,-24,o),
(211,-24,cs)
);
}
);
width = 530;
}
);
note = J;
unicode = 74;
},
{
color = 0;
glyphname = K;
lastChange = "2023-10-25 20:36:27 +0000";
layers = (
{
hints = (
{
horizontal = 1;
place = (701,-20);
target = down;
type = TopGhost;
},
{
horizontal = 1;
place = (336,27);
type = Stem;
},
{
horizontal = 1;
place = (-2,21);
target = up;
type = BottomGhost;
},
{
place = (404,30);
type = Stem;
},
{
place = (66,30);
type = Stem;
}
);
layerId = m01;
shapes = (
{
closed = 1;
nodes = (
(88,-2,o),
(96,4,o),
(96,12,cs),
(96,86,o),
(96,159,o),
(96,233,c),
(98,245,o),
(98,255,o),
(102,265,cs),
(115,308,o),
(151,336,o),
(196,336,cs),
(303,336,ls),
(355,336,o),
(398,296,o),
(403,245,cs),
(406,219,o),
(404,192,o),
(404,166,cs),
(404,12,ls),
(404,4,o),
(411,-2,o),
(419,-2,cs),
(426,-2,o),
(434,4,o),
(434,12,cs),
(434,235,ls),
(434,288,o),
(403,330,o),
(359,350,c),
(426,383,o),
(435,435,o),
(435,501,cs),
(435,525,o),
(434,549,o),
(434,572,cs),
(434,580,o),
(426,586,o),
(419,586,cs),
(411,586,o),
(404,580,o),
(404,572,cs),
(404,566,o),
(404,560,o),
(404,554,cs),
(404,519,l),
(405,513,o),
(405,507,o),
(405,501,cs),
(405,483,o),
(405,463,o),
(402,445,cs),
(390,392,o),
(353,371,o),
(303,364,cs),
(302,364,o),
(300,364,o),
(299,363,c),
(196,363,ls),
(156,363,o),
(120,345,o),
(96,316,c),
(96,396,o),
(95,477,o),
(95,557,cs),
(95,627,o),
(127,666,o),
(196,674,cs),
(204,675,o),
(211,679,o),
(211,688,cs),
(211,696,o),
(202,701,o),
(195,701,cs),
(120,701,o),
(66,640,o),
(66,567,cs),
(66,12,ls),
(66,4,o),
(74,-2,o),
(81,-2,cs)
);
}
);
width = 499;
},
{
hints = (
{
horizontal = 1;
place = (723,-20);
target = down;
type = TopGhost;
},
{
horizontal = 1;
place = (314,72);
type = Stem;
},
{
horizontal = 1;
place = (-24,21);
target = up;
type = BottomGhost;
},
{
place = (389,90);
type = Stem;
},
{
place = (51,89);
type = Stem;
}
);
layerId = "2F065738-4B59-43EB-A5F2-FD5F277958EA";
shapes = (
{
closed = 1;
nodes = (
(113,-24,o),
(131,-16,o),
(138,0,cs),
(142,8,o),
(143,124,o),
(142,249,c),
(148,283,o),
(175,314,o),
(212,314,cs),
(318,314,ls),
(400,314,o),
(389,214,o),
(389,161,cs),
(388,24,ls),
(388,-6,o),
(403,-24,o),
(434,-24,cs),
(454,-24,o),
(479,-11,o),
(479,12,cs),
(479,235,ls),
(479,282,o),
(456,322,o),
(422,349,c),
(459,381,o),
(480,430,o),
(480,486,cs),
(480,528,o),
(495,608,o),
(434,608,cs),
(371,608,o),
(389,533,o),
(389,492,cs),
(389,404,o),
(351,386,o),
(318,386,cs),
(211,386,ls),
(186,386,o),
(163,380,o),
(141,370,c),
(141,457,o),
(140,529,o),
(140,551,cs),
(140,694,o),
(256,623,o),
(256,687,cs),
(256,710,o),
(231,723,o),
(211,723,cs),
(127,723,o),
(51,659,o),
(51,572,cs),
(51,12,ls),
(51,-11,o),
(76,-24,o),
(96,-24,cs)
);
}
);
width = 530;
}
);
note = K;
unicode = 75;
},
{
color = 0;
glyphname = L;
lastChange = "2023-10-25 20:36:27 +0000";
layers = (
{
hints = (
{
horizontal = 1;
place = (702,-20);
target = down;
type = TopGhost;
},
{
horizontal = 1;
place = (-2,28);
type = Stem;
},
{
place = (66,30);
type = Stem;
}
);
layerId = m01;
shapes = (
{
closed = 1;
nodes = (
(270,-2,ls),
(341,-2,o),
(400,56,o),
(400,128,cs),
(400,136,o),
(392,140,o),
(384,140,cs),
(377,140,o),
(371,135,o),
(370,128,cs),
(369,117,o),
(368,107,o),
(365,96,cs),
(351,54,o),
(315,26,o),
(270,26,cs),
(96,26,l),
(96,688,ls),
(96,696,o),
(88,702,o),
(81,702,cs),
(74,702,o),
(66,696,o),
(66,688,cs),
(66,12,ls),
(66,4,o),
(74,-2,o),
(81,-2,cs)
);
}
);
width = 499;
},
{
hints = (
{
horizontal = 1;
place = (724,-20);
target = down;
type = TopGhost;
},
{
horizontal = 1;
place = (-24,72);
type = Stem;
},
{
place = (356,89);
type = Stem;
},
{
place = (51,89);
type = Stem;
}
);
layerId = "2F065738-4B59-43EB-A5F2-FD5F277958EA";
shapes = (
{
closed = 1;
nodes = (
(285,-24,ls),
(369,-24,o),
(445,40,o),
(445,127,cs),
(445,150,o),
(420,163,o),
(400,163,cs),
(378,163,o),
(358,150,o),
(355,127,cs),
(354,116,ls),
(354,114,o),
(354,112,o),
(353,110,c),
(347,77,o),
(318,48,o),
(284,48,cs),
(141,48,l),
(139,697,l),
(131,715,o),
(116,724,o),
(96,724,cs),
(75,724,o),
(51,711,o),
(51,688,cs),
(51,12,ls),
(51,-11,o),
(75,-24,o),
(96,-24,cs)
);
}
);
width = 496;
}
);
note = L;
unicode = 76;
},
{
color = 0;
glyphname = M;
lastChange = "2023-10-25 20:36:27 +0000";
layers = (
{
hints = (
{
horizontal = 1;
place = (675,27);
type = Stem;
},
{
horizontal = 1;
place = (-1,21);
target = up;
type = BottomGhost;
},
{
horizontal = 1;
place = (-2,21);
target = up;
type = BottomGhost;
},
{
place = (740,30);
type = Stem;
},
{
place = (402,30);
type = Stem;
},
{
place = (63,31);
type = Stem;
}
);
layerId = m01;
shapes = (
{
closed = 1;
nodes = (
(424,-2,o),
(431,3,o),
(432,11,c),
(432,11,o),
(432,12,o),
(432,13,cs),
(432,77,o),
(432,141,o),
(432,205,cs),
(432,573,l),
(436,628,o),
(472,675,o),
(532,675,cs),
(639,675,ls),
(691,675,o),
(734,635,o),
(739,584,cs),
(741,563,o),
(740,541,o),
(740,520,cs),
(739,12,ls),
(739,4,o),
(747,-2,o),
(754,-2,cs),
(762,-2,o),
(769,4,o),
(769,12,cs),
(770,573,ls),
(770,648,o),
(708,702,o),
(635,702,cs),
(532,702,ls),
(485,702,o),
(440,674,o),
(417,633,c),
(394,675,o),
(349,702,o),
(297,702,cs),
(194,702,ls),
(131,702,o),
(69,651,o),
(65,586,cs),
(63,560,o),
(63,535,o),
(63,510,cs),
(63,344,o),
(64,179,o),
(64,13,cs),
(64,5,o),
(72,-1,o),
(79,-1,cs),
(87,-1,o),
(94,5,o),
(94,13,cs),
(94,195,o),
(94,376,o),
(94,558,cs),
(94,577,o),
(95,595,o),
(103,613,cs),
(118,650,o),
(155,675,o),
(195,675,cs),
(302,675,ls),
(359,675,o),
(399,630,o),
(402,575,c),
(401,553,o),
(401,531,o),
(401,510,cs),
(401,386,o),
(402,263,o),
(402,139,cs),
(402,12,ls),
(402,4,o),
(409,-2,o),
(417,-2,cs)
);
}
);
width = 835;
},
{
hints = (
{
horizontal = 1;
place = (652,72);
type = Stem;
},
{
horizontal = 1;
place = (-23,21);
target = up;
type = BottomGhost;
},
{
horizontal = 1;
place = (-24,21);
target = up;
type = BottomGhost;
},
{
place = (727,90);
type = Stem;
},
{
place = (389,90);
type = Stem;
},
{
place = (51,90);
type = Stem;
}
);
layerId = "2F065738-4B59-43EB-A5F2-FD5F277958EA";
shapes = (
{
closed = 1;
nodes = (
(453,-24,o),
(465,-17,o),
(473,-6,c),
(475,-2,o),
(476,0,o),
(477,4,cs),
(478,10,o),
(479,16,o),
(479,23,cs),
(479,148,o),
(479,274,o),
(479,400,cs),
(479,560,ls),
(479,604,o),
(495,652,o),
(550,652,cs),
(655,652,ls),
(736,652,o),
(727,559,o),
(727,506,cs),
(726,12,ls),
(726,-11,o),
(751,-24,o),
(771,-24,cs),
(802,-24,o),
(817,-6,o),
(817,23,cs),
(817,573,ls),
(817,660,o),
(741,724,o),
(657,724,cs),
(549,724,ls),
(502,724,o),
(462,707,o),
(434,678,c),
(404,707,o),
(363,724,o),
(319,724,cs),
(211,724,ls),
(116,724,o),
(51,653,o),
(51,560,cs),
(51,13,ls),
(51,-10,o),
(76,-23,o),
(96,-23,cs),
(113,-23,o),
(131,-15,o),
(139,0,cs),
(145,15,o),
(141,476,o),
(141,534,cs),
(141,583,o),
(146,652,o),
(212,652,cs),
(318,652,ls),
(373,652,o),
(389,608,o),
(389,563,cs),
(389,380,o),
(389,195,o),
(389,12,cs),
(389,-11,o),
(413,-24,o),
(434,-24,cs)
);
}
);
width = 867;
}
);
note = M;
unicode = 77;
},
{
color = 0;
glyphname = N;
lastChange = "2023-10-25 20:36:27 +0000";
layers = (
{
hints = (
{
horizontal = 1;
place = (675,27);
type = Stem;
},
{
horizontal = 1;
place = (-1,21);
target = up;
type = BottomGhost;
},
{
horizontal = 1;
place = (-2,21);
target = up;
type = BottomGhost;
},
{
place = (402,30);
type = Stem;
},
{
place = (63,31);
type = Stem;
}
);
layerId = m01;
shapes = (
{
closed = 1;
nodes = (
(424,-2,o),
(432,4,o),
(432,12,cs),
(432,573,ls),
(432,648,o),
(370,702,o),
(297,702,cs),
(194,702,ls),
(131,702,o),
(69,651,o),
(65,586,cs),
(63,560,o),
(63,535,o),
(63,510,cs),
(63,344,o),
(64,179,o),
(64,13,cs),
(64,5,o),
(72,-1,o),
(79,-1,cs),
(87,-1,o),
(94,5,o),
(94,13,cs),
(94,195,o),
(94,376,o),
(94,558,cs),
(94,577,o),
(95,595,o),
(103,613,cs),
(118,650,o),
(155,675,o),
(195,675,cs),
(302,675,ls),
(353,675,o),
(396,635,o),
(401,584,cs),
(404,563,o),
(402,541,o),
(402,520,cs),
(402,12,ls),
(402,4,o),
(409,-2,o),
(417,-2,cs)
);
}
);
width = 498;
},
{
hints = (
{
horizontal = 1;
place = (652,72);
type = Stem;
},
{
horizontal = 1;
place = (-23,21);
target = up;
type = BottomGhost;
},
{
horizontal = 1;
place = (-24,21);
target = up;
type = BottomGhost;
},
{
place = (389,90);
type = Stem;
},
{
place = (51,90);
type = Stem;
}
);
layerId = "2F065738-4B59-43EB-A5F2-FD5F277958EA";
shapes = (
{
closed = 1;
nodes = (
(464,-24,o),
(479,-6,o),
(479,23,cs),
(479,573,ls),
(479,660,o),
(403,724,o),
(319,724,cs),
(211,724,ls),
(116,724,o),
(51,653,o),
(51,560,cs),
(51,13,ls),
(51,-10,o),
(76,-23,o),
(96,-23,cs),
(113,-23,o),
(131,-15,o),
(138,0,cs),
(145,15,o),
(141,476,o),
(141,534,cs),
(141,583,o),
(146,652,o),
(212,652,cs),
(318,652,ls),
(398,652,o),
(389,559,o),
(389,506,cs),
(389,12,ls),
(389,-11,o),
(413,-24,o),
(434,-24,cs)
);
}
);
width = 530;
}
);
note = N;
unicode = 78;
},
{
color = 0;
glyphname = O;
lastChange = "2023-10-25 20:36:27 +0000";
layers = (
{
hints = (
{
horizontal = 1;
place = (675,27);
type = Stem;
},
{
horizontal = 1;
place = (-2,28);
type = Stem;
},
{
place = (404,30);
type = Stem;
},
{
place = (66,30);
type = Stem;
}
);
layerId = m01;
shapes = (
{
closed = 1;
nodes = (
(304,-2,ls),
(379,-2,o),
(434,58,o),
(434,132,cs),
(434,573,ls),
(434,648,o),
(372,702,o),
(299,702,cs),
(196,702,ls),
(123,702,o),
(66,643,o),
(66,571,cs),
(66,127,ls),
(66,52,o),
(128,-2,o),
(201,-2,cs)
);
},
{
closed = 1;
nodes = (
(141,26,o),
(96,72,o),
(96,127,cs),
(96,573,ls),
(96,628,o),
(141,675,o),
(196,675,cs),
(304,675,ls),
(359,675,o),
(404,628,o),
(404,573,cs),
(404,127,ls),
(404,72,o),
(359,26,o),
(304,26,cs),
(196,26,ls)
);
}
);
width = 500;
},
{
hints = (
{
horizontal = 1;
place = (652,72);
type = Stem;
},
{
horizontal = 1;
place = (-24,72);
type = Stem;
},
{
place = (389,90);
type = Stem;
},
{
place = (51,90);
type = Stem;
}
);
layerId = "2F065738-4B59-43EB-A5F2-FD5F277958EA";
shapes = (
{
closed = 1;
nodes = (
(319,-24,ls),
(403,-24,o),
(479,40,o),
(479,127,cs),
(479,573,ls),
(479,660,o),
(403,724,o),
(319,724,cs),
(211,724,ls),
(127,724,o),
(51,660,o),
(51,573,cs),
(51,127,ls),
(51,40,o),
(127,-24,o),
(211,-24,cs)
);
},
{
closed = 1;
nodes = (
(170,48,o),
(141,88,o),
(141,128,cs),
(141,572,ls),
(141,612,o),
(170,652,o),
(212,652,cs),
(318,652,ls),
(360,652,o),
(389,612,o),
(389,572,cs),
(389,128,ls),
(389,88,o),
(360,48,o),
(318,48,cs),
(212,48,ls)
);
}
);
width = 530;
}
);
note = O;
unicode = 79;
},
{
color = 0;
glyphname = P;
lastChange = "2023-10-25 20:36:27 +0000";
layers = (
{
hints = (
{
horizontal = 1;
place = (675,28);
type = Stem;
},
{
horizontal = 1;
place = (336,28);
type = Stem;
},
{
horizontal = 1;
place = (-2,21);
target = up;
type = BottomGhost;
},
{
place = (404,30);
type = Stem;
},
{
place = (66,30);
type = Stem;
}
);
layerId = m01;
shapes = (
{
closed = 1;
nodes = (
(88,-2,o),
(96,4,o),
(96,12,cs),
(96,86,o),
(96,160,o),
(96,233,c),
(97,244,o),
(98,252,o),
(100,261,cs),
(111,299,o),
(138,326,o),
(176,334,cs),
(192,337,o),
(208,336,o),
(223,336,cs),
(269,336,ls),
(285,336,o),
(300,337,o),
(316,338,cs),
(385,342,o),
(434,404,o),
(434,470,cs),
(434,573,ls),
(434,648,o),
(372,702,o),
(299,702,cs),
(276,702,o),
(253,703,o),
(230,703,cs),
(210,703,o),
(190,702,o),
(170,699,cs),
(108,689,o),
(66,630,o),
(66,568,cs),
(66,12,ls),
(66,4,o),
(74,-2,o),
(81,-2,cs)
);
},
{
closed = 1;
nodes = (
(96,398,o),
(95,480,o),
(95,562,cs),
(95,594,o),
(102,621,o),
(126,645,cs),
(152,671,o),
(178,675,o),
(213,675,cs),
(304,675,ls),
(359,675,o),
(404,628,o),
(404,573,cs),
(404,466,ls),
(404,444,o),
(397,423,o),
(384,406,cs),
(346,355,o),
(294,364,o),
(237,364,cs),
(219,364,o),
(201,364,o),
(183,363,cs),
(148,361,o),
(117,342,o),
(96,316,c)
);
}
);
width = 499;
},
{
hints = (
{
horizontal = 1;
place = (653,71);
type = Stem;
},
{
horizontal = 1;
place = (314,72);
type = Stem;
},
{
horizontal = 1;
place = (-24,21);
target = up;
type = BottomGhost;
},
{
place = (389,90);
type = Stem;
},
{
place = (51,90);
type = Stem;
}
);
layerId = "2F065738-4B59-43EB-A5F2-FD5F277958EA";
shapes = (
{
closed = 1;
nodes = (
(136,-24,o),
(141,0,o),
(141,32,cs),
(141,231,ls),
(141,325,o),
(222,314,o),
(288,314,cs),
(383,314,o),
(479,355,o),
(479,465,cs),
(479,573,ls),
(479,659,o),
(402,724,o),
(319,724,cs),
(220,724,ls),
(132,724,o),
(51,666,o),
(51,573,cs),
(51,12,ls),
(51,-11,o),
(76,-24,o),
(96,-24,cs)
);
},
{
closed = 1;
nodes = (
(140,562,ls),
(140,619,o),
(169,653,o),
(227,653,cs),
(292,653,o),
(389,667,o),
(389,573,cs),
(389,466,ls),
(389,377,o),
(309,386,o),
(248,386,cs),
(212,386,o),
(174,385,o),
(141,371,c)
);
}
);
width = 529;
}
);
note = P;
unicode = 80;
},
{
color = 0;
glyphname = Q;
lastChange = "2023-10-25 20:36:27 +0000";
layers = (
{
hints = (
{
horizontal = 1;
place = (675,27);
type = Stem;
},
{
horizontal = 1;
place = (-2,28);
type = Stem;
},
{
place = (404,30);
type = Stem;
},
{
place = (66,30);
type = Stem;
}
);
layerId = m01;
shapes = (
{
closed = 1;
nodes = (
(304,-2,ls),
(327,-2,o),
(348,4,o),
(367,14,c),
(383,7,o),
(401,3,o),
(420,3,cs),
(428,3,o),
(434,9,o),
(434,17,cs),
(434,25,o),
(427,29,o),
(420,30,cs),
(411,31,o),
(402,31,o),
(394,34,c),
(419,58,o),
(434,93,o),
(434,132,cs),
(434,573,ls),
(434,648,o),
(372,702,o),
(299,702,cs),
(196,702,ls),
(123,702,o),
(66,643,o),
(66,571,cs),
(66,127,ls),
(66,52,o),
(128,-2,o),
(201,-2,cs)
);
},
{
closed = 1;
nodes = (
(141,26,o),
(96,72,o),
(96,127,cs),
(96,573,ls),
(96,628,o),
(141,675,o),
(196,675,cs),
(304,675,ls),
(359,675,o),
(404,628,o),
(404,573,cs),
(404,127,ls),
(404,95,o),
(389,65,o),
(365,47,c),
(344,60,o),
(330,80,o),
(323,105,cs),
(321,114,o),
(321,123,o),
(319,132,cs),
(318,140,o),
(312,145,o),
(304,145,cs),
(296,145,o),
(289,138,o),
(289,131,cs),
(289,90,o),
(308,55,o),
(338,32,c),
(327,28,o),
(316,26,o),
(304,26,cs),
(196,26,ls)
);
}
);
width = 500;
},
{
hints = (
{
horizontal = 1;
place = (652,72);
type = Stem;
},
{
horizontal = 1;
place = (-24,72);
type = Stem;
},
{
horizontal = 1;
place = (-20,21);
target = up;
type = BottomGhost;
},
{
place = (389,90);
type = Stem;
},
{
place = (274,92);
type = Stem;
},
{
place = (51,90);
type = Stem;
}
);
layerId = "2F065738-4B59-43EB-A5F2-FD5F277958EA";
shapes = (
{
closed = 1;
nodes = (
(319,-24,ls),
(341,-24,o),
(363,-20,o),
(382,-12,c),
(399,-17,o),
(416,-20,o),
(434,-20,cs),
(455,-20,o),
(479,-7,o),
(479,16,cs),
(479,31,o),
(468,42,o),
(455,48,c),
(470,70,o),
(479,97,o),
(479,127,cs),
(479,573,ls),
(479,660,o),
(403,724,o),
(319,724,cs),
(211,724,ls),
(127,724,o),
(51,660,o),
(51,573,cs),
(51,127,ls),
(51,40,o),
(127,-24,o),
(211,-24,cs)
);
},
{
closed = 1;
nodes = (
(170,48,o),
(141,88,o),
(141,128,cs),
(141,572,ls),
(141,612,o),
(170,652,o),
(212,652,cs),
(318,652,ls),
(360,652,o),
(389,612,o),
(389,572,cs),
(389,128,ls),
(389,113,o),
(385,98,o),
(378,85,c),
(372,94,o),
(368,104,o),
(366,114,cs),
(365,122,o),
(365,130,o),
(363,137,cs),
(359,157,o),
(338,167,o),
(319,167,cs),
(299,167,o),
(274,154,o),
(274,131,cs),
(274,100,o),
(284,71,o),
(301,48,c),
(212,48,ls)
);
}
);
width = 530;
}
);
note = Q;
unicode = 81;
},
{
color = 0;
glyphname = R;
lastChange = "2023-10-25 20:36:27 +0000";
layers = (
{
hints = (
{
horizontal = 1;
place = (675,27);
type = Stem;
},
{
horizontal = 1;
place = (337,27);
type = Stem;
},
{
horizontal = 1;
place = (-2,21);
target = up;
type = BottomGhost;
},
{
place = (404,30);
type = Stem;
},
{
place = (66,30);
type = Stem;
}
);
layerId = m01;
shapes = (
{
closed = 1;
nodes = (
(88,-2,o),
(96,4,o),
(96,12,cs),
(96,58,o),
(96,104,o),
(96,149,cs),
(96,234,l),
(98,243,o),
(98,252,o),
(100,261,cs),
(120,332,o),
(172,337,o),
(233,337,cs),
(256,337,o),
(280,336,o),
(303,336,cs),
(355,336,o),
(398,296,o),
(403,246,cs),
(406,219,o),
(404,192,o),
(404,166,cs),
(404,12,ls),
(404,4,o),
(411,-2,o),
(419,-2,cs),
(426,-2,o),
(434,4,o),
(434,12,cs),
(434,235,ls),
(434,288,o),
(404,329,o),
(361,350,c),
(405,371,o),
(434,417,o),
(434,470,cs),
(434,573,ls),
(434,649,o),
(372,702,o),
(299,702,cs),
(293,702,o),
(288,702,o),
(282,702,cs),
(247,702,l),
(242,703,o),
(236,703,o),
(230,703,cs),
(210,703,o),
(190,702,o),
(170,699,cs),
(107,689,o),
(66,630,o),
(66,568,cs),
(66,12,ls),
(66,4,o),
(74,-2,o),
(81,-2,cs)
);
},
{
closed = 1;
nodes = (
(96,562,ls),
(96,637,o),
(139,675,o),
(213,675,cs),
(304,675,ls),
(359,675,o),
(404,628,o),
(404,573,cs),
(404,466,ls),
(404,422,o),
(378,385,o),
(337,370,cs),
(325,366,o),
(315,366,o),
(303,364,cs),
(302,364,o),
(302,364,o),
(299,363,c),
(278,363,o),
(257,364,o),
(236,364,cs),
(218,364,o),
(201,364,o),
(183,363,cs),
(148,361,o),
(117,342,o),
(96,316,c)
);
}
);
width = 499;
},
{
hints = (
{
horizontal = 1;
place = (653,71);
type = Stem;
},
{
horizontal = 1;
place = (314,72);
type = Stem;
},
{
horizontal = 1;
place = (-24,21);
target = up;
type = BottomGhost;
},
{
place = (389,90);
type = Stem;
},
{
place = (51,90);
type = Stem;
}
);
layerId = "2F065738-4B59-43EB-A5F2-FD5F277958EA";
shapes = (
{
closed = 1;
nodes = (
(116,-24,o),
(134,-14,o),
(140,6,cs),
(142,13,o),
(143,121,o),
(142,241,c),
(150,275,o),
(156,315,o),
(228,315,cs),
(258,315,o),
(288,314,o),
(318,314,cs),
(400,314,o),
(389,214,o),
(389,161,cs),
(388,24,ls),
(388,-6,o),
(403,-24,o),
(434,-24,cs),
(454,-24,o),
(479,-11,o),
(479,12,cs),
(479,235,ls),
(479,282,o),
(456,323,o),
(422,350,c),
(456,377,o),
(479,418,o),
(479,465,cs),
(479,573,ls),
(479,660,o),
(403,724,o),
(319,724,cs),
(220,724,ls),
(132,724,o),
(51,667,o),
(51,573,cs),
(51,12,ls),
(51,-11,o),
(76,-24,o),
(96,-24,cs)
);
},
{
closed = 1;
nodes = (
(141,462,o),
(141,540,o),
(141,562,cs),
(141,620,o),
(168,653,o),
(228,653,cs),
(292,653,o),
(389,667,o),
(389,573,cs),
(389,466,ls),
(389,404,o),
(349,395,o),
(317,386,c),
(220,386,ls),
(192,386,o),
(166,380,o),
(142,370,c)
);
}
);
width = 529;
}
);
note = R;
unicode = 82;
},
{
color = 0;
glyphname = S;
lastChange = "2023-10-25 20:36:27 +0000";
layers = (
{
hints = (
{
horizontal = 1;
place = (675,27);
type = Stem;
},
{
horizontal = 1;
place = (336,28);
type = Stem;
},
{
horizontal = 1;
place = (-2,28);
type = Stem;
},
{
place = (404,30);
type = Stem;
},
{
place = (390,35);
type = Stem;
},
{
place = (66,30);
type = Stem;
}
);
layerId = m01;
shapes = (
{
closed = 1;
nodes = (
(304,-2,ls),
(379,-2,o),
(434,58,o),
(434,132,cs),
(434,235,ls),
(434,259,o),
(426,287,o),
(411,306,cs),
(374,357,o),
(326,364,o),
(279,364,cs),
(218,364,o),
(156,352,o),
(115,406,cs),
(103,423,o),
(96,444,o),
(96,466,cs),
(96,573,ls),
(96,628,o),
(141,675,o),
(196,675,cs),
(202,675,o),
(207,675,o),
(213,675,cs),
(245,675,ls),
(251,675,o),
(256,676,o),
(262,676,cs),
(319,676,o),
(371,666,o),
(390,602,cs),
(393,592,o),
(393,583,o),
(395,573,cs),
(396,564,o),
(402,560,o),
(410,560,cs),
(418,560,o),
(425,566,o),
(425,574,cs),
(425,633,o),
(379,689,o),
(320,699,cs),
(301,702,o),
(281,703,o),
(261,703,cs),
(256,703,o),
(251,702,o),
(245,702,cs),
(212,702,ls),
(207,702,o),
(201,702,o),
(196,702,cs),
(121,702,o),
(66,642,o),
(66,568,cs),
(66,465,ls),
(66,441,o),
(74,414,o),
(88,394,cs),
(125,343,o),
(173,336,o),
(220,336,cs),
(281,336,o),
(343,348,o),
(384,294,cs),
(397,277,o),
(404,256,o),
(404,234,cs),
(404,127,ls),
(404,105,o),
(396,84,o),
(383,66,cs),
(354,27,o),
(321,26,o),
(276,26,cs),
(81,26,ls),
(74,26,o),
(66,20,o),
(66,12,cs),
(66,3,o),
(75,-2,o),
(83,-2,cs)
);
}
);
width = 499;
},
{
hints = (
{
horizontal = 1;
place = (653,72);
type = Stem;
},
{
horizontal = 1;
place = (314,72);
type = Stem;
},
{
horizontal = 1;
place = (-24,72);
type = Stem;
},
{
place = (388,90);
type = Stem;
},
{
place = (51,90);
type = Stem;
}
);
layerId = "2F065738-4B59-43EB-A5F2-FD5F277958EA";
shapes = (
{
closed = 1;
nodes = (
(188,-24,l),
(319,-24,ls),
(403,-24,o),
(478,40,o),
(478,127,cs),
(478,235,ls),
(478,266,o),
(467,297,o),
(448,323,cs),
(391,398,o),
(305,386,o),
(221,386,cs),
(174,386,o),
(141,419,o),
(141,466,cs),
(141,573,ls),
(141,664,o),
(229,653,o),
(293,653,cs),
(415,653,o),
(344,537,o),
(424,537,cs),
(445,537,o),
(469,550,o),
(469,573,cs),
(469,646,o),
(413,707,o),
(342,721,cs),
(321,725,o),
(299,725,o),
(278,725,cs),
(255,725,o),
(233,724,o),
(211,724,cs),
(127,724,o),
(51,660,o),
(51,573,cs),
(51,465,ls),
(51,434,o),
(62,403,o),
(81,377,cs),
(138,302,o),
(224,314,o),
(308,314,cs),
(355,314,o),
(388,281,o),
(388,234,cs),
(388,127,ls),
(388,32,o),
(295,48,o),
(231,48,cs),
(96,48,ls),
(75,48,o),
(51,35,o),
(51,12,cs),
(51,-22,o),
(89,-24,o),
(114,-24,cs)
);
}
);
width = 529;
}
);
note = S;
unicode = 83;
},
{
color = 0;
glyphname = T;
lastChange = "2023-10-25 20:36:27 +0000";
layers = (
{
hints = (
{
horizontal = 1;
place = (675,27);
type = Stem;
},
{
horizontal = 1;
place = (-2,21);
target = up;
type = BottomGhost;
},
{
place = (235,30);
type = Stem;
}
);
layerId = m01;
shapes = (
{
closed = 1;
nodes = (
(257,-2,o),
(265,4,o),
(265,12,cs),
(265,675,l),
(412,675,ls),
(421,675,o),
(433,676,o),
(433,688,cs),
(433,696,o),
(426,702,o),
(418,702,cs),
(196,702,ls),
(125,702,o),
(66,644,o),
(66,573,cs),
(66,565,o),
(74,560,o),
(82,560,cs),
(89,560,o),
(95,565,o),
(96,573,cs),
(102,623,o),
(123,662,o),
(176,673,cs),
(195,677,o),
(215,675,o),
(235,675,c),
(235,12,ls),
(235,4,o),
(242,-2,o),
(250,-2,cs)
);
}
);
width = 499;
},
{
hints = (
{
horizontal = 1;
place = (651,73);
type = Stem;
},
{
horizontal = 1;
place = (-24,21);
target = up;
type = BottomGhost;
},
{
place = (220,91);
type = Stem;
},
{
place = (51,89);
type = Stem;
}
);
layerId = "2F065738-4B59-43EB-A5F2-FD5F277958EA";
shapes = (
{
closed = 1;
nodes = (
(286,-24,o),
(298,-15,o),
(308,3,cs),
(311,8,o),
(311,247,o),
(311,266,cs),
(311,395,o),
(310,524,o),
(310,652,c),
(347,652,o),
(385,651,o),
(422,651,cs),
(445,651,o),
(478,659,o),
(478,688,cs),
(478,711,o),
(454,724,o),
(433,724,cs),
(211,724,ls),
(127,724,o),
(51,660,o),
(51,573,cs),
(51,550,o),
(75,537,o),
(96,537,cs),
(115,537,o),
(136,547,o),
(140,567,cs),
(142,575,o),
(141,583,o),
(143,591,cs),
(148,621,o),
(174,648,o),
(205,652,cs),
(210,652,o),
(215,653,o),
(220,653,c),
(219,587,o),
(219,436,o),
(219,420,cs),
(219,284,o),
(220,148,o),
(220,12,cs),
(220,-11,o),
(244,-24,o),
(265,-24,cs)
);
}
);
width = 529;
}
);
note = T;
unicode = 84;
},
{
color = 0;
glyphname = U;
lastChange = "2023-10-25 20:36:27 +0000";
layers = (
{
hints = (
{
horizontal = 1;
place = (702,-20);
target = down;
type = TopGhost;
},
{
horizontal = 1;
place = (701,-20);
target = down;
type = TopGhost;
},
{
horizontal = 1;
place = (-2,27);
type = Stem;
},
{
place = (404,30);
type = Stem;
},
{
place = (66,30);
type = Stem;
}
);
layerId = m01;
shapes = (
{
closed = 1;
nodes = (
(304,-2,ls),
(367,-2,o),
(429,49,o),
(433,114,cs),
(435,140,o),
(435,165,o),
(435,190,cs),
(435,232,o),
(434,273,o),
(434,314,cs),
(434,563,ls),
(434,604,o),
(434,646,o),
(434,687,cs),
(434,695,o),
(426,701,o),
(419,701,cs),
(411,701,o),
(404,695,o),
(404,687,cs),
(404,142,ls),
(404,123,o),
(403,105,o),
(395,87,cs),
(380,50,o),
(343,25,o),
(303,25,cs),
(196,25,ls),
(145,25,o),
(102,65,o),
(97,116,cs),
(94,138,o),
(96,160,o),
(96,182,cs),
(96,688,ls),
(96,696,o),
(89,702,o),
(81,702,cs),
(74,702,o),
(66,696,o),
(66,688,cs),
(66,127,ls),
(66,52,o),
(128,-2,o),
(201,-2,cs)
);
}
);
width = 499;
},
{
hints = (
{
horizontal = 1;
place = (724,-20);
target = down;
type = TopGhost;
},
{
horizontal = 1;
place = (723,-20);
target = down;
type = TopGhost;
},
{
horizontal = 1;
place = (-24,72);
type = Stem;
},
{
place = (389,90);
type = Stem;
},
{
place = (51,90);
type = Stem;
}
);
layerId = "2F065738-4B59-43EB-A5F2-FD5F277958EA";
shapes = (
{
closed = 1;
nodes = (
(319,-24,ls),
(414,-24,o),
(479,47,o),
(479,140,cs),
(479,687,ls),
(479,710,o),
(454,723,o),
(434,723,cs),
(417,723,o),
(399,715,o),
(391,700,cs),
(385,685,o),
(389,223,o),
(389,165,cs),
(389,116,o),
(384,48,o),
(317,48,cs),
(212,48,ls),
(132,48,o),
(141,141,o),
(141,194,cs),
(141,688,ls),
(141,711,o),
(116,724,o),
(96,724,cs),
(65,724,o),
(51,706,o),
(51,677,cs),
(51,127,ls),
(51,40,o),
(127,-24,o),
(211,-24,cs)
);
}
);
width = 529;
}
);
note = U;
unicode = 85;
},
{
color = 0;
glyphname = V;
lastChange = "2023-10-25 20:36:27 +0000";
layers = (
{
hints = (
{
horizontal = 1;
place = (702,-20);
target = down;
type = TopGhost;
},
{
horizontal = 1;
place = (-1,27);
type = Stem;
},
{
place = (402,30);
type = Stem;
},
{
place = (66,30);
type = Stem;
}
);
layerId = m01;
shapes = (
{
closed = 1;
nodes = (
(417,-1,ls),
(425,-1,o),
(432,5,o),
(432,13,cs),
(432,688,ls),
(432,696,o),
(425,702,o),
(417,702,cs),
(410,702,o),
(402,696,o),
(402,688,cs),
(402,635,o),
(402,582,o),
(402,529,cs),
(403,209,ls),
(403,156,o),
(403,103,o),
(403,50,cs),
(403,42,o),
(403,34,o),
(402,26,c),
(339,26,o),
(275,26,o),
(212,26,cs),
(157,26,o),
(110,49,o),
(98,106,cs),
(94,127,o),
(96,149,o),
(96,170,cs),
(96,688,ls),
(96,696,o),
(88,702,o),
(81,702,cs),
(74,702,o),
(66,696,o),
(66,688,cs),
(66,127,ls),
(66,62,o),
(118,5,o),
(183,0,cs),
(197,-1,o),
(212,-1,o),
(226,-1,cs)
);
}
);
width = 498;
},
{
hints = (
{
horizontal = 1;
place = (724,-20);
target = down;
type = TopGhost;
},
{
horizontal = 1;
place = (-23,71);
type = Stem;
},
{
place = (388,89);
type = Stem;
},
{
place = (51,90);
type = Stem;
}
);
layerId = "2F065738-4B59-43EB-A5F2-FD5F277958EA";
shapes = (
{
closed = 1;
nodes = (
(280,-23,ls),
(285,-23,o),
(290,-23,o),
(295,-23,cs),
(432,-23,ls),
(453,-23,o),
(477,-10,o),
(477,13,cs),
(477,688,ls),
(477,711,o),
(453,724,o),
(432,724,cs),
(413,724,o),
(396,715,o),
(389,697,c),
(387,49,l),
(374,49,o),
(360,49,o),
(347,49,cs),
(266,48,ls),
(252,48,o),
(239,48,o),
(225,48,cs),
(142,48,o),
(141,105,o),
(141,167,cs),
(141,683,ls),
(141,709,o),
(121,724,o),
(96,724,cs),
(75,724,o),
(51,711,o),
(51,688,cs),
(51,127,ls),
(51,54,o),
(107,-7,o),
(178,-20,cs),
(202,-24,o),
(226,-24,o),
(250,-24,cs)
);
}
);
width = 528;
}
);
note = V;
unicode = 86;
},
{
color = 0;
glyphname = W;
lastChange = "2023-10-25 20:36:27 +0000";
layers = (
{
hints = (
{
horizontal = 1;
place = (702,-20);
target = down;
type = TopGhost;
},
{
horizontal = 1;
place = (701,-20);
target = down;
type = TopGhost;
},
{
horizontal = 1;
place = (-2,28);
type = Stem;
},
{
place = (742,30);
type = Stem;
},
{
place = (404,30);
type = Stem;
},
{
place = (66,30);
type = Stem;
}
);
layerId = m01;
shapes = (
{
closed = 1;
nodes = (
(304,-2,ls),
(350,-2,o),
(396,26,o),
(418,67,c),
(441,25,o),
(487,-2,o),
(538,-2,cs),
(641,-2,ls),
(705,-2,o),
(766,49,o),
(770,115,cs),
(772,140,o),
(772,165,o),
(772,190,cs),
(772,356,o),
(771,522,o),
(771,687,cs),
(771,695,o),
(764,701,o),
(756,701,cs),
(749,701,o),
(741,695,o),
(741,687,cs),
(741,506,o),
(742,324,o),
(742,142,cs),
(742,81,o),
(709,26,o),
(641,26,cs),
(534,26,ls),
(478,26,o),
(437,70,o),
(433,124,c),
(434,146,o),
(434,168,o),
(434,190,cs),
(434,688,ls),
(434,696,o),
(426,702,o),
(419,702,cs),
(411,702,o),
(404,696,o),
(404,688,cs),
(403,127,ls),
(403,126,o),
(403,125,o),
(404,124,c),
(400,70,o),
(360,26,o),
(303,26,cs),
(196,26,ls),
(145,26,o),
(102,65,o),
(97,116,cs),
(94,138,o),
(96,160,o),
(96,182,cs),
(96,688,ls),
(96,696,o),
(89,702,o),
(81,702,cs),
(74,702,o),
(66,696,o),
(66,688,cs),
(66,127,ls),
(66,52,o),
(128,-2,o),
(201,-2,cs)
);
}
);
width = 835;
},
{
hints = (
{
horizontal = 1;
place = (724,-20);
target = down;
type = TopGhost;
},
{
horizontal = 1;
place = (723,-20);
target = down;
type = TopGhost;
},
{
horizontal = 1;
place = (-24,72);
type = Stem;
},
{
place = (727,89);
type = Stem;
},
{
place = (388,91);
type = Stem;
},
{
place = (51,90);
type = Stem;
}
);
layerId = "2F065738-4B59-43EB-A5F2-FD5F277958EA";
shapes = (
{
closed = 1;
nodes = (
(319,-24,ls),
(364,-24,o),
(404,-7,o),
(433,22,c),
(463,-7,o),
(504,-24,o),
(548,-24,cs),
(656,-24,ls),
(721,-24,o),
(776,11,o),
(804,70,cs),
(814,92,o),
(816,117,o),
(816,140,cs),
(816,323,o),
(816,505,o),
(816,687,cs),
(816,710,o),
(792,723,o),
(771,723,cs),
(754,723,o),
(736,715,o),
(729,700,cs),
(725,691,o),
(726,681,o),
(726,672,cs),
(726,503,o),
(727,335,o),
(727,166,cs),
(727,149,o),
(727,117,o),
(722,101,cs),
(713,72,o),
(686,48,o),
(655,48,cs),
(549,48,ls),
(518,48,o),
(491,72,o),
(482,101,cs),
(480,108,o),
(479,115,o),
(478,123,c),
(479,129,o),
(479,135,o),
(479,140,cs),
(479,323,o),
(478,505,o),
(479,687,cs),
(479,688,ls),
(479,711,o),
(454,724,o),
(434,724,cs),
(416,724,o),
(397,716,o),
(391,699,cs),
(387,691,o),
(388,677,o),
(388,668,cs),
(388,636,o),
(388,603,o),
(388,571,cs),
(388,546,o),
(388,522,o),
(388,498,cs),
(388,129,ls),
(388,118,o),
(387,108,o),
(385,101,cs),
(376,72,o),
(349,48,o),
(317,48,cs),
(212,48,ls),
(180,48,o),
(154,72,o),
(145,101,cs),
(137,127,o),
(141,167,o),
(141,194,cs),
(141,339,l),
(141,688,ls),
(141,711,o),
(117,724,o),
(96,724,cs),
(79,724,o),
(60,716,o),
(53,699,cs),
(50,691,o),
(51,677,o),
(51,668,cs),
(51,127,ls),
(51,40,o),
(127,-24,o),
(211,-24,cs)
);
}
);
width = 867;
}
);
note = W;
unicode = 87;
},
{
color = 0;
glyphname = X;
lastChange = "2023-10-25 20:36:27 +0000";
layers = (
{
hints = (
{
horizontal = 1;
place = (675,27);
type = Stem;
},
{
horizontal = 1;
place = (-2,27);
type = Stem;
},
{
place = (234,30);
type = Stem;
}
);
layerId = m01;
shapes = (
{
closed = 1;
nodes = (
(134,-2,ls),
(185,-2,o),
(227,26,o),
(248,68,c),
(271,25,o),
(317,-2,o),
(369,-2,cs),
(442,-2,ls),
(449,-2,o),
(457,4,o),
(457,12,cs),
(457,22,o),
(447,25,o),
(439,25,cs),
(434,25,o),
(430,25,o),
(425,25,cs),
(399,25,ls),
(394,25,o),
(390,25,o),
(386,25,cs),
(330,25,o),
(286,40,o),
(268,100,cs),
(266,109,o),
(265,118,o),
(264,129,cs),
(264,130,o),
(264,131,o),
(264,132,cs),
(264,573,l),
(269,622,o),
(291,662,o),
(344,673,cs),
(374,679,o),
(408,675,o),
(438,675,cs),
(447,675,o),
(457,678,o),
(457,688,cs),
(457,696,o),
(449,702,o),
(442,702,cs),
(364,702,ls),
(314,702,o),
(271,674,o),
(249,633,c),
(227,675,o),
(181,702,o),
(129,702,cs),
(56,702,ls),
(49,702,o),
(41,696,o),
(41,688,cs),
(41,675,o),
(56,674,o),
(66,674,cs),
(83,674,o),
(100,675,o),
(117,675,cs),
(123,675,o),
(130,675,o),
(136,675,cs),
(200,671,o),
(234,625,o),
(234,563,cs),
(234,138,ls),
(234,116,o),
(232,97,o),
(221,78,cs),
(187,15,o),
(127,26,o),
(65,26,cs),
(56,26,o),
(41,26,o),
(41,12,cs),
(41,4,o),
(49,-2,o),
(56,-2,cs)
);
}
);
width = 497;
},
{
hints = (
{
horizontal = 1;
place = (653,71);
type = Stem;
},
{
horizontal = 1;
place = (-24,71);
type = Stem;
},
{
place = (244,90);
type = Stem;
}
);
layerId = "2F065738-4B59-43EB-A5F2-FD5F277958EA";
shapes = (
{
closed = 1;
nodes = (
(174,-24,ls),
(218,-24,o),
(259,-7,o),
(289,22,c),
(319,-7,o),
(360,-24,o),
(404,-24,cs),
(482,-24,ls),
(502,-24,o),
(527,-11,o),
(527,12,cs),
(527,43,o),
(490,49,o),
(466,49,cs),
(462,49,o),
(458,49,o),
(454,49,cs),
(430,48,l),
(426,47,o),
(422,47,o),
(418,47,cs),
(373,47,o),
(340,71,o),
(334,118,cs),
(334,120,o),
(334,123,o),
(334,127,cs),
(334,573,ls),
(334,574,o),
(334,576,o),
(334,577,cs),
(339,627,o),
(368,653,o),
(418,653,cs),
(434,653,o),
(450,651,o),
(466,651,cs),
(490,651,o),
(527,657,o),
(527,688,cs),
(527,711,o),
(502,724,o),
(482,724,cs),
(404,724,ls),
(360,724,o),
(319,707,o),
(289,678,c),
(259,707,o),
(218,724,o),
(174,724,cs),
(96,724,ls),
(76,724,o),
(51,711,o),
(51,688,cs),
(51,659,o),
(84,651,o),
(107,651,cs),
(123,651,o),
(139,653,o),
(155,653,cs),
(215,653,o),
(244,622,o),
(244,563,cs),
(244,139,ls),
(244,79,o),
(217,47,o),
(157,47,cs),
(141,47,o),
(125,49,o),
(109,49,cs),
(86,49,o),
(51,42,o),
(51,12,cs),
(51,-11,o),
(75,-24,o),
(96,-24,cs)
);
}
);
width = 577;
}
);
note = X;
unicode = 88;
},
{
color = 0;
glyphname = Y;
lastChange = "2023-10-25 20:36:27 +0000";
layers = (
{
hints = (
{
horizontal = 1;
place = (702,-20);
target = down;
type = TopGhost;
},
{
horizontal = 1;
place = (701,-20);
target = down;
type = TopGhost;
},
{
horizontal = 1;
place = (336,27);
type = Stem;
},
{
horizontal = 1;
place = (-2,27);
type = Stem;
},
{
place = (404,30);
type = Stem;
},
{
place = (66,30);
type = Stem;
}
);
layerId = m01;
shapes = (
{
closed = 1;
nodes = (
(304,-2,ls),
(379,-2,o),
(434,58,o),
(434,132,cs),
(434,155,o),
(435,179,o),
(435,202,cs),
(435,217,o),
(436,234,o),
(433,248,cs),
(425,291,o),
(396,329,o),
(357,348,c),
(398,367,o),
(430,406,o),
(433,453,cs),
(434,466,o),
(434,480,o),
(434,494,cs),
(434,687,ls),
(434,695,o),
(426,701,o),
(419,701,cs),
(412,701,o),
(404,695,o),
(404,687,cs),
(404,620,o),
(405,553,o),
(405,485,cs),
(405,414,o),
(374,366,o),
(301,363,c),
(266,366,o),
(231,363,o),
(196,363,cs),
(153,363,o),
(114,393,o),
(101,434,cs),
(92,462,o),
(96,505,o),
(96,534,cs),
(96,688,ls),
(96,696,o),
(89,702,o),
(81,702,cs),
(74,702,o),
(66,696,o),
(66,688,cs),
(66,465,ls),
(66,406,o),
(111,349,o),
(170,339,cs),
(188,336,o),
(207,336,o),
(225,336,cs),
(231,336,o),
(236,336,o),
(242,336,cs),
(296,336,ls),
(317,335,o),
(338,328,o),
(355,316,cs),
(403,284,o),
(404,252,o),
(404,199,cs),
(404,127,ls),
(404,72,o),
(360,25,o),
(304,25,cs),
(196,25,ls),
(176,25,o),
(155,32,o),
(138,44,cs),
(95,77,o),
(96,113,o),
(96,163,cs),
(96,235,ls),
(96,243,o),
(88,249,o),
(81,249,cs),
(74,249,o),
(66,243,o),
(66,235,cs),
(66,127,ls),
(66,52,o),
(128,-2,o),
(201,-2,cs)
);
}
);
width = 499;
},
{
hints = (
{
horizontal = 1;
place = (724,-20);
target = down;
type = TopGhost;
},
{
horizontal = 1;
place = (723,-20);
target = down;
type = TopGhost;
},
{
horizontal = 1;
place = (314,72);
type = Stem;
},
{
horizontal = 1;
place = (-24,72);
type = Stem;
},
{
place = (389,90);
type = Stem;
},
{
place = (51,90);
type = Stem;
}
);
layerId = "2F065738-4B59-43EB-A5F2-FD5F277958EA";
shapes = (
{
closed = 1;
nodes = (
(319,-24,ls),
(403,-24,o),
(479,40,o),
(479,127,cs),
(479,157,o),
(480,188,o),
(480,218,cs),
(480,271,o),
(461,315,o),
(419,347,c),
(467,384,o),
(480,430,o),
(480,489,cs),
(480,508,o),
(479,528,o),
(479,547,cs),
(479,687,ls),
(479,710,o),
(454,723,o),
(434,723,cs),
(425,723,o),
(415,721,o),
(407,716,cs),
(391,706,o),
(389,695,o),
(389,677,cs),
(389,626,o),
(390,576,o),
(390,525,cs),
(390,474,o),
(394,386,o),
(318,386,cs),
(212,386,ls),
(131,386,o),
(141,481,o),
(141,534,cs),
(141,688,ls),
(141,711,o),
(116,724,o),
(96,724,cs),
(57,724,o),
(50,699,o),
(50,666,cs),
(50,599,o),
(51,532,o),
(51,465,cs),
(51,391,o),
(107,331,o),
(178,317,cs),
(221,309,o),
(267,314,o),
(310,314,cs),
(323,314,o),
(340,306,o),
(350,299,cs),
(385,276,o),
(389,251,o),
(389,212,cs),
(389,128,ls),
(389,88,o),
(360,48,o),
(318,48,cs),
(212,48,ls),
(123,48,o),
(141,171,o),
(141,229,cs),
(141,255,o),
(122,271,o),
(96,271,cs),
(76,271,o),
(51,258,o),
(51,235,cs),
(51,127,ls),
(51,40,o),
(127,-24,o),
(211,-24,cs)
);
}
);
width = 531;
}
);
note = Y;
unicode = 89;
},
{
color = 0;
glyphname = Z;
lastChange = "2023-10-25 20:36:27 +0000";
layers = (
{
hints = (
{
horizontal = 1;
place = (675,27);
type = Stem;
},
{
horizontal = 1;
place = (336,27);
type = Stem;
},
{
horizontal = 1;
place = (-2,28);
type = Stem;
},
{
place = (404,30);
type = Stem;
},
{
place = (66,30);
type = Stem;
}
);
layerId = m01;
shapes = (
{
closed = 1;
nodes = (
(375,-2,o),
(434,56,o),
(434,128,cs),
(434,136,o),
(426,140,o),
(418,140,cs),
(410,140,o),
(406,135,o),
(404,128,cs),
(402,118,o),
(402,108,o),
(399,98,cs),
(386,55,o),
(350,26,o),
(304,26,cs),
(234,26,o),
(165,26,o),
(96,26,c),
(96,88,o),
(95,150,o),
(95,212,cs),
(95,268,o),
(114,322,o),
(176,334,cs),
(192,337,o),
(209,337,o),
(225,337,cs),
(251,337,o),
(278,336,o),
(304,336,cs),
(377,336,o),
(434,381,o),
(434,457,cs),
(434,688,ls),
(434,697,o),
(425,701,o),
(417,701,cs),
(196,702,ls),
(125,702,o),
(66,644,o),
(66,573,cs),
(66,564,o),
(74,560,o),
(82,560,cs),
(90,560,o),
(94,565,o),
(96,573,cs),
(98,582,o),
(98,592,o),
(101,602,cs),
(114,646,o),
(150,675,o),
(196,675,cs),
(266,675,o),
(335,675,o),
(404,674,c),
(404,452,ls),
(404,408,o),
(376,377,o),
(334,366,cs),
(315,361,o),
(293,362,o),
(274,362,cs),
(248,362,o),
(222,363,o),
(196,363,cs),
(121,363,o),
(66,304,o),
(66,230,cs),
(66,12,ls),
(66,3,o),
(75,-1,o),
(83,-1,cs),
(156,-1,o),
(230,-2,o),
(304,-2,cs)
);
}
);
width = 500;
},
{
hints = (
{
horizontal = 1;
place = (652,72);
type = Stem;
},
{
horizontal = 1;
place = (313,72);
type = Stem;
},
{
horizontal = 1;
place = (-24,72);
type = Stem;
},
{
place = (389,90);
type = Stem;
},
{
place = (51,90);
type = Stem;
}
);
layerId = "2F065738-4B59-43EB-A5F2-FD5F277958EA";
shapes = (
{
closed = 1;
nodes = (
(136,-24,o),
(152,-24,o),
(169,-24,cs),
(319,-24,ls),
(403,-24,o),
(479,40,o),
(479,127,cs),
(479,150,o),
(454,163,o),
(434,163,cs),
(415,163,o),
(394,153,o),
(390,133,cs),
(388,125,o),
(389,117,o),
(387,110,cs),
(381,77,o),
(352,48,o),
(318,48,cs),
(259,48,o),
(200,48,o),
(141,48,c),
(141,104,o),
(140,159,o),
(140,214,cs),
(140,256,o),
(152,302,o),
(199,312,cs),
(212,315,o),
(226,314,o),
(239,314,cs),
(266,314,o),
(292,313,o),
(319,313,cs),
(401,313,o),
(479,364,o),
(479,452,cs),
(479,688,ls),
(479,724,o),
(435,724,o),
(410,724,cs),
(394,724,o),
(378,724,o),
(361,724,cs),
(211,724,ls),
(127,724,o),
(51,660,o),
(51,573,cs),
(51,550,o),
(75,537,o),
(96,537,cs),
(115,537,o),
(136,547,o),
(140,567,cs),
(142,575,o),
(141,583,o),
(143,590,cs),
(149,623,o),
(178,652,o),
(212,652,cs),
(271,652,o),
(330,652,o),
(389,652,c),
(389,453,ls),
(389,418,o),
(368,392,o),
(333,386,cs),
(317,384,o),
(301,385,o),
(285,385,cs),
(260,385,o),
(235,386,o),
(211,386,cs),
(127,386,o),
(51,322,o),
(51,235,cs),
(51,12,ls),
(51,-24,o),
(95,-24,o),
(120,-24,cs)
);
}
);
width = 530;
}
);
note = Z;
unicode = 90;
},
{
color = 0;
glyphname = A.ss01;
lastChange = "2023-10-25 20:36:27 +0000";
layers = (
{
hints = (
{
horizontal = 1;
place = (675,27);
type = Stem;
},
{
horizontal = 1;
place = (335,28);
type = Stem;
},
{
horizontal = 1;
place = (-2,21);
target = up;
type = BottomGhost;
},
{
place = (404,30);
type = Stem;
},
{
place = (66,30);
type = Stem;
}
);
layerId = m01;
shapes = (
{
closed = 1;
nodes = (
(88,-2,o),
(96,4,o),
(96,12,cs),
(96,120,o),
(96,227,o),
(96,335,c),
(404,335,l),
(404,12,ls),
(404,4,o),
(411,-2,o),
(419,-2,cs),
(426,-2,o),
(434,4,o),
(434,12,cs),
(434,688,ls),
(434,697,o),
(425,701,o),
(417,701,cs),
(399,701,o),
(380,701,o),
(362,701,cs),
(251,702,ls),
(233,702,o),
(214,702,o),
(196,702,cs),
(121,702,o),
(66,642,o),
(66,568,cs),
(66,12,ls),
(66,4,o),
(74,-2,o),
(81,-2,cs)
);
},
{
closed = 1;
nodes = (
(95,558,ls),
(95,577,o),
(96,595,o),
(104,613,cs),
(120,650,o),
(156,675,o),
(196,675,cs),
(265,675,o),
(335,675,o),
(404,674,c),
(404,363,l),
(96,363,l)
);
}
);
width = 499;
},
{
hints = (
{
horizontal = 1;
place = (652,72);
type = Stem;
},
{
horizontal = 1;
place = (312,73);
type = Stem;
},
{
horizontal = 1;
place = (-24,21);
target = up;
type = BottomGhost;
},
{
place = (388,90);
type = Stem;
},
{
place = (51,90);
type = Stem;
}
);
layerId = "2F065738-4B59-43EB-A5F2-FD5F277958EA";
shapes = (
{
closed = 1;
nodes = (
(113,-24,o),
(130,-16,o),
(138,0,cs),
(142,7,o),
(141,19,o),
(141,28,cs),
(141,123,o),
(141,218,o),
(141,313,c),
(223,313,o),
(305,312,o),
(388,312,c),
(388,292,o),
(388,272,o),
(388,252,cs),
(388,232,o),
(387,9,o),
(390,3,cs),
(398,-15,o),
(415,-24,o),
(434,-24,cs),
(454,-24,o),
(479,-11,o),
(479,12,cs),
(479,688,ls),
(479,724,o),
(435,724,o),
(410,724,cs),
(211,724,ls),
(127,724,o),
(51,660,o),
(51,573,cs),
(51,12,ls),
(51,-11,o),
(75,-24,o),
(96,-24,cs)
);
},
{
closed = 1;
nodes = (
(305,385,o),
(223,386,o),
(140,386,c),
(140,435,o),
(140,485,o),
(140,534,cs),
(140,551,o),
(140,583,o),
(145,599,cs),
(154,628,o),
(180,652,o),
(212,652,cs),
(271,652,o),
(330,652,o),
(389,652,c),
(389,563,o),
(388,474,o),
(388,385,c)
);
}
);
width = 529;
}
);
note = A.ss01;
},
{
color = 0;
glyphname = B.ss01;
lastChange = "2023-10-25 20:36:27 +0000";
layers = (
{
hints = (
{
place = (675,27);
type = Stem;
},
{
place = (404,30);
type = Stem;
},
{
place = (337,27);
type = Stem;
},
{
place = (66,30);
type = Stem;
},
{
place = (-1,27);
type = Stem;
}
);
layerId = m01;
shapes = (
{
closed = 1;
nodes = (
(304,-1,ls),
(379,-1,o),
(434,58,o),
(434,132,cs),
(434,235,ls),
(434,288,o),
(404,329,o),
(361,350,c),
(405,371,o),
(434,418,o),
(434,470,cs),
(434,574,ls),
(434,649,o),
(372,702,o),
(299,702,cs),
(81,702,ls),
(74,702,o),
(66,696,o),
(66,688,cs),
(66,17,ls),
(66,7,o),
(69,-1,o),
(81,-1,cs)
);
},
{
closed = 1;
nodes = (
(96,336,l),
(145,335,o),
(270,337,o),
(293,337,cs),
(303,337,o),
(314,337,o),
(324,335,cs),
(370,325,o),
(404,282,o),
(404,235,cs),
(404,127,ls),
(404,72,o),
(359,26,o),
(304,26,cs),
(96,26,l)
);
},
{
closed = 1;
nodes = (
(96,675,l),
(304,675,ls),
(359,675,o),
(404,629,o),
(404,573,cs),
(404,466,ls),
(404,420,o),
(377,383,o),
(333,370,cs),
(323,366,o),
(314,366,o),
(302,364,cs),
(300,364,o),
(299,364,o),
(297,364,cs),
(277,364,o),
(147,364,o),
(96,363,c)
);
}
);
width = 499;
},
{
hints = (
{
horizontal = 1;
place = (652,72);
type = Stem;
},
{
horizontal = 1;
place = (315,71);
type = Stem;
},
{
horizontal = 1;
place = (-24,72);
type = Stem;
},
{
place = (388,90);
type = Stem;
},
{
place = (50,90);
type = Stem;
}
);
layerId = "2F065738-4B59-43EB-A5F2-FD5F277958EA";
shapes = (
{
closed = 1;
nodes = (
(318,-24,ls),
(402,-24,o),
(478,40,o),
(478,127,cs),
(478,235,ls),
(478,282,o),
(455,323,o),
(421,350,c),
(455,377,o),
(478,418,o),
(478,466,cs),
(478,574,ls),
(478,660,o),
(402,724,o),
(318,724,cs),
(95,724,ls),
(75,724,o),
(50,711,o),
(50,688,cs),
(50,17,ls),
(50,-9,o),
(70,-24,o),
(95,-24,cs)
);
},
{
closed = 1;
nodes = (
(140,314,l),
(196,314,o),
(252,315,o),
(308,315,cs),
(355,315,o),
(388,281,o),
(388,234,cs),
(388,128,ls),
(388,88,o),
(359,48,o),
(317,48,cs),
(140,48,l)
);
},
{
closed = 1;
nodes = (
(140,652,l),
(317,652,ls),
(359,652,o),
(388,613,o),
(388,573,cs),
(388,466,ls),
(388,434,o),
(368,399,o),
(336,389,cs),
(328,387,o),
(319,387,o),
(311,386,cs),
(308,386,o),
(306,386,o),
(304,386,cs),
(249,386,o),
(195,386,o),
(140,386,c)
);
}
);
width = 528;
}
);
note = B.ss01;
},
{
color = 0;
glyphname = C.ss01;
lastChange = "2023-10-25 20:36:27 +0000";
layers = (
{
hints = (
{
horizontal = 1;
place = (681,27);
type = Stem;
},
{
horizontal = 1;
place = (-2,27);
type = Stem;
},
{
place = (66,30);
type = Stem;
}
);
layerId = m01;
shapes = (
{
closed = 1;
nodes = (
(405,-2,ls),
(413,-2,o),
(420,4,o),
(420,12,cs),
(420,25,o),
(406,26,o),
(396,26,cs),
(384,26,o),
(373,26,o),
(361,26,cs),
(290,25,ls),
(278,25,o),
(267,25,o),
(255,25,cs),
(235,25,o),
(185,24,o),
(167,30,cs),
(129,42,o),
(101,77,o),
(97,117,cs),
(94,138,o),
(96,159,o),
(96,180,cs),
(96,301,ls),
(96,428,o),
(96,555,o),
(95,681,c),
(304,681,ls),
(349,681,o),
(385,653,o),
(399,610,cs),
(402,600,o),
(402,590,o),
(404,579,cs),
(406,571,o),
(411,566,o),
(420,566,cs),
(428,566,o),
(434,572,o),
(434,580,cs),
(434,655,o),
(371,708,o),
(299,708,cs),
(80,708,ls),
(73,708,o),
(65,703,o),
(65,695,cs),
(65,568,o),
(66,441,o),
(66,315,cs),
(66,190,ls),
(66,165,o),
(65,140,o),
(67,115,cs),
(67,103,o),
(71,88,o),
(76,77,cs),
(101,26,o),
(144,-2,o),
(201,-2,cs)
);
}
);
width = 500;
},
{
hints = (
{
horizontal = 1;
place = (659,72);
type = Stem;
},
{
horizontal = 1;
place = (-24,71);
type = Stem;
},
{
place = (388,90);
type = Stem;
},
{
place = (51,90);
type = Stem;
}
);
layerId = "2F065738-4B59-43EB-A5F2-FD5F277958EA";
shapes = (
{
closed = 1;
nodes = (
(420,-24,ls),
(441,-24,o),
(465,-11,o),
(465,12,cs),
(465,47,o),
(425,48,o),
(399,48,cs),
(358,48,o),
(316,47,o),
(274,47,cs),
(260,47,o),
(205,47,o),
(193,51,cs),
(179,56,o),
(166,65,o),
(157,78,cs),
(148,90,o),
(143,104,o),
(141,118,cs),
(139,138,o),
(141,158,o),
(141,178,cs),
(141,295,ls),
(141,416,o),
(141,537,o),
(140,659,c),
(318,659,ls),
(352,659,o),
(381,630,o),
(387,597,cs),
(389,589,o),
(388,581,o),
(390,573,cs),
(394,554,o),
(415,544,o),
(434,544,cs),
(455,544,o),
(479,557,o),
(479,580,cs),
(479,666,o),
(403,731,o),
(319,731,cs),
(95,731,ls),
(75,731,o),
(50,718,o),
(50,695,cs),
(50,565,o),
(51,436,o),
(51,306,cs),
(51,180,ls),
(51,157,o),
(49,135,o),
(52,112,cs),
(61,32,o),
(132,-24,o),
(211,-24,cs)
);
}
);
width = 530;
}
);
note = C.ss01;
},
{
color = 0;
glyphname = D.ss01;
lastChange = "2023-10-25 20:36:27 +0000";
layers = (
{
hints = (
{
horizontal = 1;
place = (675,27);
type = Stem;
},
{
horizontal = 1;
place = (-2,27);
type = Stem;
},
{
place = (404,30);
type = Stem;
},
{
place = (66,30);
type = Stem;
}
);
layerId = m01;
shapes = (
{
closed = 1;
nodes = (
(88,-2,o),
(96,4,o),
(96,12,cs),
(96,45,l),
(121,16,o),
(159,-2,o),
(201,-2,cs),
(304,-2,ls),
(379,-2,o),
(434,58,o),
(434,132,cs),
(434,573,ls),
(434,649,o),
(372,702,o),
(299,702,cs),
(83,702,ls),
(75,702,o),
(66,697,o),
(66,688,cs),
(66,128,ls),
(66,127,o),
(66,127,o),
(66,126,cs),
(66,124,o),
(66,122,o),
(66,120,cs),
(66,12,ls),
(66,4,o),
(74,-2,o),
(81,-2,cs)
);
},
{
closed = 1;
nodes = (
(152,25,o),
(117,52,o),
(103,93,c),
(98,104,o),
(98,115,o),
(96,126,c),
(96,675,l),
(303,675,ls),
(359,675,o),
(404,628,o),
(404,573,cs),
(404,127,ls),
(404,72,o),
(359,25,o),
(303,25,cs),
(196,25,ls)
);
}
);
width = 499;
},
{
hints = (
{
horizontal = 1;
place = (652,72);
type = Stem;
},
{
horizontal = 1;
place = (-24,72);
type = Stem;
},
{
place = (389,90);
type = Stem;
},
{
place = (51,91);
type = Stem;
}
);
layerId = "2F065738-4B59-43EB-A5F2-FD5F277958EA";
shapes = (
{
closed = 1;
nodes = (
(112,-24,o),
(126,-18,o),
(134,-6,c),
(158,-18,o),
(184,-24,o),
(211,-24,cs),
(319,-24,ls),
(403,-24,o),
(479,40,o),
(479,127,cs),
(479,573,ls),
(479,660,o),
(403,724,o),
(319,724,cs),
(114,724,ls),
(89,724,o),
(51,722,o),
(51,688,cs),
(51,12,ls),
(51,-11,o),
(76,-24,o),
(96,-24,cs)
);
},
{
closed = 1;
nodes = (
(175,48,o),
(143,82,o),
(142,118,cs),
(142,291,o),
(141,604,o),
(141,652,c),
(318,652,ls),
(360,652,o),
(389,612,o),
(389,573,cs),
(389,127,ls),
(389,88,o),
(360,48,o),
(318,48,cs),
(212,48,ls)
);
}
);
width = 529;
}
);
note = D.ss01;
},
{
color = 0;
glyphname = E.ss01;
lastChange = "2023-10-25 20:36:27 +0000";
layers = (
{
hints = (
{
horizontal = 1;
place = (674,28);
type = Stem;
},
{
horizontal = 1;
place = (336,28);
type = Stem;
},
{
horizontal = 1;
place = (-3,27);
type = Stem;
},
{
place = (66,30);
type = Stem;
}
);
layerId = m01;
shapes = (
{
closed = 1;
nodes = (
(273,-3,o),
(345,-2,o),
(417,-2,cs),
(425,-2,o),
(434,2,o),
(434,11,cs),
(434,21,o),
(425,25,o),
(417,25,cs),
(343,25,o),
(270,24,o),
(196,24,cs),
(141,24,o),
(96,71,o),
(96,126,cs),
(96,336,l),
(384,336,ls),
(394,336,o),
(408,338,o),
(408,350,cs),
(408,358,o),
(400,364,o),
(393,364,cs),
(96,364,l),
(96,674,l),
(201,674,o),
(306,674,o),
(410,674,cs),
(420,674,o),
(434,675,o),
(434,688,cs),
(434,696,o),
(426,702,o),
(419,702,cs),
(329,702,o),
(239,701,o),
(149,701,cs),
(144,701,o),
(139,701,o),
(134,701,cs),
(105,701,ls),
(100,701,o),
(96,702,o),
(91,702,cs),
(81,702,o),
(66,700,o),
(66,687,cs),
(66,126,ls),
(66,50,o),
(127,-3,o),
(201,-3,cs)
);
}
);
width = 499;
},
{
hints = (
{
horizontal = 1;
place = (651,73);
type = Stem;
},
{
horizontal = 1;
place = (313,73);
type = Stem;
},
{
horizontal = 1;
place = (-25,72);
type = Stem;
},
{
place = (51,90);
type = Stem;
}
);
layerId = "2F065738-4B59-43EB-A5F2-FD5F277958EA";
shapes = (
{
closed = 1;
nodes = (
(435,-26,o),
(479,-24,o),
(479,11,cs),
(479,51,o),
(426,47,o),
(399,47,cs),
(212,47,ls),
(170,47,o),
(141,87,o),
(141,126,cs),
(141,314,l),
(219,314,o),
(296,313,o),
(374,313,cs),
(400,313,o),
(453,311,o),
(453,350,cs),
(453,373,o),
(428,386,o),
(408,386,cs),
(319,386,o),
(230,387,o),
(141,387,c),
(141,651,l),
(191,652,o),
(241,651,o),
(291,651,cs),
(311,651,o),
(439,650,o),
(451,655,cs),
(466,660,o),
(479,671,o),
(479,688,cs),
(479,711,o),
(454,724,o),
(434,724,cs),
(130,724,ls),
(93,724,o),
(51,727,o),
(51,678,cs),
(51,494,o),
(51,310,o),
(51,126,cs),
(51,39,o),
(127,-25,o),
(211,-25,cs),
(410,-26,ls)
);
}
);
width = 529;
}
);
note = E.ss01;
},
{
color = 0;
glyphname = F.ss01;
lastChange = "2023-10-25 20:36:27 +0000";
layers = (
{
hints = (
{
horizontal = 1;
place = (675,27);
type = Stem;
},
{
horizontal = 1;
place = (336,27);
type = Stem;
},
{
horizontal = 1;
place = (-2,21);
target = up;
type = BottomGhost;
},
{
place = (66,30);
type = Stem;
}
);
layerId = m01;
shapes = (
{
closed = 1;
nodes = (
(88,-2,o),
(96,4,o),
(96,12,cs),
(96,120,o),
(96,228,o),
(96,336,c),
(380,336,ls),
(388,336,o),
(395,341,o),
(395,349,cs),
(395,357,o),
(388,363,o),
(380,363,cs),
(96,363,l),
(97,467,o),
(97,571,o),
(97,675,c),
(304,675,ls),
(348,675,o),
(383,649,o),
(398,608,cs),
(402,596,o),
(403,585,o),
(405,572,cs),
(407,564,o),
(412,559,o),
(421,559,cs),
(428,559,o),
(435,566,o),
(435,573,cs),
(435,649,o),
(372,702,o),
(300,702,cs),
(82,702,ls),
(75,702,o),
(67,696,o),
(67,688,cs),
(66,12,ls),
(66,4,o),
(74,-2,o),
(81,-2,cs)
);
}
);
width = 465;
},
{
hints = (
{
horizontal = 1;
place = (652,72);
type = Stem;
},
{
horizontal = 1;
place = (313,72);
type = Stem;
},
{
horizontal = 1;
place = (-24,21);
target = up;
type = BottomGhost;
},
{
place = (388,92);
type = Stem;
},
{
place = (51,91);
type = Stem;
}
);
layerId = "2F065738-4B59-43EB-A5F2-FD5F277958EA";
shapes = (
{
closed = 1;
nodes = (
(116,-24,o),
(131,-15,o),
(139,3,cs),
(142,8,o),
(142,159,o),
(142,313,c),
(395,313,ls),
(415,313,o),
(440,326,o),
(440,349,cs),
(440,372,o),
(415,385,o),
(395,385,cs),
(142,385,l),
(142,501,o),
(142,605,o),
(142,635,cs),
(142,652,l),
(318,652,ls),
(354,652,o),
(382,623,o),
(388,590,cs),
(390,582,o),
(389,574,o),
(391,567,cs),
(396,547,o),
(416,537,o),
(435,537,cs),
(455,537,o),
(480,550,o),
(480,573,cs),
(480,660,o),
(404,724,o),
(320,724,cs),
(97,724,ls),
(78,724,o),
(62,715,o),
(54,697,cs),
(50,690,o),
(51,329,o),
(51,297,cs),
(51,12,ls),
(51,-11,o),
(76,-24,o),
(96,-24,cs)
);
}
);
width = 530;
}
);
note = F.ss01;
},
{
color = 0;
glyphname = G.ss01;
lastChange = "2023-10-25 20:36:27 +0000";
layers = (
{
hints = (
{
horizontal = 1;
place = (676,26);
type = Stem;
},
{
horizontal = 1;
place = (337,27);
type = Stem;
},
{
horizontal = 1;
place = (-2,27);
type = Stem;
},
{
place = (404,30);
type = Stem;
},
{
place = (66,30);
type = Stem;
}
);
layerId = m01;
shapes = (
{
closed = 1;
nodes = (
(304,-2,ls),
(368,-2,o),
(429,49,o),
(433,115,cs),
(434,128,o),
(434,142,o),
(434,156,cs),
(434,350,ls),
(434,358,o),
(426,364,o),
(419,364,cs),
(337,364,ls),
(329,364,o),
(248,364,o),
(245,363,cs),
(239,360,o),
(235,357,o),
(235,350,cs),
(235,344,o),
(239,340,o),
(245,337,cs),
(249,335,o),
(384,337,o),
(404,337,c),
(404,153,ls),
(404,109,o),
(401,74,o),
(363,45,cs),
(346,33,o),
(325,25,o),
(303,25,cs),
(196,25,ls),
(141,25,o),
(96,72,o),
(96,127,cs),
(96,310,o),
(96,493,o),
(96,676,c),
(157,675,o),
(217,676,o),
(278,676,cs),
(335,676,o),
(382,663,o),
(399,600,cs),
(402,591,o),
(402,582,o),
(404,573,cs),
(406,564,o),
(410,560,o),
(419,560,cs),
(427,560,o),
(434,566,o),
(434,574,cs),
(434,638,o),
(381,696,o),
(317,701,cs),
(287,703,o),
(256,702,o),
(226,702,cs),
(214,702,o),
(202,702,o),
(190,702,cs),
(118,702,ls),
(105,702,o),
(93,703,o),
(81,703,cs),
(74,703,o),
(66,697,o),
(66,689,cs),
(66,502,o),
(66,314,o),
(66,127,cs),
(66,52,o),
(128,-2,o),
(201,-2,cs)
);
}
);
width = 499;
},
{
hints = (
{
horizontal = 1;
place = (652,73);
type = Stem;
},
{
horizontal = 1;
place = (314,72);
type = Stem;
},
{
horizontal = 1;
place = (-24,72);
type = Stem;
},
{
place = (389,90);
type = Stem;
},
{
place = (51,90);
type = Stem;
}
);
layerId = "2F065738-4B59-43EB-A5F2-FD5F277958EA";
shapes = (
{
closed = 1;
nodes = (
(319,-24,ls),
(393,-24,o),
(459,24,o),
(476,97,cs),
(479,115,o),
(480,133,o),
(480,151,cs),
(480,170,o),
(479,190,o),
(479,210,cs),
(479,350,ls),
(479,373,o),
(454,386,o),
(434,386,cs),
(333,386,l),
(290,386,ls),
(264,386,o),
(220,387,o),
(220,350,cs),
(220,306,o),
(285,314,o),
(313,314,cs),
(389,314,l),
(389,201,l),
(389,152,ls),
(389,116,o),
(388,85,o),
(357,61,cs),
(345,53,o),
(332,48,o),
(317,48,cs),
(212,48,ls),
(170,48,o),
(141,88,o),
(141,127,cs),
(141,303,o),
(141,478,o),
(141,653,c),
(182,652,o),
(223,652,o),
(263,652,cs),
(283,652,o),
(304,654,o),
(325,652,cs),
(333,651,o),
(341,648,o),
(348,644,cs),
(371,632,o),
(385,608,o),
(388,582,cs),
(390,564,o),
(390,555,o),
(407,544,cs),
(415,539,o),
(424,537,o),
(434,537,cs),
(454,537,o),
(479,550,o),
(479,573,cs),
(479,646,o),
(422,708,o),
(352,721,cs),
(332,724,o),
(311,725,o),
(291,725,cs),
(96,725,ls),
(78,725,o),
(61,717,o),
(53,700,cs),
(50,692,o),
(51,677,o),
(51,669,cs),
(51,614,o),
(51,559,o),
(51,503,cs),
(51,127,ls),
(51,40,o),
(127,-24,o),
(211,-24,cs)
);
}
);
width = 530;
}
);
note = G.ss01;
},
{
color = 0;
glyphname = H.ss01;
lastChange = "2023-10-25 20:36:27 +0000";
layers = (
{
hints = (
{
horizontal = 1;
place = (701,-20);
target = down;
type = TopGhost;
},
{
horizontal = 1;
place = (337,26);
type = Stem;
},
{
horizontal = 1;
place = (-2,21);
target = up;
type = BottomGhost;
},
{
place = (404,30);
type = Stem;
},
{
place = (66,30);
type = Stem;
}
);
layerId = m01;
shapes = (
{
closed = 1;
nodes = (
(88,-2,o),
(96,4,o),
(96,12,cs),
(96,337,l),
(293,337,ls),
(360,337,o),
(395,302,o),
(404,234,c),
(404,12,ls),
(404,4,o),
(411,-2,o),
(419,-2,cs),
(426,-2,o),
(434,4,o),
(434,12,cs),
(434,688,ls),
(434,696,o),
(426,701,o),
(419,701,cs),
(411,701,o),
(404,696,o),
(404,688,cs),
(404,317,l),
(393,330,o),
(380,340,o),
(366,347,cs),
(322,369,o),
(276,363,o),
(228,363,cs),
(96,364,l),
(96,688,ls),
(96,696,o),
(88,701,o),
(81,701,cs),
(74,701,o),
(66,696,o),
(66,688,cs),
(66,12,ls),
(66,4,o),
(74,-2,o),
(81,-2,cs)
);
}
);
width = 499;
},
{
hints = (
{
horizontal = 1;
place = (724,-20);
target = down;
type = TopGhost;
},
{
horizontal = 1;
place = (314,73);
type = Stem;
},
{
horizontal = 1;
place = (-24,21);
target = up;
type = BottomGhost;
},
{
place = (389,90);
type = Stem;
},
{
place = (51,90);
type = Stem;
}
);
layerId = "2F065738-4B59-43EB-A5F2-FD5F277958EA";
shapes = (
{
closed = 1;
nodes = (
(116,-24,o),
(141,-11,o),
(141,12,cs),
(141,313,l),
(194,314,o),
(247,314,o),
(300,314,cs),
(308,314,o),
(317,314,o),
(325,313,cs),
(356,310,o),
(381,282,o),
(387,252,cs),
(388,246,o),
(388,239,o),
(389,232,c),
(389,12,ls),
(389,-11,o),
(413,-24,o),
(434,-24,cs),
(454,-24,o),
(479,-11,o),
(479,12,cs),
(479,688,ls),
(479,711,o),
(454,724,o),
(434,724,cs),
(413,724,o),
(389,711,o),
(389,688,cs),
(389,371,l),
(357,385,o),
(326,387,o),
(292,387,cs),
(242,387,o),
(191,386,o),
(141,386,c),
(141,688,ls),
(141,711,o),
(116,724,o),
(96,724,cs),
(75,724,o),
(51,711,o),
(51,688,cs),
(51,12,ls),
(51,-11,o),
(75,-24,o),
(96,-24,cs)
);
}
);
width = 529;
}
);
note = H.ss01;
},
{
color = 0;
glyphname = I.ss01;
lastChange = "2023-10-25 20:36:27 +0000";
layers = (
{
hints = (
{
horizontal = 1;
place = (675,27);
type = Stem;
},
{
horizontal = 1;
place = (-2,27);
type = Stem;
},
{
place = (135,30);
type = Stem;
}
);
layerId = m01;
shapes = (
{
closed = 1;
nodes = (
(223,-2,ls),
(231,-2,o),
(238,4,o),
(238,12,cs),
(238,20,o),
(231,25,o),
(223,25,cs),
(165,25,l),
(165,675,l),
(220,675,ls),
(228,675,o),
(235,680,o),
(235,688,cs),
(235,696,o),
(228,702,o),
(220,702,cs),
(80,702,ls),
(73,702,o),
(65,696,o),
(65,688,cs),
(65,680,o),
(73,675,o),
(80,675,cs),
(135,675,l),
(135,25,l),
(83,25,ls),
(76,25,o),
(68,20,o),
(68,12,cs),
(68,4,o),
(76,-2,o),
(83,-2,cs)
);
}
);
width = 304;
},
{
hints = (
{
horizontal = 1;
place = (652,72);
type = Stem;
},
{
horizontal = 1;
place = (-24,72);
type = Stem;
},
{
place = (120,90);
type = Stem;
}
);
layerId = "2F065738-4B59-43EB-A5F2-FD5F277958EA";
shapes = (
{
closed = 1;
nodes = (
(238,-24,ls),
(259,-24,o),
(283,-11,o),
(283,12,cs),
(283,35,o),
(259,48,o),
(238,48,cs),
(210,48,l),
(210,652,l),
(235,652,ls),
(255,652,o),
(280,665,o),
(280,688,cs),
(280,711,o),
(255,724,o),
(235,724,cs),
(95,724,ls),
(75,724,o),
(50,711,o),
(50,688,cs),
(50,665,o),
(75,652,o),
(95,652,cs),
(120,652,l),
(120,48,l),
(98,48,ls),
(78,48,o),
(53,35,o),
(53,12,cs),
(53,-11,o),
(78,-24,o),
(98,-24,cs)
);
}
);
width = 334;
}
);
note = I.ss01;
},
{
color = 0;
glyphname = J.ss01;
lastChange = "2023-10-25 20:36:27 +0000";
layers = (
{
hints = (
{
horizontal = 1;
place = (675,27);
type = Stem;
},
{
horizontal = 1;
place = (-2,28);
type = Stem;
},
{
place = (246,30);
type = Stem;
}
);
layerId = m01;
shapes = (
{
closed = 1;
nodes = (
(146,-2,ls),
(209,-2,o),
(271,49,o),
(275,115,cs),
(277,140,o),
(277,165,o),
(277,190,cs),
(277,232,o),
(277,273,o),
(277,315,cs),
(276,564,ls),
(276,605,o),
(276,647,o),
(276,688,cs),
(276,694,o),
(271,698,o),
(266,701,c),
(263,702,o),
(213,702,o),
(206,702,cs),
(139,702,ls),
(132,702,o),
(124,696,o),
(124,688,cs),
(124,682,o),
(128,678,o),
(133,676,cs),
(138,673,o),
(230,675,o),
(246,675,c),
(246,497,o),
(246,320,o),
(246,142,cs),
(246,123,o),
(245,105,o),
(238,87,cs),
(223,54,o),
(192,30,o),
(156,26,cs),
(123,22,o),
(87,26,o),
(53,26,cs),
(44,26,o),
(31,24,o),
(31,12,cs),
(31,4,o),
(39,-2,o),
(46,-2,cs)
);
}
);
width = 341;
},
{
hints = (
{
horizontal = 1;
place = (652,72);
type = Stem;
},
{
horizontal = 1;
place = (-24,72);
type = Stem;
},
{
place = (266,90);
type = Stem;
}
);
layerId = "2F065738-4B59-43EB-A5F2-FD5F277958EA";
shapes = (
{
closed = 1;
nodes = (
(196,-24,ls),
(261,-24,o),
(316,11,o),
(344,70,cs),
(354,92,o),
(356,117,o),
(356,140,cs),
(356,323,o),
(356,505,o),
(356,688,cs),
(356,722,o),
(317,725,o),
(291,725,cs),
(282,725,o),
(273,724,o),
(263,724,cs),
(189,724,ls),
(168,724,o),
(144,711,o),
(144,688,cs),
(144,650,o),
(191,652,o),
(218,652,cs),
(266,652,l),
(266,482,o),
(266,312,o),
(266,142,cs),
(266,103,o),
(255,64,o),
(213,51,cs),
(194,45,o),
(139,48,o),
(115,48,cs),
(89,48,o),
(51,46,o),
(51,12,cs),
(51,-11,o),
(75,-24,o),
(96,-24,cs)
);
}
);
width = 407;
}
);
note = J.ss01;
},
{
color = 0;
glyphname = K.ss01;
lastChange = "2023-10-25 20:36:27 +0000";
layers = (
{
hints = (
{
horizontal = 1;
place = (703,-20);
target = down;
type = TopGhost;
},
{
horizontal = 1;
place = (337,26);
type = Stem;
},
{
horizontal = 1;
place = (-2,21);
target = up;
type = BottomGhost;
},
{
place = (404,30);
type = Stem;
},
{
place = (66,30);
type = Stem;
}
);
layerId = m01;
shapes = (
{
closed = 1;
nodes = (
(88,-2,o),
(96,4,o),
(96,12,cs),
(96,336,l),
(159,336,o),
(221,337,o),
(284,337,cs),
(294,337,o),
(304,337,o),
(314,336,cs),
(361,331,o),
(398,292,o),
(403,245,cs),
(406,219,o),
(404,192,o),
(404,166,cs),
(404,12,ls),
(404,4,o),
(411,-2,o),
(419,-2,cs),
(426,-2,o),
(434,4,o),
(434,12,cs),
(434,235,ls),
(434,310,o),
(372,363,o),
(299,363,cs),
(231,363,l),
(269,518,ls),
(276,546,o),
(281,575,o),
(290,602,cs),
(294,613,o),
(299,624,o),
(306,633,cs),
(354,694,o),
(425,655,o),
(425,685,cs),
(425,693,o),
(418,699,o),
(410,699,cs),
(334,699,o),
(291,681,o),
(261,610,c),
(252,580,o),
(246,549,o),
(238,519,cs),
(235,503,o),
(207,396,o),
(200,363,c),
(96,363,l),
(96,689,ls),
(96,697,o),
(88,703,o),
(81,703,cs),
(74,703,o),
(66,697,o),
(66,689,cs),
(66,12,ls),
(66,4,o),
(74,-2,o),
(81,-2,cs)
);
}
);
width = 499;
},
{
hints = (
{
horizontal = 1;
place = (725,-20);
target = down;
type = TopGhost;
},
{
horizontal = 1;
place = (649,72);
type = Stem;
},
{
horizontal = 1;
place = (314,72);
type = Stem;
},
{
horizontal = 1;
place = (-24,21);
target = up;
type = BottomGhost;
},
{
place = (388,91);
type = Stem;
},
{
place = (51,90);
type = Stem;
}
);
layerId = "2F065738-4B59-43EB-A5F2-FD5F277958EA";
shapes = (
{
closed = 1;
nodes = (
(116,-24,o),
(141,-11,o),
(141,12,cs),
(141,314,l),
(279,314,ls),
(288,314,o),
(298,314,o),
(308,314,cs),
(366,314,o),
(389,274,o),
(389,221,cs),
(389,204,o),
(389,188,o),
(389,172,cs),
(388,75,ls),
(388,58,o),
(388,42,o),
(388,26,cs),
(388,-5,o),
(400,-24,o),
(434,-24,cs),
(454,-24,o),
(479,-11,o),
(479,12,cs),
(479,235,ls),
(479,322,o),
(403,386,o),
(319,386,cs),
(309,386,l),
(320,452,o),
(334,567,o),
(342,598,cs),
(345,609,o),
(350,621,o),
(358,630,cs),
(376,649,o),
(393,649,o),
(418,649,cs),
(440,649,o),
(470,657,o),
(470,685,cs),
(470,716,o),
(436,721,o),
(412,721,cs),
(342,721,o),
(281,693,o),
(257,624,cs),
(244,585,o),
(242,540,o),
(235,500,cs),
(220,402,ls),
(219,396,o),
(218,391,o),
(217,386,c),
(141,386,l),
(141,689,ls),
(141,712,o),
(116,725,o),
(96,725,cs),
(75,725,o),
(51,712,o),
(51,689,cs),
(51,12,ls),
(51,-11,o),
(75,-24,o),
(96,-24,cs)
);
}
);
width = 529;
}
);
note = K.ss01;
},
{
color = 0;
glyphname = L.ss01;
lastChange = "2023-10-25 20:36:27 +0000";
layers = (
{
hints = (
{
horizontal = 1;
place = (702,-20);
target = down;
type = TopGhost;
},
{
horizontal = 1;
place = (-2,27);
type = Stem;
},
{
place = (66,30);
type = Stem;
}
);
layerId = m01;
shapes = (
{
closed = 1;
nodes = (
(247,-2,ls),
(318,-2,o),
(377,56,o),
(377,127,cs),
(377,135,o),
(368,140,o),
(361,140,cs),
(353,140,o),
(348,135,o),
(347,127,cs),
(345,117,o),
(344,107,o),
(341,96,cs),
(327,54,o),
(292,25,o),
(246,25,cs),
(96,25,l),
(96,688,ls),
(96,696,o),
(89,702,o),
(81,702,cs),
(74,702,o),
(66,696,o),
(66,688,cs),
(66,12,ls),
(66,4,o),
(74,-2,o),
(81,-2,cs)
);
}
);
width = 397;
},
{
hints = (
{
horizontal = 1;
place = (724,-20);
target = down;
type = TopGhost;
},
{
horizontal = 1;
place = (-24,72);
type = Stem;
},
{
place = (332,89);
type = Stem;
},
{
place = (50,91);
type = Stem;
}
);
layerId = "2F065738-4B59-43EB-A5F2-FD5F277958EA";
shapes = (
{
closed = 1;
nodes = (
(262,-24,ls),
(346,-24,o),
(421,40,o),
(421,127,cs),
(421,150,o),
(397,163,o),
(376,163,cs),
(357,163,o),
(337,153,o),
(332,133,cs),
(330,125,o),
(331,117,o),
(330,109,cs),
(323,77,o),
(295,48,o),
(260,48,cs),
(141,48,l),
(141,688,ls),
(141,711,o),
(116,724,o),
(96,724,cs),
(76,724,o),
(61,715,o),
(53,697,cs),
(50,691,o),
(50,445,o),
(50,424,cs),
(50,287,o),
(51,149,o),
(51,12,cs),
(51,-11,o),
(75,-24,o),
(96,-24,cs)
);
}
);
width = 472;
}
);
note = L.ss01;
},
{
color = 0;
glyphname = M.ss01;
lastChange = "2023-10-25 20:36:27 +0000";
layers = (
{
hints = (
{
horizontal = 1;
place = (675,27);
type = Stem;
},
{
horizontal = 1;
place = (-1,21);
target = up;
type = BottomGhost;
},
{
horizontal = 1;
place = (-2,21);
target = up;
type = BottomGhost;
},
{
place = (740,30);
type = Stem;
},
{
place = (402,30);
type = Stem;
},
{
place = (66,30);
type = Stem;
}
);
layerId = m01;
shapes = (
{
closed = 1;
nodes = (
(762,-2,o),
(769,4,o),
(769,12,cs),
(770,573,ls),
(770,648,o),
(708,702,o),
(635,702,cs),
(532,702,ls),
(485,702,o),
(439,674,o),
(417,633,c),
(395,674,o),
(352,702,o),
(303,702,cs),
(284,702,o),
(266,702,o),
(248,701,cs),
(138,701,ls),
(119,701,o),
(101,701,o),
(83,701,cs),
(74,701,o),
(66,697,o),
(66,687,cs),
(66,12,ls),
(66,4,o),
(74,-1,o),
(81,-1,cs),
(88,-1,o),
(96,4,o),
(96,12,cs),
(96,674,l),
(165,674,o),
(233,675,o),
(302,675,cs),
(359,675,o),
(399,630,o),
(402,575,c),
(401,553,o),
(401,531,o),
(401,510,cs),
(401,468,o),
(401,427,o),
(401,386,cs),
(402,137,ls),
(402,96,o),
(402,54,o),
(402,13,cs),
(402,12,ls),
(402,4,o),
(409,-1,o),
(417,-1,cs),
(424,-1,o),
(432,4,o),
(432,12,cs),
(432,573,l),
(436,628,o),
(472,675,o),
(532,675,cs),
(639,675,ls),
(691,675,o),
(734,635,o),
(739,584,cs),
(741,563,o),
(740,541,o),
(740,520,cs),
(739,12,ls),
(739,4,o),
(747,-2,o),
(754,-2,cs)
);
}
);
width = 835;
},
{
hints = (
{
horizontal = 1;
place = (652,72);
type = Stem;
},
{
horizontal = 1;
place = (-24,21);
target = up;
type = BottomGhost;
},
{
place = (725,90);
type = Stem;
},
{
place = (387,90);
type = Stem;
},
{
place = (51,90);
type = Stem;
}
);
layerId = "2F065738-4B59-43EB-A5F2-FD5F277958EA";
shapes = (
{
closed = 1;
nodes = (
(115,-24,o),
(132,-15,o),
(139,3,cs),
(144,14,o),
(141,590,o),
(141,652,c),
(199,652,o),
(258,652,o),
(316,652,cs),
(348,652,o),
(374,628,o),
(383,599,cs),
(385,592,o),
(386,583,o),
(387,573,cs),
(387,568,o),
(387,564,o),
(387,560,cs),
(387,382,o),
(387,205,o),
(387,28,cs),
(387,23,o),
(386,16,o),
(387,9,cs),
(389,-12,o),
(412,-24,o),
(432,-24,cs),
(452,-24,o),
(476,-11,o),
(477,11,cs),
(477,17,o),
(477,23,o),
(477,29,cs),
(477,92,o),
(477,156,o),
(477,220,cs),
(477,569,ls),
(477,580,o),
(479,591,o),
(481,599,cs),
(490,628,o),
(516,652,o),
(548,652,cs),
(653,652,ls),
(685,652,o),
(712,628,o),
(721,599,cs),
(728,574,o),
(725,533,o),
(725,506,cs),
(724,12,ls),
(724,-11,o),
(749,-24,o),
(769,-24,cs),
(787,-24,o),
(806,-16,o),
(812,1,cs),
(816,9,o),
(815,23,o),
(815,32,cs),
(815,87,o),
(814,142,o),
(814,197,cs),
(815,573,ls),
(815,660,o),
(739,724,o),
(655,724,cs),
(547,724,ls),
(502,724,o),
(462,707,o),
(432,678,c),
(403,707,o),
(361,724,o),
(317,724,cs),
(250,724,o),
(182,724,o),
(115,724,cs),
(89,724,o),
(51,721,o),
(51,687,cs),
(51,12,ls),
(51,-11,o),
(75,-24,o),
(96,-24,cs)
);
}
);
width = 865;
}
);
note = M.ss01;
},
{
color = 0;
glyphname = N.ss01;
lastChange = "2023-10-25 20:36:27 +0000";
layers = (
{
hints = (
{
horizontal = 1;
place = (675,26);
type = Stem;
},
{
horizontal = 1;
place = (-2,21);
target = up;
type = BottomGhost;
},
{
place = (402,30);
type = Stem;
},
{
place = (66,30);
type = Stem;
}
);
layerId = m01;
shapes = (
{
closed = 1;
nodes = (
(88,-2,o),
(96,4,o),
(96,12,cs),
(96,674,l),
(160,674,o),
(223,675,o),
(287,675,cs),
(341,675,o),
(388,651,o),
(400,594,cs),
(404,573,o),
(402,551,o),
(402,530,cs),
(402,12,ls),
(402,4,o),
(410,-2,o),
(417,-2,cs),
(425,-2,o),
(432,4,o),
(432,12,cs),
(432,573,ls),
(432,638,o),
(380,695,o),
(315,700,cs),
(301,701,o),
(286,701,o),
(272,701,cs),
(81,701,ls),
(74,701,o),
(66,695,o),
(66,687,cs),
(66,12,ls),
(66,4,o),
(74,-2,o),
(81,-2,cs)
);
}
);
width = 498;
},
{
hints = (
{
horizontal = 1;
place = (652,71);
type = Stem;
},
{
horizontal = 1;
place = (-24,21);
target = up;
type = BottomGhost;
},
{
place = (387,90);
type = Stem;
},
{
place = (51,90);
type = Stem;
}
);
layerId = "2F065738-4B59-43EB-A5F2-FD5F277958EA";
shapes = (
{
closed = 1;
nodes = (
(115,-24,o),
(132,-15,o),
(139,3,cs),
(145,16,o),
(141,588,o),
(141,651,c),
(195,651,o),
(249,652,o),
(303,652,cs),
(344,652,o),
(377,633,o),
(385,590,cs),
(389,572,o),
(387,552,o),
(387,533,cs),
(387,428,l),
(387,69,l),
(387,32,ls),
(387,27,o),
(387,22,o),
(387,17,cs),
(387,-9,o),
(407,-24,o),
(432,-24,cs),
(453,-24,o),
(477,-11,o),
(477,12,cs),
(477,573,ls),
(477,646,o),
(421,707,o),
(350,720,cs),
(331,723,o),
(312,724,o),
(293,724,cs),
(273,724,o),
(253,723,o),
(233,723,cs),
(96,723,ls),
(75,723,o),
(51,710,o),
(51,687,cs),
(51,12,ls),
(51,-11,o),
(75,-24,o),
(96,-24,cs)
);
}
);
width = 528;
}
);
note = N.ss01;
},
{
color = 0;
glyphname = O.ss01;
lastChange = "2023-10-25 20:36:27 +0000";
layers = (
{
hints = (
{
horizontal = 1;
place = (675,27);
type = Stem;
},
{
horizontal = 1;
place = (-2,28);
type = Stem;
},
{
place = (404,30);
type = Stem;
},
{
place = (66,30);
type = Stem;
}
);
layerId = m01;
shapes = (
{
closed = 1;
nodes = (
(304,-2,ls),
(379,-2,o),
(434,58,o),
(434,132,cs),
(434,573,ls),
(434,648,o),
(372,702,o),
(299,702,cs),
(196,702,ls),
(123,702,o),
(66,643,o),
(66,571,cs),
(66,127,ls),
(66,52,o),
(128,-2,o),
(201,-2,cs)
);
},
{
closed = 1;
nodes = (
(141,26,o),
(96,72,o),
(96,127,cs),
(96,573,ls),
(96,628,o),
(141,675,o),
(196,675,cs),
(304,675,ls),
(359,675,o),
(404,628,o),
(404,573,cs),
(404,127,ls),
(404,72,o),
(359,26,o),
(304,26,cs),
(196,26,ls)
);
}
);
width = 500;
},
{
hints = (
{
horizontal = 1;
place = (652,72);
type = Stem;
},
{
horizontal = 1;
place = (-24,72);
type = Stem;
},
{
place = (389,90);
type = Stem;
},
{
place = (51,90);
type = Stem;
}
);
layerId = "2F065738-4B59-43EB-A5F2-FD5F277958EA";
shapes = (
{
closed = 1;
nodes = (
(319,-24,ls),
(403,-24,o),
(479,40,o),
(479,127,cs),
(479,573,ls),
(479,660,o),
(403,724,o),
(319,724,cs),
(211,724,ls),
(127,724,o),
(51,660,o),
(51,573,cs),
(51,127,ls),
(51,40,o),
(127,-24,o),
(211,-24,cs)
);
},
{
closed = 1;
nodes = (
(170,48,o),
(141,88,o),
(141,128,cs),
(141,572,ls),
(141,612,o),
(170,652,o),
(212,652,cs),
(318,652,ls),
(360,652,o),
(389,612,o),
(389,572,cs),
(389,128,ls),
(389,88,o),
(360,48,o),
(318,48,cs),
(212,48,ls)
);
}
);
width = 530;
}
);
note = O.ss01;
},
{
color = 0;
glyphname = P.ss01;
lastChange = "2023-10-25 20:36:27 +0000";
layers = (
{
hints = (
{
horizontal = 1;
place = (675,27);
type = Stem;
},
{
horizontal = 1;
place = (337,27);
type = Stem;
},
{
horizontal = 1;
place = (-2,21);
target = up;
type = BottomGhost;
},
{
place = (404,30);
type = Stem;
},
{
place = (65,30);
type = Stem;
}
);
layerId = m01;
shapes = (
{
closed = 1;
nodes = (
(88,-2,o),
(96,4,o),
(96,12,cs),
(96,120,o),
(96,228,o),
(96,336,c),
(270,337,ls),
(286,337,o),
(301,336,o),
(316,338,cs),
(385,342,o),
(434,404,o),
(434,470,cs),
(434,573,ls),
(434,648,o),
(372,702,o),
(299,702,cs),
(82,702,ls),
(74,702,o),
(65,697,o),
(65,688,cs),
(66,12,ls),
(66,4,o),
(74,-2,o),
(81,-2,cs)
);
},
{
closed = 1;
nodes = (
(96,468,o),
(95,571,o),
(95,675,c),
(304,675,ls),
(359,675,o),
(404,628,o),
(404,573,cs),
(404,466,ls),
(404,419,o),
(370,375,o),
(324,366,cs),
(306,362,o),
(287,364,o),
(269,364,cs),
(214,364,o),
(158,364,o),
(103,364,cs),
(101,364,o),
(98,364,o),
(96,364,c)
);
}
);
width = 499;
},
{
hints = (
{
horizontal = 1;
place = (652,72);
type = Stem;
},
{
horizontal = 1;
place = (313,73);
type = Stem;
},
{
horizontal = 1;
place = (-24,21);
target = up;
type = BottomGhost;
},
{
place = (390,90);
type = Stem;
},
{
place = (51,90);
type = Stem;
}
);
layerId = "2F065738-4B59-43EB-A5F2-FD5F277958EA";
shapes = (
{
closed = 1;
nodes = (
(116,-24,o),
(133,-15,o),
(140,3,c),
(143,8,o),
(143,195,o),
(143,212,cs),
(143,246,o),
(142,280,o),
(142,314,c),
(293,313,ls),
(313,313,o),
(333,314,o),
(353,318,cs),
(423,330,o),
(480,393,o),
(480,465,cs),
(480,573,ls),
(480,660,o),
(404,724,o),
(320,724,cs),
(169,724,ls),
(153,724,o),
(136,725,o),
(119,725,cs),
(94,725,o),
(51,724,o),
(51,688,cs),
(51,571,o),
(51,455,o),
(51,338,cs),
(51,312,o),
(50,10,o),
(53,3,cs),
(61,-15,o),
(78,-24,o),
(97,-24,cs)
);
},
{
closed = 1;
nodes = (
(211,386,o),
(177,386,o),
(142,387,c),
(142,475,o),
(141,564,o),
(141,652,c),
(319,652,ls),
(360,652,o),
(390,612,o),
(390,573,cs),
(390,466,ls),
(390,432,o),
(370,400,o),
(337,389,cs),
(325,385,o),
(261,386,o),
(245,386,cs)
);
}
);
width = 530;
}
);
note = P.ss01;
},
{
color = 0;
glyphname = Q.ss01;
lastChange = "2023-10-25 20:36:27 +0000";
layers = (
{
hints = (
{
horizontal = 1;
place = (675,27);
type = Stem;
},
{
horizontal = 1;
place = (-2,28);
type = Stem;
},
{
place = (404,30);
type = Stem;
},
{
place = (66,30);
type = Stem;
}
);
layerId = m01;
shapes = (
{
closed = 1;
nodes = (
(304,-2,ls),
(327,-2,o),
(348,4,o),
(367,14,c),
(383,7,o),
(401,3,o),
(420,3,cs),
(428,3,o),
(434,9,o),
(434,17,cs),
(434,25,o),
(427,29,o),
(420,30,cs),
(411,31,o),
(402,31,o),
(394,34,c),
(419,58,o),
(434,93,o),
(434,132,cs),
(434,688,ls),
(434,696,o),
(427,702,o),
(419,702,cs),
(196,702,ls),
(121,702,o),
(66,642,o),
(66,568,cs),
(66,127,ls),
(66,52,o),
(128,-2,o),
(201,-2,cs)
);
},
{
closed = 1;
nodes = (
(141,26,o),
(96,72,o),
(96,127,cs),
(96,573,ls),
(96,628,o),
(141,675,o),
(196,675,cs),
(404,675,l),
(404,127,ls),
(404,95,o),
(389,65,o),
(365,47,c),
(344,60,o),
(330,80,o),
(323,105,cs),
(321,114,o),
(321,123,o),
(319,132,cs),
(318,140,o),
(312,145,o),
(304,145,cs),
(296,145,o),
(289,138,o),
(289,131,cs),
(289,90,o),
(308,55,o),
(338,32,c),
(327,28,o),
(316,26,o),
(304,26,cs),
(196,26,ls)
);
}
);
width = 500;
},
{
hints = (
{
horizontal = 1;
place = (652,72);
type = Stem;
},
{
horizontal = 1;
place = (-24,72);
type = Stem;
},
{
horizontal = 1;
place = (-20,21);
target = up;
type = BottomGhost;
},
{
place = (389,90);
type = Stem;
},
{
place = (274,92);
type = Stem;
},
{
place = (51,90);
type = Stem;
}
);
layerId = "2F065738-4B59-43EB-A5F2-FD5F277958EA";
shapes = (
{
closed = 1;
nodes = (
(319,-24,ls),
(341,-24,o),
(363,-20,o),
(382,-12,c),
(399,-17,o),
(416,-20,o),
(434,-20,cs),
(455,-20,o),
(479,-7,o),
(479,16,cs),
(479,31,o),
(468,42,o),
(455,48,c),
(470,70,o),
(479,97,o),
(479,127,cs),
(479,688,ls),
(479,711,o),
(454,724,o),
(434,724,cs),
(211,724,ls),
(127,724,o),
(51,660,o),
(51,573,cs),
(51,127,ls),
(51,40,o),
(127,-24,o),
(211,-24,cs)
);
},
{
closed = 1;
nodes = (
(170,48,o),
(141,88,o),
(141,128,cs),
(141,572,ls),
(141,612,o),
(170,652,o),
(212,652,cs),
(389,652,l),
(389,128,ls),
(389,113,o),
(385,98,o),
(378,85,c),
(372,94,o),
(368,104,o),
(366,114,cs),
(365,122,o),
(365,130,o),
(363,137,cs),
(359,157,o),
(338,167,o),
(319,167,cs),
(299,167,o),
(274,154,o),
(274,131,cs),
(274,100,o),
(284,71,o),
(301,48,c),
(212,48,ls)
);
}
);
width = 530;
}
);
note = Q.ss01;
},
{
color = 0;
glyphname = R.ss01;
lastChange = "2023-10-25 20:36:27 +0000";
layers = (
{
hints = (
{
horizontal = 1;
place = (675,27);
type = Stem;
},
{
horizontal = 1;
place = (336,27);
type = Stem;
},
{
horizontal = 1;
place = (-2,21);
target = up;
type = BottomGhost;
},
{
place = (404,30);
type = Stem;
},
{
place = (66,30);
type = Stem;
}
);
layerId = m01;
shapes = (
{
closed = 1;
nodes = (
(88,-2,o),
(96,4,o),
(96,12,cs),
(96,120,o),
(96,228,o),
(96,336,c),
(303,336,ls),
(347,336,o),
(386,307,o),
(399,265,cs),
(408,238,o),
(404,195,o),
(404,166,cs),
(404,12,ls),
(404,4,o),
(411,-2,o),
(419,-2,cs),
(426,-2,o),
(434,4,o),
(434,12,cs),
(434,235,ls),
(434,287,o),
(404,329,o),
(361,350,c),
(405,371,o),
(434,417,o),
(434,470,cs),
(434,573,ls),
(434,649,o),
(372,702,o),
(299,702,cs),
(83,702,ls),
(75,702,o),
(66,697,o),
(66,688,cs),
(66,12,ls),
(66,4,o),
(74,-2,o),
(81,-2,cs)
);
},
{
closed = 1;
nodes = (
(96,467,o),
(96,571,o),
(96,675,c),
(304,675,ls),
(359,675,o),
(404,628,o),
(404,573,cs),
(404,466,ls),
(404,420,o),
(376,382,o),
(332,369,cs),
(322,366,o),
(313,366,o),
(303,364,c),
(303,364,o),
(302,364,o),
(301,363,c),
(300,363,o),
(300,363,o),
(299,363,cs),
(96,363,l)
);
}
);
width = 499;
},
{
hints = (
{
horizontal = 1;
place = (652,72);
type = Stem;
},
{
horizontal = 1;
place = (314,72);
type = Stem;
},
{
horizontal = 1;
place = (-24,21);
target = up;
type = BottomGhost;
},
{
place = (389,90);
type = Stem;
},
{
place = (51,91);
type = Stem;
}
);
layerId = "2F065738-4B59-43EB-A5F2-FD5F277958EA";
shapes = (
{
closed = 1;
nodes = (
(115,-24,o),
(132,-15,o),
(139,3,c),
(142,8,o),
(142,159,o),
(142,314,c),
(318,314,ls),
(332,314,o),
(346,309,o),
(357,300,cs),
(388,277,o),
(389,246,o),
(389,210,cs),
(389,161,ls),
(389,115,o),
(388,70,o),
(388,24,cs),
(388,-6,o),
(402,-24,o),
(434,-24,cs),
(454,-24,o),
(479,-11,o),
(479,12,cs),
(479,235,ls),
(479,282,o),
(456,323,o),
(422,350,c),
(456,377,o),
(479,418,o),
(479,465,cs),
(479,573,ls),
(479,660,o),
(403,724,o),
(319,724,cs),
(164,724,ls),
(148,724,o),
(132,725,o),
(116,725,cs),
(72,725,o),
(50,718,o),
(50,669,cs),
(50,607,o),
(51,545,o),
(51,483,cs),
(51,12,ls),
(51,-11,o),
(76,-24,o),
(96,-24,cs)
);
},
{
closed = 1;
nodes = (
(142,510,o),
(141,622,o),
(141,649,cs),
(141,652,l),
(318,652,ls),
(360,652,o),
(389,612,o),
(389,573,cs),
(389,466,ls),
(389,434,o),
(369,399,o),
(337,389,cs),
(328,387,o),
(320,387,o),
(312,386,c),
(142,386,l)
);
}
);
width = 529;
}
);
note = R.ss01;
},
{
color = 0;
glyphname = S.ss01;
lastChange = "2023-10-25 20:36:27 +0000";
layers = (
{
hints = (
{
horizontal = 1;
place = (675,27);
type = Stem;
},
{
horizontal = 1;
place = (338,26);
type = Stem;
},
{
horizontal = 1;
place = (-2,28);
type = Stem;
},
{
place = (404,30);
type = Stem;
},
{
place = (66,30);
type = Stem;
}
);
layerId = m01;
shapes = (
{
closed = 1;
nodes = (
(304,-2,ls),
(379,-2,o),
(434,58,o),
(434,132,cs),
(434,235,ls),
(434,298,o),
(381,358,o),
(317,362,cs),
(283,365,o),
(249,364,o),
(216,364,cs),
(172,364,o),
(143,369,o),
(115,406,cs),
(103,423,o),
(96,444,o),
(96,466,cs),
(96,675,l),
(300,675,ls),
(345,675,o),
(381,647,o),
(394,604,cs),
(398,593,o),
(398,583,o),
(400,573,cs),
(401,564,o),
(407,560,o),
(415,560,cs),
(423,560,o),
(430,566,o),
(430,574,cs),
(430,649,o),
(367,702,o),
(295,702,cs),
(81,702,ls),
(74,702,o),
(66,696,o),
(66,688,cs),
(66,465,ls),
(66,402,o),
(118,342,o),
(183,338,cs),
(208,336,o),
(233,338,o),
(258,338,cs),
(279,338,o),
(314,338,o),
(333,332,cs),
(375,318,o),
(404,278,o),
(404,234,cs),
(404,127,ls),
(404,105,o),
(396,84,o),
(383,66,cs),
(354,27,o),
(321,26,o),
(276,26,cs),
(81,26,ls),
(74,26,o),
(66,20,o),
(66,12,cs),
(66,3,o),
(75,-2,o),
(83,-2,cs)
);
}
);
width = 499;
},
{
hints = (
{
horizontal = 1;
place = (652,72);
type = Stem;
},
{
horizontal = 1;
place = (315,71);
type = Stem;
},
{
horizontal = 1;
place = (-24,72);
type = Stem;
},
{
place = (388,90);
type = Stem;
},
{
place = (384,91);
type = Stem;
},
{
place = (51,90);
type = Stem;
}
);
layerId = "2F065738-4B59-43EB-A5F2-FD5F277958EA";
shapes = (
{
closed = 1;
nodes = (
(188,-24,l),
(319,-24,ls),
(403,-24,o),
(478,40,o),
(478,127,cs),
(478,235,ls),
(478,266,o),
(467,297,o),
(448,323,cs),
(391,399,o),
(306,386,o),
(222,386,cs),
(174,386,o),
(141,418,o),
(141,466,cs),
(141,652,l),
(314,652,ls),
(348,652,o),
(377,623,o),
(383,591,cs),
(384,583,o),
(384,575,o),
(385,567,cs),
(390,547,o),
(411,537,o),
(430,537,cs),
(450,537,o),
(475,550,o),
(475,573,cs),
(475,660,o),
(399,724,o),
(315,724,cs),
(96,724,ls),
(75,724,o),
(51,711,o),
(51,688,cs),
(51,465,ls),
(51,434,o),
(62,403,o),
(81,377,cs),
(137,303,o),
(214,315,o),
(297,315,cs),
(309,315,o),
(324,315,o),
(336,311,cs),
(369,300,o),
(388,267,o),
(388,234,cs),
(388,127,ls),
(388,112,o),
(384,96,o),
(376,83,cs),
(354,47,o),
(328,48,o),
(291,48,cs),
(231,48,l),
(96,48,ls),
(75,48,o),
(51,35,o),
(51,12,cs),
(51,-22,o),
(89,-24,o),
(114,-24,cs)
);
}
);
width = 529;
}
);
note = S.ss01;
},
{
color = 0;
glyphname = T.ss01;
lastChange = "2023-10-25 20:36:27 +0000";
layers = (
{
hints = (
{
horizontal = 1;
place = (675,27);
type = Stem;
},
{
horizontal = 1;
place = (-2,21);
target = up;
type = BottomGhost;
},
{
place = (221,30);
type = Stem;
}
);
layerId = m01;
shapes = (
{
closed = 1;
nodes = (
(243,-2,o),
(251,4,o),
(251,12,cs),
(251,674,l),
(299,674,o),
(347,674,o),
(395,674,cs),
(405,674,o),
(419,675,o),
(419,688,cs),
(419,696,o),
(412,702,o),
(404,702,cs),
(295,702,o),
(185,702,o),
(75,702,cs),
(65,702,o),
(51,701,o),
(51,688,cs),
(51,680,o),
(58,675,o),
(66,675,cs),
(117,675,o),
(169,674,o),
(221,674,c),
(221,12,ls),
(221,4,o),
(228,-2,o),
(236,-2,cs)
);
}
);
width = 470;
},
{
hints = (
{
horizontal = 1;
place = (652,73);
type = Stem;
},
{
horizontal = 1;
place = (-24,21);
target = up;
type = BottomGhost;
},
{
place = (221,91);
type = Stem;
}
);
layerId = "2F065738-4B59-43EB-A5F2-FD5F277958EA";
shapes = (
{
closed = 1;
nodes = (
(287,-24,o),
(299,-15,o),
(309,3,cs),
(312,8,o),
(312,248,o),
(312,267,cs),
(312,395,o),
(311,523,o),
(311,651,c),
(323,651,ls),
(349,651,o),
(374,651,o),
(399,651,cs),
(426,651,o),
(479,649,o),
(479,688,cs),
(479,711,o),
(455,724,o),
(434,724,cs),
(333,724,o),
(232,725,o),
(130,725,cs),
(104,725,o),
(51,727,o),
(51,688,cs),
(51,665,o),
(75,652,o),
(96,652,cs),
(121,652,o),
(146,652,o),
(171,652,cs),
(221,652,l),
(220,583,o),
(220,438,o),
(220,423,cs),
(220,286,o),
(221,149,o),
(221,12,cs),
(221,-11,o),
(245,-24,o),
(266,-24,cs)
);
}
);
width = 530;
}
);
note = T.ss01;
},
{
color = 0;
glyphname = V.ss01;
lastChange = "2023-10-25 20:36:27 +0000";
layers = (
{
hints = (
{
horizontal = 1;
place = (702,-20);
target = down;
type = TopGhost;
},
{
horizontal = 1;
place = (-1,21);
target = up;
type = BottomGhost;
},
{
place = (41,366);
type = Stem;
}
);
layerId = m01;
shapes = (
{
closed = 1;
nodes = (
(230,-1,o),
(237,3,o),
(239,9,cs),
(247,37,o),
(253,68,o),
(260,96,cs),
(374,554,ls),
(385,598,o),
(397,641,o),
(407,685,c),
(407,696,o),
(402,702,o),
(391,702,cs),
(385,702,o),
(379,697,o),
(378,691,cs),
(224,74,l),
(71,691,ls),
(69,698,o),
(62,702,o),
(55,702,cs),
(45,702,o),
(41,693,o),
(41,685,c),
(209,10,ls),
(211,3,o),
(217,-1,o),
(224,-1,cs)
);
}
);
width = 448;
},
{
hints = (
{
horizontal = 1;
place = (724,-20);
target = down;
type = TopGhost;
},
{
horizontal = 1;
place = (-23,21);
target = up;
type = BottomGhost;
},
{
place = (51,426);
type = Stem;
}
);
layerId = "2F065738-4B59-43EB-A5F2-FD5F277958EA";
shapes = (
{
closed = 1;
nodes = (
(284,-23,o),
(294,-16,o),
(306,-1,c),
(307,1,o),
(334,108,o),
(336,115,cs),
(372,259,o),
(407,402,o),
(443,546,cs),
(447,561,o),
(477,678,o),
(477,688,cs),
(477,711,o),
(452,724,o),
(432,724,cs),
(414,724,o),
(402,718,o),
(391,703,cs),
(387,697,o),
(357,576,o),
(353,557,cs),
(264,115,l),
(174,557,ls),
(171,576,o),
(141,697,o),
(137,703,cs),
(126,718,o),
(114,724,o),
(96,724,cs),
(76,724,o),
(51,711,o),
(51,688,cs),
(51,678,o),
(81,561,o),
(85,546,cs),
(120,402,o),
(156,259,o),
(192,115,cs),
(194,108,o),
(221,1,o),
(222,-1,c),
(234,-16,o),
(244,-23,o),
(264,-23,cs)
);
}
);
width = 528;
}
);
note = V.ss01;
},
{
color = 0;
glyphname = W.ss01;
lastChange = "2023-10-25 20:36:27 +0000";
layers = (
{
hints = (
{
horizontal = 1;
place = (702,-20);
target = down;
type = TopGhost;
},
{
horizontal = 1;
place = (701,-20);
target = down;
type = TopGhost;
},
{
horizontal = 1;
place = (-1,26);
type = Stem;
},
{
horizontal = 1;
place = (-2,28);
type = Stem;
},
{
place = (740,30);
type = Stem;
},
{
place = (404,30);
type = Stem;
},
{
place = (66,30);
type = Stem;
}
);
layerId = m01;
shapes = (
{
closed = 1;
nodes = (
(304,-2,ls),
(351,-2,o),
(396,26,o),
(419,67,c),
(441,26,o),
(484,-2,o),
(533,-2,cs),
(551,-2,o),
(569,-2,o),
(588,-1,cs),
(698,-1,ls),
(716,-1,o),
(735,-1,o),
(753,-1,cs),
(761,-1,o),
(770,3,o),
(770,13,cs),
(770,688,ls),
(770,696,o),
(762,701,o),
(755,701,cs),
(747,701,o),
(740,696,o),
(740,688,cs),
(740,475,o),
(740,262,o),
(740,50,cs),
(740,42,o),
(740,34,o),
(740,26,c),
(671,26,o),
(602,25,o),
(534,25,cs),
(477,25,o),
(437,70,o),
(433,125,c),
(434,147,o),
(434,169,o),
(434,190,cs),
(434,356,o),
(434,522,o),
(434,687,cs),
(434,688,ls),
(434,696,o),
(426,701,o),
(419,701,cs),
(411,701,o),
(404,696,o),
(404,688,cs),
(404,127,l),
(400,71,o),
(363,26,o),
(303,26,cs),
(196,26,ls),
(145,26,o),
(102,65,o),
(97,116,cs),
(94,138,o),
(96,160,o),
(96,182,cs),
(96,688,ls),
(96,696,o),
(89,702,o),
(81,702,cs),
(74,702,o),
(66,696,o),
(66,688,cs),
(66,127,ls),
(66,52,o),
(128,-2,o),
(201,-2,cs)
);
}
);
width = 835;
},
{
hints = (
{
horizontal = 1;
place = (724,-20);
target = down;
type = TopGhost;
},
{
horizontal = 1;
place = (-24,72);
type = Stem;
},
{
place = (725,90);
type = Stem;
},
{
place = (389,90);
type = Stem;
},
{
place = (51,90);
type = Stem;
}
);
layerId = "2F065738-4B59-43EB-A5F2-FD5F277958EA";
shapes = (
{
closed = 1;
nodes = (
(319,-24,ls),
(364,-24,o),
(404,-7,o),
(433,22,c),
(463,-7,o),
(505,-24,o),
(548,-24,cs),
(616,-24,o),
(683,-24,o),
(751,-24,cs),
(776,-24,o),
(815,-21,o),
(815,13,cs),
(815,688,ls),
(815,711,o),
(790,724,o),
(770,724,cs),
(750,724,o),
(734,715,o),
(726,697,cs),
(721,686,o),
(725,110,o),
(725,49,c),
(666,48,o),
(608,48,o),
(550,48,cs),
(518,48,o),
(491,72,o),
(482,101,cs),
(480,108,o),
(479,117,o),
(479,128,cs),
(479,132,o),
(479,136,o),
(479,140,cs),
(479,262,o),
(479,385,o),
(479,507,cs),
(479,562,o),
(479,617,o),
(479,672,cs),
(479,677,o),
(479,685,o),
(478,691,cs),
(476,712,o),
(453,724,o),
(434,724,cs),
(413,724,o),
(389,711,o),
(389,689,c),
(388,683,o),
(388,677,o),
(388,672,cs),
(388,608,o),
(388,544,o),
(389,480,cs),
(389,131,l),
(388,120,o),
(387,109,o),
(385,101,cs),
(376,72,o),
(349,48,o),
(317,48,cs),
(212,48,ls),
(180,48,o),
(154,72,o),
(145,101,cs),
(137,127,o),
(141,167,o),
(141,194,cs),
(141,339,l),
(141,688,ls),
(141,711,o),
(117,724,o),
(96,724,cs),
(79,724,o),
(60,716,o),
(53,699,cs),
(50,691,o),
(51,677,o),
(51,668,cs),
(51,127,ls),
(51,40,o),
(127,-24,o),
(211,-24,cs)
);
}
);
width = 865;
}
);
note = W.ss01;
},
{
color = 0;
glyphname = X.ss01;
lastChange = "2023-10-25 20:36:27 +0000";
layers = (
{
hints = (
{
horizontal = 1;
place = (675,27);
type = Stem;
},
{
horizontal = 1;
place = (-2,28);
type = Stem;
},
{
place = (21,460);
type = Stem;
}
);
layerId = m01;
shapes = (
{
closed = 1;
nodes = (
(58,-2,o),
(81,-2,o),
(103,-2,cs),
(113,-2,o),
(145,-6,o),
(150,7,cs),
(158,29,o),
(165,51,o),
(172,72,cs),
(224,223,ls),
(233,250,o),
(242,277,o),
(251,304,c),
(283,210,ls),
(298,166,o),
(309,120,o),
(330,78,cs),
(355,27,o),
(410,-2,o),
(466,-2,cs),
(473,-2,o),
(481,4,o),
(481,12,cs),
(481,30,o),
(448,26,o),
(436,28,cs),
(375,40,o),
(353,92,o),
(337,144,cs),
(267,350,l),
(303,458,o),
(340,566,o),
(377,675,c),
(459,675,ls),
(468,675,o),
(481,676,o),
(481,688,cs),
(481,696,o),
(473,702,o),
(466,702,cs),
(366,702,ls),
(360,702,o),
(354,698,o),
(352,693,cs),
(343,672,o),
(337,650,o),
(329,628,cs),
(278,478,ls),
(269,451,o),
(260,424,o),
(251,397,c),
(219,490,ls),
(204,534,o),
(193,580,o),
(173,622,cs),
(148,673,o),
(92,702,o),
(36,702,cs),
(29,702,o),
(21,696,o),
(21,688,cs),
(21,670,o),
(48,675,o),
(59,673,cs),
(126,665,o),
(147,612,o),
(165,557,cs),
(235,351,l),
(198,242,o),
(162,134,o),
(125,26,c),
(43,26,ls),
(33,26,o),
(21,25,o),
(21,12,cs),
(21,4,o),
(29,-2,o),
(36,-2,cs)
);
}
);
width = 501;
},
{
hints = (
{
horizontal = 1;
place = (652,72);
type = Stem;
},
{
horizontal = 1;
place = (-24,72);
type = Stem;
},
{
place = (51,520);
type = Stem;
}
);
layerId = "2F065738-4B59-43EB-A5F2-FD5F277958EA";
shapes = (
{
closed = 1;
nodes = (
(180,-25,o),
(182,-25,o),
(184,-25,cs),
(199,-25,o),
(216,-23,o),
(228,-13,cs),
(243,-1,o),
(256,52,o),
(263,72,cs),
(311,213,l),
(339,132,ls),
(344,115,o),
(349,97,o),
(357,81,cs),
(388,13,o),
(451,-24,o),
(526,-24,cs),
(546,-24,o),
(571,-11,o),
(571,12,cs),
(571,19,o),
(568,26,o),
(563,32,cs),
(537,64,o),
(472,24,o),
(438,113,cs),
(424,152,o),
(412,192,o),
(398,231,cs),
(358,350,l),
(460,652,l),
(505,652,ls),
(531,652,o),
(571,653,o),
(571,688,cs),
(571,711,o),
(546,724,o),
(526,724,cs),
(426,724,ls),
(410,724,o),
(394,718,o),
(386,705,cs),
(375,689,o),
(338,567,o),
(328,538,cs),
(311,488,l),
(284,568,ls),
(278,585,o),
(273,603,o),
(266,619,cs),
(234,688,o),
(171,724,o),
(96,724,cs),
(76,724,o),
(51,711,o),
(51,688,cs),
(51,681,o),
(54,674,o),
(59,668,cs),
(85,636,o),
(151,676,o),
(184,587,cs),
(198,548,o),
(211,508,o),
(224,469,cs),
(264,350,l),
(162,48,l),
(117,48,ls),
(91,48,o),
(51,47,o),
(51,12,cs),
(51,-11,o),
(75,-24,o),
(96,-24,cs),
(156,-24,ls),
(158,-24,o),
(161,-24,o),
(163,-24,cs),
(177,-25,ls)
);
}
);
width = 621;
}
);
note = X.ss01;
},
{
color = 0;
glyphname = Y.ss01;
lastChange = "2023-10-25 20:36:27 +0000";
layers = (
{
hints = (
{
horizontal = 1;
place = (702,-20);
target = down;
type = TopGhost;
},
{
horizontal = 1;
place = (701,-20);
target = down;
type = TopGhost;
},
{
horizontal = 1;
place = (336,28);
type = Stem;
},
{
horizontal = 1;
place = (-2,27);
type = Stem;
},
{
place = (404,30);
type = Stem;
},
{
place = (66,30);
type = Stem;
}
);
layerId = m01;
shapes = (
{
closed = 1;
nodes = (
(417,-1,ls),
(425,-1,o),
(434,3,o),
(434,12,cs),
(434,235,ls),
(434,286,o),
(399,326,o),
(355,347,c),
(397,366,o),
(430,405,o),
(433,453,cs),
(434,466,o),
(434,480,o),
(434,494,cs),
(434,687,ls),
(434,695,o),
(426,701,o),
(419,701,cs),
(412,701,o),
(404,695,o),
(404,687,cs),
(404,620,o),
(405,553,o),
(405,485,cs),
(405,416,o),
(375,368,o),
(304,363,c),
(279,366,o),
(250,364,o),
(226,364,cs),
(96,363,l),
(96,688,ls),
(96,696,o),
(89,702,o),
(81,702,cs),
(74,702,o),
(66,696,o),
(66,688,cs),
(66,350,ls),
(66,341,o),
(75,336,o),
(83,336,cs),
(251,337,l),
(253,336,o),
(255,336,o),
(258,336,cs),
(296,336,ls),
(348,334,o),
(404,290,o),
(404,235,cs),
(404,26,l),
(196,25,ls),
(175,25,o),
(154,33,o),
(137,45,cs),
(85,84,o),
(96,148,o),
(96,205,cs),
(96,213,o),
(89,219,o),
(81,219,cs),
(74,219,o),
(66,213,o),
(66,205,cs),
(66,127,ls),
(66,52,o),
(128,-2,o),
(201,-2,cs)
);
}
);
width = 499;
},
{
hints = (
{
horizontal = 1;
place = (724,-20);
target = down;
type = TopGhost;
},
{
horizontal = 1;
place = (723,-20);
target = down;
type = TopGhost;
},
{
horizontal = 1;
place = (314,72);
type = Stem;
},
{
horizontal = 1;
place = (-24,72);
type = Stem;
},
{
place = (389,90);
type = Stem;
},
{
place = (51,90);
type = Stem;
}
);
layerId = "2F065738-4B59-43EB-A5F2-FD5F277958EA";
shapes = (
{
closed = 1;
nodes = (
(399,-24,ls),
(427,-24,o),
(479,-28,o),
(479,12,cs),
(479,235,ls),
(479,279,o),
(453,320,o),
(419,347,c),
(447,368,o),
(467,399,o),
(476,436,cs),
(480,453,o),
(480,471,o),
(480,489,cs),
(480,508,o),
(479,528,o),
(479,547,cs),
(479,687,ls),
(479,710,o),
(454,723,o),
(434,723,cs),
(425,723,o),
(415,721,o),
(407,716,cs),
(390,706,o),
(389,695,o),
(389,677,cs),
(389,632,o),
(390,586,o),
(390,541,cs),
(390,521,o),
(390,457,o),
(385,439,cs),
(375,407,o),
(350,388,o),
(317,386,c),
(295,387,o),
(273,386,o),
(251,386,cs),
(141,386,l),
(141,688,ls),
(141,711,o),
(117,724,o),
(96,724,cs),
(79,724,o),
(61,716,o),
(54,700,cs),
(49,691,o),
(50,663,o),
(50,651,cs),
(50,551,o),
(51,450,o),
(51,350,cs),
(51,310,o),
(102,314,o),
(129,314,cs),
(266,314,l),
(273,313,o),
(280,313,o),
(286,313,cs),
(294,313,o),
(302,314,o),
(310,314,cs),
(350,311,o),
(389,275,o),
(389,234,cs),
(389,48,l),
(212,48,ls),
(198,48,o),
(184,53,o),
(173,61,cs),
(141,85,o),
(141,117,o),
(141,153,cs),
(141,205,ls),
(141,228,o),
(116,241,o),
(96,241,cs),
(69,241,o),
(51,225,o),
(51,198,cs),
(51,174,o),
(51,151,o),
(51,127,cs),
(51,40,o),
(127,-24,o),
(211,-24,cs)
);
}
);
width = 530;
}
);
note = Y.ss01;
},
{
color = 0;
glyphname = Z.ss01;
lastChange = "2023-10-25 20:36:27 +0000";
layers = (
{
hints = (
{
horizontal = 1;
place = (675,27);
type = Stem;
},
{
horizontal = 1;
place = (336,27);
type = Stem;
},
{
horizontal = 1;
place = (-2,28);
type = Stem;
},
{
place = (404,30);
type = Stem;
},
{
place = (66,30);
type = Stem;
}
);
layerId = m01;
shapes = (
{
closed = 1;
nodes = (
(406,-2,ls),
(413,-2,o),
(421,4,o),
(421,12,cs),
(421,30,o),
(394,26,o),
(382,26,cs),
(287,26,o),
(191,26,o),
(96,26,c),
(96,88,o),
(95,150,o),
(95,212,cs),
(95,268,o),
(114,321,o),
(176,334,cs),
(192,337,o),
(209,337,o),
(225,337,cs),
(251,337,o),
(278,336,o),
(304,336,cs),
(377,336,o),
(434,381,o),
(434,457,cs),
(434,688,ls),
(434,697,o),
(425,701,o),
(417,701,cs),
(196,702,ls),
(125,702,o),
(66,644,o),
(66,573,cs),
(66,564,o),
(74,560,o),
(82,560,cs),
(90,560,o),
(94,565,o),
(96,573,cs),
(98,584,o),
(98,595,o),
(102,606,cs),
(117,648,o),
(152,675,o),
(196,675,cs),
(266,675,o),
(335,675,o),
(404,674,c),
(404,452,ls),
(404,408,o),
(376,377,o),
(334,366,cs),
(315,361,o),
(293,362,o),
(274,362,cs),
(248,362,o),
(222,363,o),
(196,363,cs),
(121,363,o),
(66,304,o),
(66,230,cs),
(66,12,ls),
(66,0,o),
(80,-2,o),
(90,-2,cs)
);
}
);
width = 500;
},
{
hints = (
{
horizontal = 1;
place = (652,72);
type = Stem;
},
{
horizontal = 1;
place = (313,72);
type = Stem;
},
{
horizontal = 1;
place = (-25,73);
type = Stem;
},
{
place = (389,90);
type = Stem;
},
{
place = (51,90);
type = Stem;
}
);
layerId = "2F065738-4B59-43EB-A5F2-FD5F277958EA";
shapes = (
{
closed = 1;
nodes = (
(228,-25,o),
(324,-24,o),
(421,-24,cs),
(441,-24,o),
(466,-11,o),
(466,12,cs),
(466,29,o),
(452,40,o),
(438,45,cs),
(420,52,o),
(186,48,o),
(143,48,cs),
(141,48,l),
(141,104,o),
(140,159,o),
(140,214,cs),
(140,256,o),
(152,302,o),
(199,312,cs),
(212,315,o),
(226,314,o),
(239,314,cs),
(266,314,o),
(292,313,o),
(319,313,cs),
(401,313,o),
(479,364,o),
(479,452,cs),
(479,688,ls),
(479,723,o),
(435,724,o),
(410,724,cs),
(394,724,o),
(378,724,o),
(361,724,cs),
(211,724,ls),
(127,724,o),
(51,660,o),
(51,573,cs),
(51,550,o),
(75,537,o),
(96,537,cs),
(115,537,o),
(136,547,o),
(140,567,cs),
(142,575,o),
(141,583,o),
(143,590,cs),
(149,623,o),
(178,652,o),
(212,652,cs),
(271,652,o),
(330,652,o),
(389,652,c),
(389,453,ls),
(389,418,o),
(368,392,o),
(333,386,cs),
(317,384,o),
(301,385,o),
(285,385,cs),
(260,385,o),
(235,386,o),
(211,386,cs),
(127,386,o),
(51,322,o),
(51,235,cs),
(51,12,ls),
(51,-27,o),
(105,-25,o),
(131,-25,cs)
);
}
);
width = 530;
}
);
note = Z.ss01;
},
{
color = 0;
glyphname = A.ss02;
lastChange = "2023-10-25 20:36:27 +0000";
layers = (
{
hints = (
{
horizontal = 1;
place = (675,27);
type = Stem;
},
{
horizontal = 1;
place = (336,27);
type = Stem;
},
{
horizontal = 1;
place = (-2,21);
target = up;
type = BottomGhost;
},
{
place = (404,30);
type = Stem;
},
{
place = (66,30);
type = Stem;
}
);
layerId = m01;
shapes = (
{
closed = 1;
nodes = (
(88,-2,o),
(96,4,o),
(96,12,cs),
(96,120,o),
(96,228,o),
(96,336,c),
(165,336,o),
(234,336,o),
(304,336,cs),
(347,336,o),
(382,310,o),
(397,269,cs),
(401,257,o),
(401,246,o),
(404,234,c),
(404,12,ls),
(404,4,o),
(411,-2,o),
(419,-2,cs),
(426,-2,o),
(434,4,o),
(434,12,cs),
(434,688,ls),
(434,697,o),
(425,701,o),
(417,701,cs),
(399,701,o),
(380,701,o),
(362,701,cs),
(251,702,ls),
(233,702,o),
(214,702,o),
(196,702,cs),
(121,702,o),
(66,642,o),
(66,568,cs),
(66,12,ls),
(66,4,o),
(74,-2,o),
(81,-2,cs)
);
},
{
closed = 1;
nodes = (
(379,346,o),
(340,363,o),
(299,363,cs),
(231,363,o),
(163,363,o),
(96,363,c),
(95,428,o),
(95,493,o),
(95,558,cs),
(95,577,o),
(96,595,o),
(104,613,cs),
(120,650,o),
(156,675,o),
(196,675,cs),
(265,675,o),
(335,675,o),
(404,674,c),
(404,317,l)
);
}
);
width = 499;
},
{
hints = (
{
horizontal = 1;
place = (652,72);
type = Stem;
},
{
horizontal = 1;
place = (314,72);
type = Stem;
},
{
horizontal = 1;
place = (-24,21);
target = up;
type = BottomGhost;
},
{
place = (389,90);
type = Stem;
},
{
place = (51,90);
type = Stem;
}
);
layerId = "2F065738-4B59-43EB-A5F2-FD5F277958EA";
shapes = (
{
closed = 1;
nodes = (
(113,-24,o),
(130,-16,o),
(138,0,cs),
(142,7,o),
(141,19,o),
(141,28,cs),
(141,123,o),
(141,218,o),
(141,313,c),
(318,314,ls),
(356,314,o),
(386,279,o),
(388,243,cs),
(388,211,o),
(388,9,o),
(390,3,cs),
(398,-15,o),
(415,-24,o),
(434,-24,cs),
(454,-24,o),
(479,-11,o),
(479,12,cs),
(479,688,ls),
(479,724,o),
(435,724,o),
(410,724,cs),
(211,724,ls),
(127,724,o),
(51,660,o),
(51,573,cs),
(51,12,ls),
(51,-11,o),
(75,-24,o),
(96,-24,cs)
);
},
{
closed = 1;
nodes = (
(367,380,o),
(343,386,o),
(319,386,cs),
(140,386,l),
(140,435,o),
(140,485,o),
(140,534,cs),
(140,551,o),
(140,583,o),
(145,599,cs),
(154,628,o),
(180,652,o),
(212,652,cs),
(271,652,o),
(330,652,o),
(389,652,c),
(389,558,o),
(388,464,o),
(388,371,c)
);
}
);
width = 529;
}
);
note = A.ss02;
},
{
color = 0;
glyphname = B.ss02;
lastChange = "2023-10-25 20:36:27 +0000";
layers = (
{
hints = (
{
place = (675,27);
type = Stem;
},
{
place = (404,30);
type = Stem;
},
{
place = (337,27);
type = Stem;
},
{
place = (66,30);
type = Stem;
},
{
place = (-1,27);
type = Stem;
}
);
layerId = m01;
shapes = (
{
closed = 1;
nodes = (
(304,-1,ls),
(379,-1,o),
(434,58,o),
(434,132,cs),
(434,235,ls),
(434,287,o),
(404,328,o),
(361,350,c),
(405,371,o),
(434,418,o),
(434,470,cs),
(434,574,ls),
(434,649,o),
(372,702,o),
(299,702,cs),
(83,702,ls),
(75,702,o),
(66,698,o),
(66,688,cs),
(66,239,ls),
(66,237,o),
(66,236,o),
(66,233,cs),
(66,12,ls),
(66,4,o),
(74,-1,o),
(81,-1,cs)
);
},
{
closed = 1;
nodes = (
(96,235,l),
(98,244,o),
(98,253,o),
(101,262,cs),
(118,327,o),
(168,337,o),
(225,337,cs),
(248,337,o),
(270,337,o),
(293,337,cs),
(303,337,o),
(314,337,o),
(324,335,cs),
(370,325,o),
(404,282,o),
(404,235,cs),
(404,127,ls),
(404,72,o),
(359,26,o),
(304,26,cs),
(96,26,l)
);
},
{
closed = 1;
nodes = (
(96,675,l),
(304,675,ls),
(359,675,o),
(404,629,o),
(404,573,cs),
(404,466,ls),
(404,420,o),
(377,383,o),
(333,370,cs),
(323,366,o),
(314,366,o),
(303,364,c),
(278,365,o),
(247,364,o),
(228,364,cs),
(175,364,o),
(133,361,o),
(96,316,c)
);
}
);
width = 499;
},
{
hints = (
{
horizontal = 1;
place = (652,72);
type = Stem;
},
{
horizontal = 1;
place = (315,72);
type = Stem;
},
{
horizontal = 1;
place = (-24,72);
type = Stem;
},
{
place = (389,90);
type = Stem;
},
{
place = (51,90);
type = Stem;
}
);
layerId = "2F065738-4B59-43EB-A5F2-FD5F277958EA";
shapes = (
{
closed = 1;
nodes = (
(319,-24,ls),
(403,-24,o),
(479,40,o),
(479,127,cs),
(479,235,ls),
(479,282,o),
(456,323,o),
(422,350,c),
(456,377,o),
(479,418,o),
(479,466,cs),
(479,574,ls),
(479,660,o),
(403,724,o),
(319,724,cs),
(114,724,ls),
(89,724,o),
(51,722,o),
(51,688,cs),
(51,241,ls),
(51,239,o),
(51,237,o),
(51,235,cs),
(51,234,o),
(51,233,o),
(51,232,cs),
(51,12,ls),
(51,-11,o),
(76,-24,o),
(96,-24,cs)
);
},
{
closed = 1;
nodes = (
(141,234,l),
(142,240,o),
(142,246,o),
(143,252,cs),
(145,267,o),
(154,283,o),
(165,293,cs),
(184,312,o),
(201,314,o),
(227,314,cs),
(254,314,o),
(282,315,o),
(309,315,cs),
(356,315,o),
(389,282,o),
(389,234,cs),
(389,128,ls),
(389,88,o),
(360,48,o),
(318,48,cs),
(141,48,l)
);
},
{
closed = 1;
nodes = (
(141,652,l),
(318,652,ls),
(360,652,o),
(389,613,o),
(389,573,cs),
(389,466,ls),
(389,434,o),
(369,399,o),
(337,389,cs),
(330,387,o),
(323,387,o),
(315,387,cs),
(289,388,o),
(259,387,o),
(238,387,cs),
(202,387,o),
(174,385,o),
(141,370,c)
);
}
);
width = 529;
}
);
note = B.ss02;
},
{
color = 0;
glyphname = C.ss02;
lastChange = "2023-10-25 20:36:27 +0000";
layers = (
{
hints = (
{
horizontal = 1;
place = (680,28);
type = Stem;
},
{
horizontal = 1;
place = (-2,27);
type = Stem;
},
{
place = (66,30);
type = Stem;
}
);
layerId = m01;
shapes = (
{
closed = 1;
nodes = (
(399,-2,ls),
(406,-2,o),
(414,4,o),
(414,12,cs),
(414,26,o),
(396,27,o),
(386,27,cs),
(379,27,o),
(372,26,o),
(364,26,cs),
(219,25,ls),
(173,25,o),
(138,31,o),
(112,73,cs),
(102,89,o),
(96,108,o),
(96,127,cs),
(96,579,ls),
(96,599,o),
(102,617,o),
(112,634,cs),
(139,678,o),
(176,681,o),
(224,681,cs),
(278,681,o),
(332,680,o),
(387,680,cs),
(396,680,o),
(414,681,o),
(414,695,cs),
(414,703,o),
(407,708,o),
(399,708,cs),
(196,708,ls),
(121,708,o),
(66,648,o),
(66,575,cs),
(66,127,ls),
(66,52,o),
(128,-2,o),
(201,-2,cs)
);
}
);
width = 455;
},
{
hints = (
{
horizontal = 1;
place = (659,72);
type = Stem;
},
{
horizontal = 1;
place = (-24,71);
type = Stem;
},
{
place = (51,90);
type = Stem;
}
);
layerId = "2F065738-4B59-43EB-A5F2-FD5F277958EA";
shapes = (
{
closed = 1;
nodes = (
(414,-24,ls),
(434,-24,o),
(459,-11,o),
(459,12,cs),
(459,32,o),
(440,45,o),
(422,47,cs),
(412,49,o),
(401,48,o),
(391,48,cs),
(351,48,o),
(312,47,o),
(272,47,cs),
(258,47,o),
(205,47,o),
(193,51,cs),
(161,61,o),
(141,94,o),
(141,128,cs),
(141,579,ls),
(141,612,o),
(161,645,o),
(193,656,cs),
(205,660,o),
(258,659,o),
(272,659,cs),
(317,659,o),
(363,658,o),
(408,658,cs),
(430,658,o),
(459,668,o),
(459,695,cs),
(459,718,o),
(435,731,o),
(414,731,cs),
(211,731,ls),
(127,731,o),
(51,666,o),
(51,580,cs),
(51,127,ls),
(51,40,o),
(127,-24,o),
(211,-24,cs)
);
}
);
width = 510;
}
);
note = C.ss02;
},
{
color = 0;
glyphname = E.ss02;
lastChange = "2023-10-25 20:36:27 +0000";
layers = (
{
hints = (
{
place = (675,27);
type = Stem;
},
{
place = (337,27);
type = Stem;
},
{
place = (66,30);
type = Stem;
},
{
place = (-1,27);
type = Stem;
}
);
layerId = m01;
shapes = (
{
closed = 1;
nodes = (
(304,-1,ls),
(375,-1,o),
(434,56,o),
(434,128,cs),
(434,136,o),
(425,141,o),
(418,141,cs),
(410,141,o),
(405,135,o),
(404,128,cs),
(402,117,o),
(402,108,o),
(399,97,cs),
(385,54,o),
(349,26,o),
(304,26,cs),
(196,26,ls),
(141,26,o),
(96,72,o),
(96,127,cs),
(96,235,ls),
(96,280,o),
(123,317,o),
(166,331,cs),
(176,334,o),
(186,335,o),
(199,337,c),
(225,335,o),
(253,337,o),
(279,337,cs),
(290,337,o),
(387,337,o),
(390,338,cs),
(396,341,o),
(400,344,o),
(400,351,cs),
(400,358,o),
(396,361,o),
(390,364,cs),
(385,366,o),
(233,364,o),
(208,364,cs),
(198,364,o),
(187,364,o),
(176,366,cs),
(130,376,o),
(96,419,o),
(96,466,cs),
(96,573,ls),
(96,629,o),
(141,675,o),
(197,675,cs),
(304,675,ls),
(350,675,o),
(386,646,o),
(399,603,cs),
(402,593,o),
(402,583,o),
(404,573,cs),
(405,565,o),
(411,560,o),
(420,560,cs),
(427,560,o),
(434,566,o),
(434,574,cs),
(434,649,o),
(371,702,o),
(299,702,cs),
(196,702,ls),
(121,702,o),
(66,642,o),
(66,569,cs),
(66,466,ls),
(66,418,o),
(96,371,o),
(138,350,c),
(94,329,o),
(66,283,o),
(66,230,cs),
(66,127,ls),
(66,52,o),
(128,-1,o),
(201,-1,cs)
);
}
);
width = 499;
},
{
hints = (
{
horizontal = 1;
place = (652,72);
type = Stem;
},
{
horizontal = 1;
place = (315,71);
type = Stem;
},
{
horizontal = 1;
place = (-24,72);
type = Stem;
},
{
place = (389,89);
type = Stem;
},
{
place = (50,90);
type = Stem;
}
);
layerId = "2F065738-4B59-43EB-A5F2-FD5F277958EA";
shapes = (
{
closed = 1;
nodes = (
(318,-24,ls),
(402,-24,o),
(478,40,o),
(478,127,cs),
(478,150,o),
(453,163,o),
(433,163,cs),
(414,163,o),
(393,153,o),
(389,133,cs),
(387,126,o),
(388,118,o),
(386,110,cs),
(380,77,o),
(351,48,o),
(317,48,cs),
(211,48,ls),
(169,48,o),
(140,88,o),
(140,128,cs),
(140,234,ls),
(140,267,o),
(160,302,o),
(192,311,cs),
(200,314,o),
(209,313,o),
(217,314,cs),
(220,314,o),
(223,314,o),
(227,314,cs),
(277,314,o),
(327,315,o),
(377,315,cs),
(403,315,o),
(444,316,o),
(444,351,cs),
(444,378,o),
(415,387,o),
(393,387,cs),
(336,387,o),
(278,386,o),
(220,386,cs),
(173,386,o),
(140,419,o),
(140,466,cs),
(140,573,ls),
(140,613,o),
(169,652,o),
(211,652,cs),
(317,652,ls),
(351,652,o),
(380,624,o),
(386,591,cs),
(388,583,o),
(387,575,o),
(389,567,cs),
(393,548,o),
(414,538,o),
(433,538,cs),
(453,538,o),
(478,551,o),
(478,574,cs),
(478,660,o),
(402,724,o),
(318,724,cs),
(210,724,ls),
(126,724,o),
(50,660,o),
(50,574,cs),
(50,466,ls),
(50,419,o),
(73,378,o),
(107,350,c),
(73,323,o),
(50,283,o),
(50,235,cs),
(50,127,ls),
(50,40,o),
(126,-24,o),
(210,-24,cs)
);
}
);
width = 528;
}
);
note = E.ss02;
},
{
color = 0;
glyphname = F.ss02;
lastChange = "2023-10-25 20:36:27 +0000";
layers = (
{
hints = (
{
horizontal = 1;
place = (675,27);
type = Stem;
},
{
horizontal = 1;
place = (336,27);
type = Stem;
},
{
horizontal = 1;
place = (-2,21);
target = up;
type = BottomGhost;
},
{
place = (66,30);
type = Stem;
}
);
layerId = m01;
shapes = (
{
closed = 1;
nodes = (
(88,-2,o),
(96,4,o),
(96,12,cs),
(96,87,o),
(96,161,o),
(96,236,c),
(100,280,o),
(122,317,o),
(167,331,cs),
(186,337,o),
(251,337,o),
(273,337,cs),
(307,337,o),
(342,336,o),
(377,336,cs),
(385,336,o),
(395,339,o),
(395,349,cs),
(395,357,o),
(387,363,o),
(380,363,cs),
(196,363,ls),
(155,363,o),
(120,345,o),
(96,316,c),
(96,436,o),
(97,555,o),
(97,675,c),
(304,675,ls),
(348,675,o),
(383,649,o),
(398,608,cs),
(402,596,o),
(403,585,o),
(405,572,cs),
(407,564,o),
(412,559,o),
(421,559,cs),
(428,559,o),
(435,566,o),
(435,573,cs),
(435,649,o),
(372,702,o),
(300,702,cs),
(82,702,ls),
(75,702,o),
(67,696,o),
(67,688,cs),
(66,239,ls),
(66,236,o),
(66,232,o),
(66,229,cs),
(66,126,ls),
(66,125,o),
(66,124,o),
(66,123,cs),
(66,12,ls),
(66,4,o),
(74,-2,o),
(81,-2,cs)
);
}
);
width = 475;
},
{
hints = (
{
horizontal = 1;
place = (652,72);
type = Stem;
},
{
horizontal = 1;
place = (313,72);
type = Stem;
},
{
horizontal = 1;
place = (-24,21);
target = up;
type = BottomGhost;
},
{
place = (388,92);
type = Stem;
},
{
place = (51,91);
type = Stem;
}
);
layerId = "2F065738-4B59-43EB-A5F2-FD5F277958EA";
shapes = (
{
closed = 1;
nodes = (
(116,-24,o),
(131,-15,o),
(139,3,cs),
(141,7,o),
(142,116,o),
(142,242,c),
(147,288,o),
(176,314,o),
(222,314,cs),
(234,314,o),
(247,314,o),
(260,314,cs),
(337,313,ls),
(350,313,o),
(363,313,o),
(376,313,cs),
(401,313,o),
(440,316,o),
(440,349,cs),
(440,372,o),
(415,385,o),
(395,385,cs),
(211,385,ls),
(187,385,o),
(164,380,o),
(142,370,c),
(142,492,o),
(142,603,o),
(142,635,cs),
(142,652,l),
(318,652,ls),
(354,652,o),
(382,623,o),
(388,590,cs),
(390,582,o),
(389,574,o),
(391,567,cs),
(396,547,o),
(416,537,o),
(435,537,cs),
(455,537,o),
(480,550,o),
(480,573,cs),
(480,660,o),
(404,724,o),
(320,724,cs),
(97,724,ls),
(78,724,o),
(62,715,o),
(54,697,cs),
(50,690,o),
(51,329,o),
(51,297,cs),
(51,12,ls),
(51,-11,o),
(76,-24,o),
(96,-24,cs)
);
}
);
width = 530;
}
);
note = F.ss02;
},
{
color = 0;
glyphname = G.ss02;
lastChange = "2023-10-25 20:36:27 +0000";
layers = (
{
hints = (
{
horizontal = 1;
place = (676,26);
type = Stem;
},
{
horizontal = 1;
place = (337,27);
type = Stem;
},
{
horizontal = 1;
place = (-2,27);
type = Stem;
},
{
place = (404,30);
type = Stem;
},
{
place = (66,30);
type = Stem;
}
);
layerId = m01;
shapes = (
{
closed = 1;
nodes = (
(304,-2,ls),
(379,-2,o),
(434,58,o),
(434,132,cs),
(434,234,ls),
(434,293,o),
(389,349,o),
(330,360,cs),
(308,364,o),
(285,364,o),
(262,364,cs),
(252,364,o),
(235,365,o),
(235,350,cs),
(235,332,o),
(270,337,o),
(282,337,cs),
(345,337,o),
(404,305,o),
(404,234,cs),
(404,127,ls),
(404,72,o),
(359,25,o),
(303,25,cs),
(196,25,ls),
(141,25,o),
(96,72,o),
(96,127,cs),
(96,310,o),
(96,492,o),
(96,675,c),
(158,675,o),
(220,676,o),
(281,676,cs),
(295,676,o),
(310,675,o),
(324,673,cs),
(361,665,o),
(388,639,o),
(399,602,cs),
(402,592,o),
(402,583,o),
(404,573,cs),
(406,564,o),
(410,560,o),
(419,560,cs),
(427,560,o),
(434,566,o),
(434,574,cs),
(434,638,o),
(381,696,o),
(317,701,cs),
(303,702,o),
(289,702,o),
(275,702,cs),
(81,702,ls),
(74,702,o),
(66,696,o),
(66,688,cs),
(66,501,o),
(66,314,o),
(66,127,cs),
(66,52,o),
(128,-2,o),
(201,-2,cs)
);
}
);
width = 499;
},
{
hints = (
{
horizontal = 1;
place = (653,72);
type = Stem;
},
{
horizontal = 1;
place = (314,72);
type = Stem;
},
{
horizontal = 1;
place = (-24,72);
type = Stem;
},
{
place = (389,90);
type = Stem;
},
{
place = (51,90);
type = Stem;
}
);
layerId = "2F065738-4B59-43EB-A5F2-FD5F277958EA";
shapes = (
{
closed = 1;
nodes = (
(319,-24,ls),
(403,-24,o),
(479,40,o),
(479,127,cs),
(479,234,ls),
(479,307,o),
(423,366,o),
(353,381,cs),
(333,386,o),
(311,386,o),
(290,386,cs),
(264,386,o),
(220,387,o),
(220,350,cs),
(220,342,o),
(223,335,o),
(228,329,cs),
(246,309,o),
(278,314,o),
(302,314,cs),
(351,314,o),
(389,286,o),
(389,233,cs),
(389,127,ls),
(389,88,o),
(360,48,o),
(317,48,cs),
(212,48,ls),
(170,48,o),
(141,88,o),
(141,127,cs),
(141,302,o),
(141,477,o),
(141,652,c),
(195,652,o),
(248,653,o),
(302,653,cs),
(309,653,o),
(317,653,o),
(325,652,cs),
(360,647,o),
(384,616,o),
(388,582,cs),
(390,564,o),
(390,554,o),
(407,544,cs),
(415,539,o),
(424,537,o),
(434,537,cs),
(454,537,o),
(479,550,o),
(479,573,cs),
(479,646,o),
(422,708,o),
(352,721,cs),
(333,724,o),
(313,725,o),
(294,725,cs),
(228,725,o),
(162,724,o),
(96,724,cs),
(78,724,o),
(61,716,o),
(53,699,cs),
(50,692,o),
(51,676,o),
(51,668,cs),
(51,613,o),
(51,558,o),
(51,503,cs),
(51,127,ls),
(51,40,o),
(127,-24,o),
(211,-24,cs)
);
}
);
width = 529;
}
);
note = G.ss02;
},
{
color = 0;
glyphname = K.ss02;
lastChange = "2023-10-25 20:36:27 +0000";
layers = (
{
hints = (
{
horizontal = 1;
place = (705,-20);
target = down;
type = TopGhost;
},
{
horizontal = 1;
place = (337,27);
type = Stem;
},
{
horizontal = 1;
place = (-6,32);
type = Stem;
},
{
horizontal = 1;
place = (-2,21);
target = up;
type = BottomGhost;
},
{
place = (404,30);
type = Stem;
},
{
place = (66,30);
type = Stem;
}
);
layerId = m01;
shapes = (
{
closed = 1;
nodes = (
(378,-6,o),
(434,55,o),
(434,128,cs),
(434,235,ls),
(434,299,o),
(381,358,o),
(317,362,cs),
(297,364,o),
(276,364,o),
(256,364,c),
(294,398,o),
(315,457,o),
(336,501,cs),
(344,519,o),
(418,671,o),
(418,679,cs),
(418,688,o),
(409,692,o),
(402,692,cs),
(397,692,o),
(391,689,o),
(389,684,cs),
(312,519,ls),
(294,483,o),
(267,415,o),
(241,388,cs),
(223,369,o),
(211,367,o),
(185,364,c),
(155,364,o),
(126,364,o),
(96,364,c),
(96,691,ls),
(96,699,o),
(88,705,o),
(81,705,cs),
(74,705,o),
(66,699,o),
(66,691,cs),
(66,12,ls),
(66,4,o),
(74,-2,o),
(81,-2,cs),
(88,-2,o),
(96,4,o),
(96,12,cs),
(96,337,l),
(98,337,o),
(101,337,o),
(103,337,cs),
(186,337,ls),
(187,337,o),
(187,337,o),
(188,337,cs),
(189,337,o),
(191,337,o),
(192,337,cs),
(256,337,ls),
(278,337,o),
(302,339,o),
(324,334,cs),
(374,323,o),
(404,280,o),
(404,230,cs),
(404,224,o),
(404,218,o),
(404,212,cs),
(404,175,l),
(405,169,o),
(405,163,o),
(405,157,cs),
(405,98,o),
(398,46,o),
(331,26,cs),
(322,23,o),
(313,23,o),
(303,21,cs),
(295,20,o),
(289,16,o),
(289,7,cs),
(289,-1,o),
(297,-6,o),
(304,-6,cs)
);
}
);
width = 499;
},
{
hints = (
{
horizontal = 1;
place = (315,71);
type = Stem;
},
{
horizontal = 1;
place = (-24,21);
target = up;
type = BottomGhost;
},
{
place = (390,89);
type = Stem;
},
{
place = (51,90);
type = Stem;
}
);
layerId = "2F065738-4B59-43EB-A5F2-FD5F277958EA";
shapes = (
{
closed = 1;
nodes = (
(403,-28,o),
(479,36,o),
(479,123,cs),
(479,235,ls),
(479,308,o),
(422,369,o),
(352,382,cs),
(343,384,o),
(333,385,o),
(324,386,c),
(339,408,o),
(351,434,o),
(363,461,cs),
(413,567,ls),
(422,585,o),
(463,666,o),
(463,679,cs),
(463,702,o),
(438,715,o),
(418,715,cs),
(404,715,o),
(390,710,o),
(381,700,cs),
(372,690,o),
(354,646,o),
(348,632,cs),
(285,497,ls),
(271,469,o),
(260,439,o),
(241,413,cs),
(230,397,o),
(221,388,o),
(202,387,cs),
(141,386,l),
(141,691,ls),
(141,714,o),
(116,727,o),
(96,727,cs),
(75,727,o),
(51,714,o),
(51,691,cs),
(51,12,ls),
(51,-11,o),
(75,-24,o),
(96,-24,cs),
(116,-24,o),
(141,-11,o),
(141,12,cs),
(141,313,l),
(153,314,o),
(164,314,o),
(172,314,cs),
(216,314,o),
(259,315,o),
(303,315,cs),
(401,315,o),
(390,228,o),
(390,158,cs),
(390,126,o),
(391,96,o),
(370,70,cs),
(361,60,o),
(349,51,o),
(336,47,cs),
(327,44,o),
(317,45,o),
(307,43,cs),
(290,39,o),
(274,26,o),
(274,8,cs),
(274,-15,o),
(298,-28,o),
(319,-28,cs)
);
}
);
width = 529;
}
);
note = K.ss02;
},
{
color = 0;
glyphname = P.ss02;
lastChange = "2023-10-25 20:36:27 +0000";
layers = (
{
hints = (
{
horizontal = 1;
place = (675,27);
type = Stem;
},
{
horizontal = 1;
place = (336,28);
type = Stem;
},
{
horizontal = 1;
place = (-2,21);
target = up;
type = BottomGhost;
},
{
place = (404,30);
type = Stem;
},
{
place = (66,30);
type = Stem;
}
);
layerId = m01;
shapes = (
{
closed = 1;
nodes = (
(88,-2,o),
(96,4,o),
(96,12,cs),
(96,234,l),
(98,243,o),
(98,252,o),
(100,261,cs),
(111,299,o),
(138,326,o),
(176,334,cs),
(192,337,o),
(208,336,o),
(223,336,cs),
(269,336,ls),
(285,336,o),
(300,337,o),
(316,338,cs),
(385,342,o),
(434,404,o),
(434,470,cs),
(434,573,ls),
(434,648,o),
(372,702,o),
(299,702,cs),
(233,702,ls),
(217,702,o),
(200,702,o),
(184,701,cs),
(149,699,o),
(117,680,o),
(96,654,c),
(96,688,ls),
(96,696,o),
(88,702,o),
(81,702,cs),
(74,702,o),
(66,696,o),
(66,688,cs),
(66,12,ls),
(66,4,o),
(74,-2,o),
(81,-2,cs)
);
},
{
closed = 1;
nodes = (
(96,573,l),
(98,582,o),
(98,591,o),
(100,600,cs),
(111,637,o),
(138,664,o),
(176,673,cs),
(194,676,o),
(214,676,o),
(232,676,cs),
(238,676,o),
(244,675,o),
(250,675,cs),
(286,675,ls),
(292,675,o),
(298,675,o),
(304,675,cs),
(359,675,o),
(404,628,o),
(404,573,cs),
(404,466,ls),
(404,444,o),
(397,423,o),
(384,406,cs),
(346,355,o),
(294,364,o),
(237,364,cs),
(219,364,o),
(201,364,o),
(183,363,cs),
(148,361,o),
(117,342,o),
(96,316,c)
);
}
);
width = 499;
},
{
hints = (
{
horizontal = 1;
place = (652,72);
type = Stem;
},
{
horizontal = 1;
place = (314,72);
type = Stem;
},
{
horizontal = 1;
place = (-24,21);
target = up;
type = BottomGhost;
},
{
place = (389,90);
type = Stem;
},
{
place = (51,90);
type = Stem;
}
);
layerId = "2F065738-4B59-43EB-A5F2-FD5F277958EA";
shapes = (
{
closed = 1;
nodes = (
(116,-24,o),
(141,-11,o),
(141,12,cs),
(141,232,l),
(142,239,o),
(141,246,o),
(143,252,c),
(147,274,o),
(163,297,o),
(184,307,cs),
(206,318,o),
(261,314,o),
(288,314,cs),
(350,314,o),
(397,321,o),
(442,369,cs),
(465,395,o),
(479,430,o),
(479,465,cs),
(479,573,ls),
(479,660,o),
(403,724,o),
(319,724,cs),
(220,724,ls),
(189,724,o),
(163,720,o),
(135,706,c),
(127,718,o),
(110,724,o),
(96,724,cs),
(75,724,o),
(51,711,o),
(51,688,cs),
(51,12,ls),
(51,-11,o),
(75,-24,o),
(96,-24,cs)
);
},
{
closed = 1;
nodes = (
(141,571,l),
(142,577,o),
(141,584,o),
(143,590,c),
(148,619,o),
(171,644,o),
(199,651,cs),
(214,654,o),
(231,653,o),
(245,653,cs),
(269,653,o),
(294,652,o),
(318,652,cs),
(359,652,o),
(389,612,o),
(389,573,cs),
(389,466,ls),
(389,433,o),
(368,400,o),
(336,389,cs),
(319,384,o),
(297,386,o),
(280,386,cs),
(229,386,o),
(182,388,o),
(141,371,c)
);
}
);
width = 529;
}
);
note = P.ss02;
},
{
color = 0;
glyphname = Q.ss02;
lastChange = "2023-10-25 20:36:27 +0000";
layers = (
{
hints = (
{
horizontal = 1;
place = (675,27);
type = Stem;
},
{
horizontal = 1;
place = (-1,27);
type = Stem;
},
{
horizontal = 1;
place = (-2,28);
type = Stem;
},
{
place = (404,30);
type = Stem;
},
{
place = (66,30);
type = Stem;
}
);
layerId = m01;
shapes = (
{
closed = 1;
nodes = (
(428,-120,o),
(434,-113,o),
(434,-106,cs),
(434,-98,o),
(427,-94,o),
(420,-93,cs),
(411,-91,o),
(402,-91,o),
(393,-88,cs),
(350,-77,o),
(325,-43,o),
(321,-1,c),
(387,7,o),
(434,64,o),
(434,132,cs),
(434,573,ls),
(434,648,o),
(372,702,o),
(299,702,cs),
(196,702,ls),
(123,702,o),
(66,643,o),
(66,571,cs),
(66,127,ls),
(66,52,o),
(128,-2,o),
(201,-2,cs),
(290,-2,l),
(295,-68,o),
(353,-120,o),
(420,-120,cs)
);
},
{
closed = 1;
nodes = (
(141,26,o),
(96,72,o),
(96,127,cs),
(96,573,ls),
(96,628,o),
(141,675,o),
(196,675,cs),
(304,675,ls),
(359,675,o),
(404,628,o),
(404,573,cs),
(404,127,ls),
(404,72,o),
(359,26,o),
(304,26,cs),
(196,26,ls)
);
}
);
width = 500;
},
{
hints = (
{
horizontal = 1;
place = (652,72);
type = Stem;
},
{
horizontal = 1;
place = (-24,72);
type = Stem;
},
{
horizontal = 1;
place = (-17,21);
target = up;
type = BottomGhost;
},
{
place = (389,90);
type = Stem;
},
{
place = (51,90);
type = Stem;
}
);
layerId = "2F065738-4B59-43EB-A5F2-FD5F277958EA";
shapes = (
{
closed = 1;
nodes = (
(455,-142,o),
(479,-129,o),
(479,-106,cs),
(479,-87,o),
(461,-74,o),
(444,-71,cs),
(437,-70,o),
(429,-70,o),
(422,-69,cs),
(396,-64,o),
(376,-41,o),
(368,-17,c),
(431,3,o),
(479,57,o),
(479,127,cs),
(479,573,ls),
(479,660,o),
(403,724,o),
(319,724,cs),
(211,724,ls),
(127,724,o),
(51,660,o),
(51,573,cs),
(51,127,ls),
(51,40,o),
(127,-24,o),
(211,-24,cs),
(278,-24,l),
(294,-94,o),
(361,-142,o),
(434,-142,cs)
);
},
{
closed = 1;
nodes = (
(170,48,o),
(141,88,o),
(141,128,cs),
(141,572,ls),
(141,612,o),
(170,652,o),
(212,652,cs),
(318,652,ls),
(360,652,o),
(389,612,o),
(389,572,cs),
(389,128,ls),
(389,88,o),
(360,48,o),
(318,48,cs),
(212,48,ls)
);
}
);
width = 530;
}
);
note = Q.ss02;
},
{
color = 0;
glyphname = R.ss02;
lastChange = "2023-10-25 20:36:27 +0000";
layers = (
{
hints = (
{
horizontal = 1;
place = (675,27);
type = Stem;
},
{
horizontal = 1;
place = (336,27);
type = Stem;
},
{
horizontal = 1;
place = (-2,21);
target = up;
type = BottomGhost;
},
{
place = (404,30);
type = Stem;
},
{
place = (66,30);
type = Stem;
}
);
layerId = m01;
shapes = (
{
closed = 1;
nodes = (
(379,-5,o),
(434,55,o),
(434,128,cs),
(434,134,o),
(434,140,o),
(434,146,cs),
(435,180,ls),
(435,186,o),
(435,192,o),
(435,198,cs),
(435,263,o),
(428,318,o),
(361,350,c),
(405,371,o),
(434,417,o),
(434,470,cs),
(434,573,ls),
(434,649,o),
(372,702,o),
(299,702,cs),
(83,701,ls),
(75,701,o),
(66,697,o),
(66,688,cs),
(66,12,ls),
(66,4,o),
(74,-2,o),
(81,-2,cs),
(88,-2,o),
(96,4,o),
(96,12,cs),
(96,336,l),
(303,336,ls),
(324,336,o),
(345,330,o),
(361,318,cs),
(405,285,o),
(404,248,o),
(404,198,cs),
(404,124,ls),
(404,63,o),
(360,27,o),
(303,22,cs),
(295,21,o),
(289,17,o),
(289,8,cs),
(289,-1,o),
(297,-5,o),
(305,-5,cs)
);
},
{
closed = 1;
nodes = (
(96,674,l),
(304,675,ls),
(359,675,o),
(404,628,o),
(404,573,cs),
(404,466,ls),
(404,422,o),
(378,385,o),
(337,370,cs),
(325,366,o),
(315,366,o),
(303,364,c),
(303,364,o),
(302,364,o),
(301,363,c),
(300,363,o),
(300,363,o),
(299,363,cs),
(96,363,l)
);
}
);
width = 499;
},
{
hints = (
{
horizontal = 1;
place = (652,72);
type = Stem;
},
{
horizontal = 1;
place = (314,72);
type = Stem;
},
{
horizontal = 1;
place = (-28,75);
type = Stem;
},
{
horizontal = 1;
place = (-24,21);
target = up;
type = BottomGhost;
},
{
place = (389,90);
type = Stem;
},
{
place = (51,90);
type = Stem;
}
);
layerId = "2F065738-4B59-43EB-A5F2-FD5F277958EA";
shapes = (
{
closed = 1;
nodes = (
(403,-28,o),
(479,36,o),
(479,123,cs),
(479,147,o),
(480,172,o),
(480,196,cs),
(480,218,o),
(481,243,o),
(476,264,cs),
(468,300,o),
(448,329,o),
(422,350,c),
(456,377,o),
(479,418,o),
(479,465,cs),
(479,573,ls),
(479,660,o),
(403,724,o),
(319,724,cs),
(169,724,ls),
(152,724,o),
(135,724,o),
(117,724,cs),
(93,724,o),
(51,723,o),
(51,688,cs),
(51,12,ls),
(51,-11,o),
(76,-24,o),
(96,-24,cs),
(115,-24,o),
(131,-15,o),
(139,3,cs),
(142,8,o),
(142,158,o),
(142,314,c),
(318,314,ls),
(353,314,o),
(380,285,o),
(387,252,cs),
(391,235,o),
(390,214,o),
(390,196,cs),
(390,172,o),
(389,148,o),
(389,124,cs),
(389,92,o),
(369,57,o),
(337,47,cs),
(327,44,o),
(317,45,o),
(307,43,cs),
(291,40,o),
(274,27,o),
(274,8,cs),
(274,-15,o),
(299,-28,o),
(319,-28,cs)
);
},
{
closed = 1;
nodes = (
(141,512,o),
(141,626,o),
(141,652,c),
(318,652,ls),
(360,652,o),
(389,612,o),
(389,573,cs),
(389,466,ls),
(389,434,o),
(369,398,o),
(337,389,cs),
(328,387,o),
(320,387,o),
(312,386,c),
(142,386,l)
);
}
);
width = 530;
}
);
note = R.ss02;
},
{
color = 0;
glyphname = S.ss02;
lastChange = "2023-10-25 20:36:27 +0000";
layers = (
{
hints = (
{
horizontal = 1;
place = (675,27);
type = Stem;
},
{
horizontal = 1;
place = (336,28);
type = Stem;
},
{
horizontal = 1;
place = (-2,28);
type = Stem;
},
{
place = (404,30);
type = Stem;
},
{
place = (66,30);
type = Stem;
}
);
layerId = m01;
shapes = (
{
closed = 1;
nodes = (
(304,-2,ls),
(379,-2,o),
(434,58,o),
(434,132,cs),
(434,235,ls),
(434,259,o),
(426,287,o),
(411,306,cs),
(374,357,o),
(326,364,o),
(279,364,cs),
(218,364,o),
(156,352,o),
(115,406,cs),
(103,423,o),
(96,444,o),
(96,466,cs),
(96,573,ls),
(96,595,o),
(103,617,o),
(116,634,cs),
(155,685,o),
(215,675,o),
(272,675,cs),
(394,675,ls),
(402,675,o),
(409,680,o),
(409,688,cs),
(409,695,o),
(405,698,o),
(400,701,c),
(397,702,o),
(315,702,o),
(307,702,cs),
(196,702,ls),
(121,702,o),
(66,642,o),
(66,568,cs),
(66,465,ls),
(66,441,o),
(74,414,o),
(88,394,cs),
(125,343,o),
(173,336,o),
(220,336,cs),
(281,336,o),
(343,348,o),
(384,294,cs),
(397,277,o),
(404,256,o),
(404,234,cs),
(404,127,ls),
(404,105,o),
(396,84,o),
(383,66,cs),
(354,27,o),
(320,26,o),
(275,26,cs),
(82,26,ls),
(75,26,o),
(67,20,o),
(67,12,cs),
(67,3,o),
(76,-2,o),
(84,-2,cs)
);
}
);
width = 499;
},
{
hints = (
{
place = (652,72);
type = Stem;
},
{
place = (388,90);
type = Stem;
},
{
place = (314,72);
type = Stem;
},
{
place = (51,90);
type = Stem;
},
{
place = (-24,72);
type = Stem;
}
);
layerId = "2F065738-4B59-43EB-A5F2-FD5F277958EA";
shapes = (
{
closed = 1;
nodes = (
(189,-24,l),
(319,-24,ls),
(403,-24,o),
(478,40,o),
(478,127,cs),
(478,235,ls),
(478,266,o),
(467,297,o),
(448,323,cs),
(391,398,o),
(306,386,o),
(221,386,cs),
(174,386,o),
(141,419,o),
(141,466,cs),
(141,573,ls),
(141,588,o),
(145,604,o),
(153,617,cs),
(174,651,o),
(199,652,o),
(236,652,cs),
(287,652,l),
(409,652,ls),
(430,652,o),
(454,665,o),
(454,688,cs),
(454,722,o),
(416,724,o),
(391,724,cs),
(211,724,ls),
(127,724,o),
(51,660,o),
(51,573,cs),
(51,465,ls),
(51,434,o),
(62,403,o),
(81,377,cs),
(139,302,o),
(224,314,o),
(308,314,cs),
(355,314,o),
(388,281,o),
(388,234,cs),
(388,127,ls),
(388,112,o),
(384,96,o),
(376,83,cs),
(354,47,o),
(328,48,o),
(290,48,cs),
(231,48,l),
(97,48,ls),
(76,48,o),
(52,35,o),
(52,12,cs),
(52,-22,o),
(90,-24,o),
(115,-24,cs)
);
}
);
width = 529;
}
);
note = S.ss02;
},
{
color = 0;
glyphname = V.ss02;
lastChange = "2023-10-25 20:36:27 +0000";
layers = (
{
hints = (
{
horizontal = 1;
place = (702,-20);
target = down;
type = TopGhost;
},
{
horizontal = 1;
place = (-3,21);
target = up;
type = BottomGhost;
},
{
place = (401,30);
type = Stem;
},
{
place = (67,30);
type = Stem;
}
);
layerId = m01;
shapes = (
{
closed = 1;
nodes = (
(256,-3,o),
(260,-1,o),
(263,2,cs),
(350,89,ls),
(425,163,o),
(432,165,o),
(432,272,cs),
(432,307,o),
(432,342,o),
(432,376,cs),
(431,585,ls),
(431,619,o),
(431,654,o),
(431,689,cs),
(431,697,o),
(424,702,o),
(416,702,cs),
(409,702,o),
(401,697,o),
(401,689,cs),
(401,232,ls),
(401,170,o),
(376,154,o),
(335,114,cs),
(251,31,l),
(165,114,ls),
(100,177,o),
(97,173,o),
(97,265,cs),
(97,689,ls),
(97,697,o),
(90,702,o),
(82,702,cs),
(75,702,o),
(67,697,o),
(67,689,cs),
(67,220,ls),
(67,193,o),
(78,161,o),
(97,141,cs),
(126,108,o),
(161,78,o),
(193,48,cs),
(207,34,o),
(226,10,o),
(243,0,cs),
(246,-2,o),
(249,-3,o),
(252,-3,cs)
);
}
);
width = 498;
},
{
hints = (
{
horizontal = 1;
place = (725,-20);
target = down;
type = TopGhost;
},
{
horizontal = 1;
place = (-25,21);
target = up;
type = BottomGhost;
},
{
place = (384,90);
type = Stem;
},
{
place = (50,90);
type = Stem;
}
);
layerId = "2F065738-4B59-43EB-A5F2-FD5F277958EA";
shapes = (
{
closed = 1;
nodes = (
(291,-25,o),
(301,-10,o),
(318,7,cs),
(363,51,o),
(433,109,o),
(459,166,cs),
(471,191,o),
(474,218,o),
(474,245,cs),
(474,393,o),
(474,541,o),
(474,689,cs),
(474,712,o),
(449,725,o),
(429,725,cs),
(409,725,o),
(388,714,o),
(384,693,cs),
(383,684,o),
(383,675,o),
(383,666,cs),
(383,525,o),
(384,385,o),
(384,244,cs),
(384,220,o),
(381,200,o),
(369,179,cs),
(353,149,o),
(291,94,o),
(264,68,c),
(236,94,o),
(171,150,o),
(155,180,cs),
(147,193,o),
(143,208,o),
(141,223,cs),
(136,259,o),
(140,296,o),
(140,332,cs),
(140,678,ls),
(140,708,o),
(127,725,o),
(95,725,cs),
(75,725,o),
(50,712,o),
(50,689,cs),
(50,234,ls),
(50,194,o),
(67,151,o),
(92,121,cs),
(109,102,o),
(222,-9,o),
(237,-18,cs),
(245,-23,o),
(255,-25,o),
(265,-25,cs)
);
}
);
width = 525;
}
);
note = V.ss02;
},
{
color = 0;
glyphname = Y.ss02;
lastChange = "2023-10-25 20:36:27 +0000";
layers = (
{
hints = (
{
horizontal = 1;
place = (702,-20);
target = down;
type = TopGhost;
},
{
horizontal = 1;
place = (701,-20);
target = down;
type = TopGhost;
},
{
horizontal = 1;
place = (336,27);
type = Stem;
},
{
horizontal = 1;
place = (-2,27);
type = Stem;
},
{
place = (405,30);
type = Stem;
},
{
place = (66,30);
type = Stem;
}
);
layerId = m01;
shapes = (
{
closed = 1;
nodes = (
(305,-2,ls),
(380,-2,o),
(435,58,o),
(435,132,cs),
(435,687,ls),
(435,695,o),
(427,701,o),
(420,701,cs),
(413,701,o),
(405,695,o),
(405,687,cs),
(405,465,l),
(403,455,o),
(403,445,o),
(400,434,cs),
(386,392,o),
(350,363,o),
(305,363,cs),
(196,363,ls),
(145,363,o),
(102,404,o),
(97,454,cs),
(94,481,o),
(96,508,o),
(96,534,cs),
(96,688,ls),
(96,696,o),
(89,702,o),
(81,702,cs),
(74,702,o),
(66,696,o),
(66,688,cs),
(66,465,ls),
(66,390,o),
(128,336,o),
(201,336,cs),
(305,336,ls),
(345,336,o),
(381,355,o),
(405,383,c),
(405,127,ls),
(405,72,o),
(361,25,o),
(305,25,cs),
(197,25,ls),
(177,25,o),
(156,32,o),
(139,44,cs),
(96,77,o),
(97,114,o),
(97,163,cs),
(97,235,ls),
(97,243,o),
(89,249,o),
(82,249,cs),
(75,249,o),
(67,243,o),
(67,235,cs),
(67,127,ls),
(67,52,o),
(129,-2,o),
(202,-2,cs)
);
}
);
width = 499;
},
{
hints = (
{
horizontal = 1;
place = (724,-20);
target = down;
type = TopGhost;
},
{
horizontal = 1;
place = (723,-20);
target = down;
type = TopGhost;
},
{
horizontal = 1;
place = (314,72);
type = Stem;
},
{
horizontal = 1;
place = (-24,72);
type = Stem;
},
{
place = (390,90);
type = Stem;
},
{
place = (51,90);
type = Stem;
}
);
layerId = "2F065738-4B59-43EB-A5F2-FD5F277958EA";
shapes = (
{
closed = 1;
nodes = (
(320,-24,ls),
(404,-24,o),
(480,40,o),
(480,127,cs),
(480,667,ls),
(480,676,o),
(481,690,o),
(478,698,cs),
(471,715,o),
(452,723,o),
(435,723,cs),
(377,723,o),
(390,668,o),
(390,629,cs),
(390,467,l),
(389,461,o),
(389,454,o),
(388,448,cs),
(382,415,o),
(353,386,o),
(319,386,cs),
(212,386,ls),
(181,386,o),
(154,410,o),
(145,439,cs),
(137,465,o),
(141,507,o),
(141,534,cs),
(141,688,ls),
(141,711,o),
(117,724,o),
(96,724,cs),
(76,724,o),
(54,713,o),
(51,691,cs),
(50,683,o),
(50,674,o),
(50,666,cs),
(50,599,o),
(51,532,o),
(51,465,cs),
(51,378,o),
(127,314,o),
(211,314,cs),
(320,314,ls),
(345,314,o),
(369,319,o),
(390,329,c),
(390,128,ls),
(390,88,o),
(361,48,o),
(319,48,cs),
(213,48,ls),
(196,48,o),
(181,55,o),
(168,66,cs),
(140,92,o),
(142,122,o),
(142,156,cs),
(142,180,o),
(142,205,o),
(142,229,cs),
(142,256,o),
(123,271,o),
(97,271,cs),
(77,271,o),
(52,258,o),
(52,235,cs),
(52,127,ls),
(52,40,o),
(128,-24,o),
(212,-24,cs)
);
}
);
width = 531;
}
);
note = Y.ss02;
},
{
color = 0;
glyphname = Q.ss03;
lastChange = "2023-10-25 20:36:27 +0000";
layers = (
{
layerId = m01;
shapes = (
{
closed = 1;
nodes = (
(428,-119,o),
(434,-112,o),
(434,-105,cs),
(434,-97,o),
(427,-93,o),
(420,-92,cs),
(411,-90,o),
(402,-90,o),
(393,-87,cs),
(351,-76,o),
(325,-43,o),
(321,-1,c),
(387,8,o),
(434,64,o),
(434,132,cs),
(434,688,ls),
(434,696,o),
(427,702,o),
(419,702,cs),
(196,702,ls),
(121,702,o),
(66,642,o),
(66,568,cs),
(66,127,ls),
(66,52,o),
(128,-2,o),
(201,-2,cs),
(290,-2,l),
(295,-68,o),
(353,-119,o),
(420,-119,cs)
);
},
{
closed = 1;
nodes = (
(141,26,o),
(96,72,o),
(96,127,cs),
(96,573,ls),
(96,628,o),
(141,675,o),
(196,675,cs),
(404,675,l),
(404,127,ls),
(404,72,o),
(359,26,o),
(304,26,cs),
(196,26,ls)
);
}
);
width = 500;
},
{
hints = (
{
horizontal = 1;
place = (652,72);
type = Stem;
},
{
horizontal = 1;
place = (-24,72);
type = Stem;
},
{
horizontal = 1;
place = (-17,21);
target = up;
type = BottomGhost;
},
{
place = (389,90);
type = Stem;
},
{
place = (51,90);
type = Stem;
}
);
layerId = "2F065738-4B59-43EB-A5F2-FD5F277958EA";
shapes = (
{
closed = 1;
nodes = (
(455,-141,o),
(479,-128,o),
(479,-105,cs),
(479,-86,o),
(461,-73,o),
(444,-70,cs),
(437,-69,o),
(429,-69,o),
(422,-68,cs),
(397,-63,o),
(376,-41,o),
(368,-17,c),
(431,3,o),
(479,58,o),
(479,127,cs),
(479,688,ls),
(479,711,o),
(454,724,o),
(434,724,cs),
(211,724,ls),
(127,724,o),
(51,660,o),
(51,573,cs),
(51,127,ls),
(51,40,o),
(127,-24,o),
(211,-24,cs),
(278,-24,l),
(295,-93,o),
(361,-141,o),
(434,-141,cs)
);
},
{
closed = 1;
nodes = (
(170,48,o),
(141,88,o),
(141,128,cs),
(141,572,ls),
(141,612,o),
(170,652,o),
(212,652,cs),
(389,652,l),
(389,128,ls),
(389,88,o),
(360,48,o),
(318,48,cs),
(212,48,ls)
);
}
);
width = 530;
}
);
note = Q.ss03;
},
{
color = 0;
glyphname = a;
lastChange = "2023-10-25 20:36:27 +0000";
layers = (
{
hints = (
{
horizontal = 1;
place = (337,27);
type = Stem;
},
{
horizontal = 1;
place = (230,26);
type = Stem;
},
{
horizontal = 1;
place = (1,27);
type = Stem;
},
{
place = (398,29);
type = Stem;
},
{
place = (66,30);
type = Stem;
}
);
layerId = m01;
shapes = (
{
closed = 1;
nodes = (
(300,1,ls),
(373,1,o),
(427,60,o),
(427,132,cs),
(427,246,l),
(422,301,o),
(379,350,o),
(325,359,cs),
(302,363,o),
(278,364,o),
(254,364,cs),
(241,364,o),
(200,369,o),
(200,350,cs),
(200,330,o),
(248,337,o),
(261,337,cs),
(325,337,o),
(375,329,o),
(394,256,c),
(377,256,o),
(360,256,o),
(343,256,cs),
(243,257,ls),
(227,257,o),
(210,257,o),
(193,257,cs),
(128,257,o),
(66,199,o),
(66,132,cs),
(66,55,o),
(122,1,o),
(199,1,cs)
);
},
{
closed = 1;
nodes = (
(140,28,o),
(96,74,o),
(96,127,cs),
(96,170,o),
(124,212,o),
(165,225,cs),
(180,230,o),
(196,230,o),
(211,230,cs),
(227,230,o),
(242,230,o),
(258,230,cs),
(351,229,ls),
(366,229,o),
(382,229,o),
(397,229,c),
(398,208,o),
(398,187,o),
(398,165,cs),
(398,147,o),
(399,126,o),
(395,107,cs),
(386,62,o),
(346,28,o),
(299,28,cs),
(194,28,ls)
);
}
);
width = 493;
},
{
hints = (
{
horizontal = 1;
place = (323,63);
type = Stem;
},
{
horizontal = 1;
place = (192,64);
type = Stem;
},
{
horizontal = 1;
place = (-21,72);
type = Stem;
},
{
place = (382,90);
type = Stem;
},
{
place = (51,90);
type = Stem;
}
);
layerId = "2F065738-4B59-43EB-A5F2-FD5F277958EA";
shapes = (
{
closed = 1;
nodes = (
(315,-21,ls),
(397,-21,o),
(472,42,o),
(472,127,cs),
(472,243,l),
(463,354,o),
(368,386,o),
(270,386,cs),
(243,386,o),
(185,392,o),
(185,350,cs),
(185,315,o),
(261,323,o),
(290,323,cs),
(351,323,o),
(370,301,o),
(370,256,c),
(208,256,ls),
(125,256,o),
(51,213,o),
(51,127,cs),
(51,42,o),
(125,-21,o),
(208,-21,cs)
);
},
{
closed = 1;
nodes = (
(169,51,o),
(141,89,o),
(141,127,cs),
(141,164,o),
(182,192,o),
(236,192,cs),
(382,192,l),
(382,142,ls),
(382,113,o),
(380,89,o),
(357,68,cs),
(345,57,o),
(330,51,o),
(313,51,cs),
(210,51,ls)
);
}
);
width = 523;
}
);
note = a;
unicode = 97;
},
{
color = 0;
glyphname = b;
lastChange = "2023-10-25 20:36:27 +0000";
layers = (
{
hints = (
{
horizontal = 1;
place = (702,-20);
target = down;
type = TopGhost;
},
{
horizontal = 1;
place = (337,27);
type = Stem;
},
{
horizontal = 1;
place = (-2,28);
type = Stem;
},
{
place = (404,30);
type = Stem;
},
{
place = (66,30);
type = Stem;
}
);
layerId = m01;
shapes = (
{
closed = 1;
nodes = (
(303,-2,ls),
(376,-2,o),
(434,57,o),
(434,129,cs),
(434,235,ls),
(434,310,o),
(373,364,o),
(299,364,cs),
(196,364,ls),
(155,364,o),
(119,345,o),
(96,317,c),
(96,688,ls),
(96,696,o),
(88,702,o),
(81,702,cs),
(74,702,o),
(66,696,o),
(66,688,cs),
(66,127,ls),
(66,52,o),
(128,-2,o),
(201,-2,cs)
);
},
{
closed = 1;
nodes = (
(141,26,o),
(96,72,o),
(96,127,cs),
(96,235,ls),
(96,290,o),
(141,337,o),
(197,337,cs),
(304,337,ls),
(360,337,o),
(404,290,o),
(404,235,cs),
(404,127,ls),
(404,72,o),
(359,26,o),
(303,26,cs),
(197,26,ls)
);
}
);
width = 500;
},
{
hints = (
{
horizontal = 1;
place = (724,-20);
target = down;
type = TopGhost;
},
{
horizontal = 1;
place = (314,72);
type = Stem;
},
{
horizontal = 1;
place = (-24,72);
type = Stem;
},
{
place = (389,90);
type = Stem;
},
{
place = (51,90);
type = Stem;
}
);
layerId = "2F065738-4B59-43EB-A5F2-FD5F277958EA";
shapes = (
{
closed = 1;
nodes = (
(318,-24,ls),
(402,-24,o),
(479,40,o),
(479,127,cs),
(479,235,ls),
(479,322,o),
(403,386,o),
(319,386,cs),
(211,386,ls),
(186,386,o),
(162,380,o),
(141,371,c),
(141,688,ls),
(141,711,o),
(116,724,o),
(96,724,cs),
(75,724,o),
(51,711,o),
(51,688,cs),
(51,127,ls),
(51,42,o),
(128,-24,o),
(211,-24,cs)
);
},
{
closed = 1;
nodes = (
(170,48,o),
(141,88,o),
(141,128,cs),
(141,234,ls),
(141,274,o),
(170,314,o),
(212,314,cs),
(318,314,ls),
(360,314,o),
(389,274,o),
(389,234,cs),
(389,128,ls),
(389,88,o),
(359,48,o),
(317,48,cs),
(212,48,ls)
);
}
);
width = 530;
}
);
note = b;
unicode = 98;
},
{
color = 0;
glyphname = c;
lastChange = "2023-10-25 20:36:27 +0000";
layers = (
{
hints = (
{
horizontal = 1;
place = (337,27);
type = Stem;
},
{
horizontal = 1;
place = (-1,27);
type = Stem;
},
{
place = (66,30);
type = Stem;
}
);
layerId = m01;
shapes = (
{
closed = 1;
nodes = (
(403,-1,ls),
(411,-1,o),
(418,5,o),
(418,13,cs),
(418,25,o),
(406,27,o),
(397,27,cs),
(384,27,o),
(370,27,o),
(357,27,cs),
(276,26,ls),
(263,26,o),
(250,26,o),
(236,26,cs),
(217,26,o),
(195,25,o),
(176,29,cs),
(129,38,o),
(96,81,o),
(96,128,cs),
(96,235,ls),
(96,290,o),
(141,337,o),
(196,337,cs),
(304,337,ls),
(349,337,o),
(384,309,o),
(398,267,cs),
(402,256,o),
(402,245,o),
(404,235,cs),
(406,226,o),
(411,222,o),
(420,222,cs),
(428,222,o),
(434,228,o),
(434,236,cs),
(434,311,o),
(372,364,o),
(299,364,cs),
(196,364,ls),
(121,364,o),
(66,304,o),
(66,230,cs),
(66,128,ls),
(66,53,o),
(128,-1,o),
(201,-1,cs)
);
}
);
width = 487;
},
{
hints = (
{
horizontal = 1;
place = (314,72);
type = Stem;
},
{
horizontal = 1;
place = (-23,72);
type = Stem;
},
{
place = (390,89);
type = Stem;
},
{
place = (51,90);
type = Stem;
}
);
layerId = "2F065738-4B59-43EB-A5F2-FD5F277958EA";
shapes = (
{
closed = 1;
nodes = (
(418,-23,ls),
(439,-23,o),
(463,-10,o),
(463,13,cs),
(463,48,o),
(423,49,o),
(398,49,cs),
(356,49,o),
(314,48,o),
(273,48,cs),
(259,48,o),
(205,48,o),
(193,52,cs),
(161,62,o),
(141,95,o),
(141,129,cs),
(141,234,ls),
(141,274,o),
(170,314,o),
(212,314,cs),
(318,314,ls),
(352,314,o),
(381,285,o),
(387,252,cs),
(389,245,o),
(388,237,o),
(390,229,cs),
(394,209,o),
(415,199,o),
(434,199,cs),
(455,199,o),
(479,212,o),
(479,235,cs),
(479,322,o),
(403,386,o),
(319,386,cs),
(211,386,ls),
(127,386,o),
(51,322,o),
(51,235,cs),
(51,128,ls),
(51,41,o),
(127,-23,o),
(211,-23,cs)
);
}
);
width = 530;
}
);
note = c;
unicode = 99;
},
{
color = 0;
glyphname = d;
lastChange = "2023-10-25 20:36:27 +0000";
layers = (
{
hints = (
{
horizontal = 1;
place = (702,-20);
target = down;
type = TopGhost;
},
{
horizontal = 1;
place = (337,27);
type = Stem;
},
{
horizontal = 1;
place = (-2,28);
type = Stem;
},
{
place = (405,30);
type = Stem;
},
{
place = (66,30);
type = Stem;
}
);
layerId = m01;
shapes = (
{
closed = 1;
nodes = (
(304,-2,ls),
(368,-2,o),
(429,49,o),
(434,115,cs),
(435,140,o),
(435,165,o),
(435,191,cs),
(435,233,o),
(435,274,o),
(435,315,cs),
(434,564,ls),
(434,605,o),
(434,647,o),
(434,688,cs),
(434,696,o),
(427,702,o),
(419,702,cs),
(412,702,o),
(404,696,o),
(404,688,cs),
(404,564,o),
(404,440,o),
(405,317,c),
(380,346,o),
(341,364,o),
(299,364,cs),
(196,364,ls),
(121,364,o),
(66,304,o),
(66,230,cs),
(66,127,ls),
(66,52,o),
(128,-2,o),
(201,-2,cs)
);
},
{
closed = 1;
nodes = (
(141,26,o),
(96,72,o),
(96,127,cs),
(96,235,ls),
(96,290,o),
(141,337,o),
(196,337,cs),
(304,337,ls),
(349,337,o),
(384,309,o),
(398,267,cs),
(402,256,o),
(402,245,o),
(404,235,c),
(405,203,o),
(405,172,o),
(405,142,cs),
(405,123,o),
(404,105,o),
(396,87,cs),
(380,50,o),
(344,26,o),
(304,26,cs),
(196,26,ls)
);
}
);
width = 500;
},
{
hints = (
{
horizontal = 1;
place = (724,-20);
target = down;
type = TopGhost;
},
{
horizontal = 1;
place = (314,72);
type = Stem;
},
{
horizontal = 1;
place = (-24,72);
type = Stem;
},
{
place = (390,90);
type = Stem;
},
{
place = (51,90);
type = Stem;
}
);
layerId = "2F065738-4B59-43EB-A5F2-FD5F277958EA";
shapes = (
{
closed = 1;
nodes = (
(319,-24,ls),
(415,-24,o),
(480,47,o),
(480,140,cs),
(479,688,ls),
(479,711,o),
(455,724,o),
(434,724,cs),
(417,724,o),
(400,716,o),
(392,700,cs),
(386,687,o),
(389,409,o),
(390,370,c),
(368,381,o),
(343,386,o),
(319,386,cs),
(211,386,ls),
(127,386,o),
(51,322,o),
(51,235,cs),
(51,127,ls),
(51,40,o),
(127,-24,o),
(211,-24,cs)
);
},
{
closed = 1;
nodes = (
(170,48,o),
(141,88,o),
(141,128,cs),
(141,234,ls),
(141,274,o),
(170,314,o),
(212,314,cs),
(318,314,ls),
(398,314,o),
(390,219,o),
(390,166,cs),
(390,116,o),
(385,48,o),
(318,48,cs),
(212,48,ls)
);
}
);
width = 530;
}
);
note = d;
unicode = 100;
},
{
color = 0;
glyphname = e;
lastChange = "2023-10-25 20:36:27 +0000";
layers = (
{
hints = (
{
horizontal = 1;
place = (337,27);
type = Stem;
},
{
horizontal = 1;
place = (173,27);
type = Stem;
},
{
horizontal = 1;
place = (-2,27);
type = Stem;
},
{
place = (393,30);
type = Stem;
},
{
place = (65,30);
type = Stem;
}
);
layerId = m01;
shapes = (
{
closed = 1;
nodes = (
(401,-2,ls),
(409,-2,o),
(416,4,o),
(416,12,cs),
(416,26,o),
(399,27,o),
(389,27,cs),
(327,27,o),
(264,25,o),
(201,25,cs),
(143,25,o),
(95,63,o),
(95,124,cs),
(95,173,l),
(407,173,ls),
(415,173,o),
(422,179,o),
(422,187,cs),
(422,190,o),
(422,193,o),
(422,197,cs),
(423,217,ls),
(423,221,o),
(423,224,o),
(423,228,cs),
(423,306,o),
(371,364,o),
(291,364,cs),
(191,364,ls),
(119,364,o),
(65,306,o),
(65,234,cs),
(65,123,ls),
(65,50,o),
(125,-2,o),
(196,-2,cs)
);
},
{
closed = 1;
nodes = (
(169,201,ls),
(145,201,o),
(120,201,o),
(95,201,c),
(95,239,ls),
(95,292,o),
(138,337,o),
(192,337,cs),
(296,337,ls),
(357,337,o),
(393,286,o),
(393,228,cs),
(392,200,l),
(367,200,o),
(343,200,o),
(318,200,cs)
);
}
);
width = 488;
},
{
hints = (
{
horizontal = 1;
place = (314,72);
type = Stem;
},
{
horizontal = 1;
place = (151,72);
type = Stem;
},
{
horizontal = 1;
place = (-24,72);
type = Stem;
},
{
place = (377,90);
type = Stem;
},
{
place = (50,90);
type = Stem;
}
);
layerId = "2F065738-4B59-43EB-A5F2-FD5F277958EA";
shapes = (
{
closed = 1;
nodes = (
(416,-24,ls),
(437,-24,o),
(461,-11,o),
(461,12,cs),
(461,47,o),
(421,48,o),
(396,48,cs),
(353,48,o),
(311,47,o),
(269,47,cs),
(255,47,o),
(201,47,o),
(190,51,cs),
(159,61,o),
(140,92,o),
(140,124,cs),
(140,151,l),
(422,151,ls),
(443,151,o),
(467,164,o),
(467,187,cs),
(467,190,o),
(467,193,o),
(467,197,cs),
(468,215,ls),
(468,232,o),
(468,250,o),
(464,267,cs),
(448,339,o),
(383,386,o),
(311,386,cs),
(206,386,ls),
(124,386,o),
(50,324,o),
(50,239,cs),
(50,123,ls),
(50,39,o),
(124,-24,o),
(206,-24,cs)
);
},
{
closed = 1;
nodes = (
(140,238,ls),
(140,276,o),
(167,314,o),
(208,314,cs),
(310,314,ls),
(355,314,o),
(377,271,o),
(377,231,cs),
(377,223,l),
(298,223,o),
(219,223,o),
(140,223,c)
);
}
);
width = 518;
}
);
note = e;
unicode = 101;
},
{
color = 0;
glyphname = f;
lastChange = "2023-10-25 20:36:27 +0000";
layers = (
{
hints = (
{
horizontal = 1;
place = (675,27);
type = Stem;
},
{
horizontal = 1;
place = (338,27);
type = Stem;
},
{
horizontal = 1;
place = (-2,21);
target = up;
type = BottomGhost;
},
{
place = (66,30);
type = Stem;
}
);
layerId = m01;
shapes = (
{
closed = 1;
nodes = (
(89,-2,o),
(96,4,o),
(96,12,cs),
(96,237,l),
(97,246,o),
(98,254,o),
(100,263,cs),
(111,301,o),
(138,328,o),
(176,336,cs),
(200,341,o),
(226,338,o),
(250,338,cs),
(257,338,o),
(265,343,o),
(265,351,cs),
(265,364,o),
(252,365,o),
(243,365,cs),
(227,365,o),
(211,365,o),
(196,365,cs),
(156,365,o),
(120,347,o),
(96,318,c),
(96,573,ls),
(96,621,o),
(129,663,o),
(176,673,cs),
(200,678,o),
(226,675,o),
(250,675,cs),
(257,675,o),
(265,680,o),
(265,688,cs),
(265,701,o),
(252,702,o),
(243,702,cs),
(196,702,ls),
(121,702,o),
(66,642,o),
(66,568,cs),
(66,12,ls),
(66,4,o),
(74,-2,o),
(81,-2,cs)
);
}
);
width = 330;
},
{
hints = (
{
horizontal = 1;
place = (652,73);
type = Stem;
},
{
horizontal = 1;
place = (315,73);
type = Stem;
},
{
horizontal = 1;
place = (-24,21);
target = up;
type = BottomGhost;
},
{
place = (51,90);
type = Stem;
}
);
layerId = "2F065738-4B59-43EB-A5F2-FD5F277958EA";
shapes = (
{
closed = 1;
nodes = (
(154,-24,o),
(141,32,o),
(141,70,cs),
(141,196,l),
(141,235,l),
(142,241,o),
(142,247,o),
(143,254,cs),
(145,267,o),
(152,280,o),
(160,290,cs),
(188,323,o),
(226,315,o),
(265,315,cs),
(285,315,o),
(310,328,o),
(310,351,cs),
(310,385,o),
(269,388,o),
(244,388,cs),
(208,388,o),
(174,387,o),
(141,372,c),
(141,573,ls),
(141,589,o),
(146,605,o),
(154,618,cs),
(180,661,o),
(223,652,o),
(265,652,cs),
(285,652,o),
(310,665,o),
(310,688,cs),
(310,722,o),
(269,725,o),
(244,725,cs),
(233,725,o),
(222,724,o),
(211,724,cs),
(127,724,o),
(51,660,o),
(51,573,cs),
(51,393,o),
(51,212,o),
(51,32,cs),
(51,23,o),
(50,9,o),
(53,1,cs),
(60,-16,o),
(79,-24,o),
(96,-24,cs)
);
}
);
width = 360;
}
);
note = f;
unicode = 102;
},
{
color = 0;
glyphname = g;
lastChange = "2023-10-25 20:36:27 +0000";
layers = (
{
hints = (
{
place = (404,30);
type = Stem;
},
{
place = (337,27);
type = Stem;
},
{
place = (66,30);
type = Stem;
},
{
place = (-2,28);
type = Stem;
},
{
place = (-340,27);
type = Stem;
}
);
layerId = m01;
shapes = (
{
closed = 1;
nodes = (
(221,-340,o),
(242,-340,o),
(262,-340,cs),
(280,-340,o),
(298,-340,o),
(316,-339,cs),
(380,-335,o),
(434,-276,o),
(434,-212,cs),
(434,-207,o),
(434,-202,o),
(434,-197,cs),
(435,-168,ls),
(435,-163,o),
(435,-158,o),
(435,-153,cs),
(435,-132,o),
(435,-85,o),
(428,-65,cs),
(416,-32,o),
(392,-4,o),
(362,12,c),
(405,34,o),
(434,80,o),
(434,132,cs),
(434,350,ls),
(434,358,o),
(426,363,o),
(419,363,cs),
(411,363,o),
(404,358,o),
(404,350,cs),
(404,339,o),
(404,328,o),
(404,317,c),
(379,346,o),
(340,364,o),
(299,364,cs),
(196,364,ls),
(121,364,o),
(66,304,o),
(66,230,cs),
(66,127,ls),
(66,63,o),
(118,4,o),
(183,-1,cs),
(219,-3,o),
(257,-2,o),
(293,-2,cs),
(346,-2,o),
(390,-29,o),
(401,-83,cs),
(406,-103,o),
(405,-125,o),
(405,-145,cs),
(405,-151,o),
(405,-156,o),
(405,-162,cs),
(404,-194,ls),
(404,-223,o),
(403,-246,o),
(385,-271,cs),
(352,-314,o),
(317,-313,o),
(267,-313,cs),
(196,-313,ls),
(175,-313,o),
(155,-306,o),
(138,-294,cs),
(100,-265,o),
(96,-234,o),
(96,-193,cs),
(96,-103,ls),
(96,-95,o),
(88,-90,o),
(81,-90,cs),
(73,-90,o),
(66,-95,o),
(66,-103,cs),
(66,-211,ls),
(66,-287,o),
(127,-340,o),
(201,-340,cs)
);
},
{
closed = 1;
nodes = (
(190,26,o),
(150,22,o),
(116,66,cs),
(103,84,o),
(96,106,o),
(96,127,cs),
(96,235,ls),
(96,290,o),
(140,337,o),
(196,337,cs),
(303,337,ls),
(348,337,o),
(384,309,o),
(398,267,cs),
(401,256,o),
(402,246,o),
(404,235,c),
(404,227,o),
(404,220,o),
(404,212,cs),
(405,172,ls),
(405,91,o),
(395,38,o),
(303,26,c),
(283,26,o),
(261,26,o),
(240,26,cs)
);
}
);
width = 499;
},
{
hints = (
{
place = (389,90);
type = Stem;
},
{
place = (314,72);
type = Stem;
},
{
place = (51,90);
type = Stem;
},
{
place = (-24,72);
type = Stem;
},
{
place = (-362,72);
type = Stem;
}
);
layerId = "2F065738-4B59-43EB-A5F2-FD5F277958EA";
shapes = (
{
closed = 1;
nodes = (
(315,-362,ls),
(400,-362,o),
(479,-300,o),
(479,-211,cs),
(480,-141,ls),
(480,-78,o),
(475,-30,o),
(421,12,c),
(479,57,o),
(479,105,o),
(479,173,cs),
(479,344,ls),
(479,370,o),
(459,386,o),
(434,386,cs),
(419,386,o),
(393,378,o),
(395,339,c),
(380,362,o),
(338,386,o),
(282,386,cs),
(211,386,ls),
(127,386,o),
(51,322,o),
(51,235,cs),
(51,127,ls),
(51,95,o),
(62,64,o),
(81,39,cs),
(139,-37,o),
(222,-24,o),
(306,-24,cs),
(363,-24,o),
(389,-60,o),
(389,-114,cs),
(389,-210,ls),
(389,-258,o),
(355,-291,o),
(307,-291,cs),
(212,-290,ls),
(122,-290,o),
(141,-167,o),
(141,-109,cs),
(141,-83,o),
(121,-67,o),
(96,-67,cs),
(75,-67,o),
(51,-80,o),
(51,-103,cs),
(51,-211,ls),
(51,-298,o),
(127,-362,o),
(211,-362,cs)
);
},
{
closed = 1;
nodes = (
(174,48,o),
(141,79,o),
(141,128,cs),
(141,234,ls),
(141,274,o),
(170,314,o),
(212,314,cs),
(317,314,ls),
(404,314,o),
(389,199,o),
(389,143,cs),
(389,30,o),
(306,48,o),
(222,48,cs)
);
}
);
width = 530;
}
);
note = g;
unicode = 103;
},
{
color = 0;
glyphname = h;
lastChange = "2023-10-25 21:11:35 +0000";
layers = (
{
hints = (
{
horizontal = 1;
place = (702,-20);
target = down;
type = TopGhost;
},
{
horizontal = 1;
place = (335,27);
type = Stem;
},
{
horizontal = 1;
place = (-2,21);
target = up;
type = BottomGhost;
},
{
place = (402,30);
type = Stem;
},
{
place = (66,30);
type = Stem;
},
{
horizontal = 1;
place = (337,27);
type = Stem;
},
{
horizontal = 1;
place = (0,21);
target = up;
type = BottomGhost;
},
{
place = (397,30);
type = Stem;
},
{
place = (66,30);
type = Stem;
}
);
layerId = m01;
shapes = (
{
closed = 1;
nodes = (
(127,-13,o),
(132,-5,o),
(132,16,cs),
(132,274,ls),
(132,398,o),
(181,461,o),
(292,461,cs),
(403,461,o),
(452,398,o),
(452,274,cs),
(452,16,ls),
(452,-5,o),
(457,-13,o),
(470,-13,cs),
(483,-13,o),
(488,-5,o),
(488,16,cs),
(488,273,ls),
(488,421,o),
(424,492,o),
(292,492,cs),
(213,492,o),
(157,463,o),
(126,407,c),
(132,456,o),
(133,505,o),
(133,573,cs),
(133,681,o),
(161,725,o),
(230,725,cs),
(248,725,o),
(259,721,o),
(271,707,cs),
(281,696,o),
(296,691,o),
(309,691,cs),
(325,691,o),
(337,702,o),
(337,716,cs),
(337,735,o),
(292,754,o),
(246,754,cs),
(145,754,o),
(97,693,o),
(97,565,cs),
(96,16,ls),
(96,-5,o),
(101,-13,o),
(114,-13,cs)
);
}
);
width = 584;
},
{
background = {
shapes = (
{
ref = n;
}
);
};
hints = (
{
horizontal = 1;
place = (724,-20);
target = down;
type = TopGhost;
},
{
horizontal = 1;
place = (313,71);
type = Stem;
},
{
horizontal = 1;
place = (-20,21);
target = up;
type = BottomGhost;
},
{
horizontal = 1;
place = (-24,21);
target = up;
type = BottomGhost;
},
{
place = (387,90);
type = Stem;
},
{
place = (51,90);
type = Stem;
},
{
horizontal = 1;
place = (314,72);
type = Stem;
},
{
horizontal = 1;
place = (-22,21);
target = up;
type = BottomGhost;
},
{
horizontal = 1;
place = (-23,21);
target = up;
type = BottomGhost;
},
{
place = (344,90);
type = Stem;
},
{
place = (13,90);
type = Stem;
}
);
layerId = "2F065738-4B59-43EB-A5F2-FD5F277958EA";
shapes = (
{
closed = 1;
nodes = (
(163,-13,o),
(176,3,o),
(176,46,cs),
(176,273,ls),
(176,371,o),
(212,412,o),
(299,412,cs),
(386,412,o),
(422,371,o),
(422,273,cs),
(422,46,ls),
(422,3,o),
(435,-13,o),
(468,-13,cs),
(501,-13,o),
(514,3,o),
(514,46,cs),
(514,263,ls),
(514,421,o),
(449,492,o),
(303,492,cs),
(244,492,o),
(186,465,o),
(163,427,c),
(173,470,o),
(177,525,o),
(177,603,cs),
(177,668,o),
(183,683,o),
(209,683,cs),
(223,683,o),
(230,681,o),
(255,666,cs),
(271,658,o),
(278,656,o),
(300,656,cs),
(322,656,o),
(341,674,o),
(341,695,cs),
(341,725,o),
(294,754,o),
(246,754,cs),
(137,754,o),
(85,689,o),
(85,553,cs),
(84,46,ls),
(84,3,o),
(97,-13,o),
(130,-13,cs)
);
}
);
width = 598;
}
);
metricLeft = n;
metricRight = n;
note = h;
unicode = 104;
},
{
color = 0;
glyphname = i;
lastChange = "2023-10-25 20:36:27 +0000";
layers = (
{
hints = (
{
horizontal = 1;
place = (537,27);
type = Stem;
},
{
horizontal = 1;
place = (471,27);
type = Stem;
},
{
horizontal = 1;
place = (1,21);
target = up;
type = BottomGhost;
},
{
place = (132,30);
type = Stem;
},
{
place = (99,30);
type = Stem;
},
{
place = (66,30);
type = Stem;
}
);
layerId = m01;
shapes = (
{
closed = 1;
nodes = (
(121,1,o),
(129,7,o),
(129,15,cs),
(129,349,ls),
(129,357,o),
(121,363,o),
(114,363,cs),
(106,363,o),
(99,357,o),
(99,349,cs),
(99,15,ls),
(99,7,o),
(106,1,o),
(114,1,cs)
);
},
{
closed = 1;
nodes = (
(139,471,o),
(162,492,o),
(162,517,cs),
(162,544,o),
(139,564,o),
(113,564,cs),
(88,564,o),
(66,543,o),
(66,517,cs),
(66,491,o),
(88,471,o),
(114,471,cs)
);
},
{
closed = 1;
nodes = (
(103,498,o),
(96,507,o),
(96,517,cs),
(96,527,o),
(103,537,o),
(114,537,cs),
(124,537,o),
(132,527,o),
(132,517,cs),
(132,507,o),
(124,498,o),
(114,498,cs)
);
}
);
width = 227;
},
{
hints = (
{
horizontal = 1;
place = (547,39);
type = Stem;
},
{
horizontal = 1;
place = (448,40);
type = Stem;
},
{
horizontal = 1;
place = (-21,21);
target = up;
type = BottomGhost;
},
{
place = (166,41);
type = Stem;
},
{
place = (84,90);
type = Stem;
},
{
place = (50,42);
type = Stem;
}
);
layerId = "2F065738-4B59-43EB-A5F2-FD5F277958EA";
shapes = (
{
closed = 1;
nodes = (
(149,-21,o),
(174,-8,o),
(174,15,cs),
(174,349,ls),
(174,372,o),
(149,385,o),
(129,385,cs),
(108,385,o),
(84,372,o),
(84,349,cs),
(84,15,ls),
(84,-8,o),
(108,-21,o),
(129,-21,cs)
);
},
{
closed = 1;
nodes = (
(167,448,o),
(207,476,o),
(207,517,cs),
(207,555,o),
(171,586,o),
(128,586,cs),
(90,586,o),
(50,559,o),
(50,517,cs),
(50,476,o),
(90,448,o),
(128,448,cs)
);
},
{
closed = 1;
nodes = (
(110,488,o),
(92,499,o),
(92,517,cs),
(92,535,o),
(110,547,o),
(128,547,cs),
(146,547,o),
(166,535,o),
(166,517,cs),
(166,499,o),
(146,488,o),
(128,488,cs)
);
}
);
width = 257;
}
);
note = i;
unicode = 105;
},
{
color = 0;
glyphname = j;
lastChange = "2023-10-25 20:36:27 +0000";
layers = (
{
hints = (
{
horizontal = 1;
place = (494,27);
type = Stem;
},
{
horizontal = 1;
place = (443,27);
type = Stem;
},
{
horizontal = 1;
place = (-187,27);
type = Stem;
},
{
place = (126,30);
type = Stem;
},
{
place = (100,30);
type = Stem;
},
{
place = (75,30);
type = Stem;
}
);
layerId = m01;
shapes = (
{
closed = 1;
nodes = (
(26,-187,ls),
(87,-187,o),
(130,-140,o),
(130,-80,cs),
(130,350,ls),
(130,358,o),
(123,364,o),
(115,364,cs),
(108,364,o),
(100,358,o),
(100,350,cs),
(100,-84,ls),
(100,-120,o),
(76,-152,o),
(41,-159,cs),
(22,-163,o),
(3,-160,o),
(-16,-160,cs),
(-23,-160,o),
(-31,-166,o),
(-31,-174,cs),
(-31,-182,o),
(-23,-187,o),
(-16,-187,cs)
);
},
{
closed = 1;
nodes = (
(139,443,o),
(156,461,o),
(156,483,cs),
(156,505,o),
(136,521,o),
(115,521,cs),
(93,521,o),
(75,504,o),
(75,482,cs),
(75,459,o),
(94,443,o),
(116,443,cs)
);
},
{
closed = 1;
nodes = (
(109,470,o),
(105,476,o),
(105,482,cs),
(105,488,o),
(109,494,o),
(115,494,cs),
(122,494,o),
(126,488,o),
(126,482,cs),
(126,476,o),
(122,470,o),
(115,470,cs)
);
}
);
width = 222;
},
{
hints = (
{
horizontal = 1;
place = (547,39);
type = Stem;
},
{
horizontal = 1;
place = (448,40);
type = Stem;
},
{
horizontal = 1;
place = (-210,72);
type = Stem;
},
{
place = (210,41);
type = Stem;
},
{
place = (131,90);
type = Stem;
},
{
place = (94,42);
type = Stem;
}
);
layerId = "2F065738-4B59-43EB-A5F2-FD5F277958EA";
shapes = (
{
closed = 1;
nodes = (
(72,-210,o),
(80,-210,o),
(87,-210,cs),
(157,-210,o),
(221,-157,o),
(221,-85,cs),
(222,335,ls),
(222,343,o),
(222,353,o),
(219,361,cs),
(213,378,o),
(193,386,o),
(176,386,cs),
(159,386,o),
(140,378,o),
(133,361,cs),
(129,350,o),
(131,318,o),
(131,305,cs),
(131,208,l),
(131,-84,ls),
(131,-95,o),
(128,-106,o),
(123,-116,c),
(104,-145,o),
(75,-138,o),
(45,-138,cs),
(25,-138,o),
(0,-151,o),
(0,-174,cs),
(0,-207,o),
(39,-210,o),
(64,-210,cs)
);
},
{
closed = 1;
nodes = (
(211,448,o),
(251,476,o),
(251,517,cs),
(251,555,o),
(215,586,o),
(172,586,cs),
(134,586,o),
(94,559,o),
(94,517,cs),
(94,476,o),
(134,448,o),
(172,448,cs)
);
},
{
closed = 1;
nodes = (
(154,488,o),
(136,499,o),
(136,517,cs),
(136,535,o),
(154,547,o),
(172,547,cs),
(190,547,o),
(210,535,o),
(210,517,cs),
(210,499,o),
(190,488,o),
(172,488,cs)
);
}
);
width = 298;
}
);
note = j;
unicode = 106;
},
{
color = 0;
glyphname = k;
lastChange = "2023-10-25 20:36:27 +0000";
layers = (
{
hints = (
{
horizontal = 1;
place = (702,-20);
target = down;
type = TopGhost;
},
{
horizontal = 1;
place = (174,27);
type = Stem;
},
{
horizontal = 1;
place = (-2,21);
target = up;
type = BottomGhost;
},
{
place = (402,30);
type = Stem;
},
{
place = (399,31);
type = Stem;
},
{
place = (66,30);
type = Stem;
}
);
layerId = m01;
shapes = (
{
closed = 1;
nodes = (
(89,-2,o),
(96,4,o),
(96,12,cs),
(96,74,l),
(98,84,o),
(98,95,o),
(102,105,cs),
(116,147,o),
(151,174,o),
(196,174,cs),
(303,174,ls),
(350,174,o),
(391,140,o),
(400,94,cs),
(405,68,o),
(402,42,o),
(402,16,cs),
(402,8,o),
(410,3,o),
(417,3,cs),
(425,3,o),
(432,8,o),
(432,16,cs),
(432,73,ls),
(432,126,o),
(402,168,o),
(358,188,c),
(403,210,o),
(430,259,o),
(430,312,cs),
(430,324,o),
(430,336,o),
(429,347,cs),
(428,355,o),
(422,361,o),
(414,361,cs),
(393,361,o),
(399,330,o),
(399,316,cs),
(399,247,o),
(367,210,o),
(297,201,c),
(195,201,ls),
(156,201,o),
(120,183,o),
(96,155,c),
(96,574,ls),
(96,618,o),
(123,655,o),
(165,669,cs),
(175,672,o),
(185,673,o),
(196,675,cs),
(204,676,o),
(210,680,o),
(210,689,cs),
(210,697,o),
(202,702,o),
(195,702,cs),
(120,702,o),
(66,641,o),
(66,569,cs),
(66,12,ls),
(66,4,o),
(74,-2,o),
(81,-2,cs)
);
}
);
width = 500;
},
{
hints = (
{
horizontal = 1;
place = (649,75);
type = Stem;
},
{
horizontal = 1;
place = (151,72);
type = Stem;
},
{
horizontal = 1;
place = (-20,21);
target = up;
type = BottomGhost;
},
{
horizontal = 1;
place = (-24,21);
target = up;
type = BottomGhost;
},
{
place = (386,91);
type = Stem;
},
{
place = (383,91);
type = Stem;
},
{
place = (51,90);
type = Stem;
}
);
layerId = "2F065738-4B59-43EB-A5F2-FD5F277958EA";
shapes = (
{
closed = 1;
nodes = (
(154,-24,o),
(141,32,o),
(141,70,cs),
(141,73,ls),
(142,78,o),
(142,84,o),
(143,90,cs),
(149,123,o),
(177,151,o),
(211,151,cs),
(317,151,ls),
(333,151,o),
(349,145,o),
(360,134,cs),
(393,104,o),
(386,71,o),
(386,32,cs),
(386,1,o),
(399,-20,o),
(432,-20,cs),
(453,-20,o),
(477,-7,o),
(477,16,cs),
(477,73,ls),
(477,121,o),
(454,162,o),
(419,189,c),
(460,223,o),
(474,265,o),
(474,316,cs),
(474,327,o),
(474,337,o),
(474,347,cs),
(474,370,o),
(449,383,o),
(429,383,cs),
(381,383,o),
(383,346,o),
(383,311,cs),
(383,275,o),
(370,238,o),
(332,226,cs),
(324,224,o),
(316,224,o),
(309,223,c),
(210,223,ls),
(186,223,o),
(162,218,o),
(141,208,c),
(141,573,ls),
(141,606,o),
(161,640,o),
(193,649,cs),
(202,652,o),
(212,651,o),
(222,653,cs),
(239,657,o),
(255,670,o),
(255,688,cs),
(255,711,o),
(231,724,o),
(210,724,cs),
(126,724,o),
(51,660,o),
(51,574,cs),
(51,198,ls),
(51,142,o),
(51,87,o),
(51,32,cs),
(51,23,o),
(50,9,o),
(53,1,cs),
(60,-16,o),
(79,-24,o),
(96,-24,cs)
);
}
);
width = 528;
}
);
note = k;
unicode = 107;
},
{
color = 0;
glyphname = l;
lastChange = "2023-10-25 20:44:33 +0000";
layers = (
{
hints = (
{
horizontal = 1;
place = (702,-20);
target = down;
type = TopGhost;
},
{
horizontal = 1;
place = (-2,27);
type = Stem;
},
{
place = (66,30);
type = Stem;
}
);
layerId = m01;
shapes = (
{
closed = 1;
nodes = (
(242,-2,ls),
(251,-2,o),
(264,0,o),
(264,12,cs),
(264,29,o),
(241,26,o),
(230,26,cs),
(196,25,ls),
(156,25,o),
(120,50,o),
(104,87,cs),
(92,116,o),
(96,151,o),
(96,182,cs),
(96,728,ls),
(96,736,o),
(89,742,o),
(81,742,cs),
(74,742,o),
(66,736,o),
(66,728,cs),
(66,126,ls),
(66,56,o),
(125,-2,o),
(195,-2,cs)
);
}
);
width = 295;
},
{
hints = (
{
horizontal = 1;
place = (724,-20);
target = down;
type = TopGhost;
},
{
horizontal = 1;
place = (-24,72);
type = Stem;
},
{
place = (51,90);
type = Stem;
}
);
layerId = "2F065738-4B59-43EB-A5F2-FD5F277958EA";
shapes = (
{
closed = 1;
nodes = (
(268,-25,o),
(309,-22,o),
(309,12,cs),
(309,57,o),
(241,48,o),
(212,48,cs),
(180,48,o),
(154,72,o),
(145,101,cs),
(137,126,o),
(141,166,o),
(141,193,cs),
(141,688,ls),
(141,711,o),
(117,724,o),
(96,724,cs),
(79,724,o),
(60,716,o),
(53,699,cs),
(50,691,o),
(51,677,o),
(51,668,cs),
(51,126,ls),
(51,40,o),
(127,-24,o),
(210,-24,cs),
(221,-24,o),
(232,-25,o),
(243,-25,cs)
);
}
);
width = 340;
}
);
note = l;
unicode = 108;
},
{
color = 0;
glyphname = m;
lastChange = "2023-10-25 20:36:27 +0000";
layers = (
{
hints = (
{
horizontal = 1;
place = (336,27);
type = Stem;
},
{
horizontal = 1;
place = (1,21);
target = up;
type = BottomGhost;
},
{
place = (652,30);
type = Stem;
},
{
place = (359,30);
type = Stem;
},
{
place = (66,30);
type = Stem;
}
);
layerId = m01;
shapes = (
{
closed = 1;
nodes = (
(89,1,o),
(96,6,o),
(96,14,cs),
(96,89,o),
(96,164,o),
(96,239,cs),
(96,293,o),
(139,336,o),
(193,336,cs),
(227,336,l),
(231,337,o),
(235,337,o),
(239,337,cs),
(252,337,o),
(266,336,o),
(280,334,cs),
(318,326,o),
(345,299,o),
(355,262,cs),
(357,254,o),
(357,245,o),
(359,236,c),
(359,14,ls),
(359,6,o),
(367,1,o),
(374,1,cs),
(382,1,o),
(389,6,o),
(389,14,cs),
(389,89,o),
(389,164,o),
(389,239,cs),
(389,293,o),
(432,336,o),
(486,336,cs),
(500,336,o),
(514,336,o),
(527,336,cs),
(548,336,o),
(572,336,o),
(591,328,cs),
(624,314,o),
(647,284,o),
(651,248,cs),
(654,222,o),
(652,195,o),
(652,169,cs),
(652,15,ls),
(652,7,o),
(660,1,o),
(667,1,cs),
(674,1,o),
(682,7,o),
(682,15,cs),
(682,164,ls),
(682,192,o),
(683,221,o),
(681,250,cs),
(678,298,o),
(637,345,o),
(591,357,cs),
(570,362,o),
(548,363,o),
(526,363,cs),
(486,363,ls),
(435,363,o),
(394,336,o),
(373,296,c),
(341,355,o),
(293,363,o),
(233,363,cs),
(193,363,ls),
(119,363,o),
(66,307,o),
(66,234,cs),
(66,161,o),
(66,88,o),
(66,14,cs),
(66,6,o),
(74,1,o),
(81,1,cs)
);
}
);
width = 747;
},
{
hints = (
{
horizontal = 1;
place = (313,72);
type = Stem;
},
{
horizontal = 1;
place = (-21,21);
target = up;
type = BottomGhost;
},
{
horizontal = 1;
place = (-22,21);
target = up;
type = BottomGhost;
},
{
place = (638,89);
type = Stem;
},
{
place = (343,92);
type = Stem;
},
{
place = (51,91);
type = Stem;
}
);
layerId = "2F065738-4B59-43EB-A5F2-FD5F277958EA";
shapes = (
{
closed = 1;
nodes = (
(116,-22,o),
(139,-10,o),
(141,11,cs),
(142,19,o),
(142,27,o),
(142,35,cs),
(142,103,o),
(141,171,o),
(141,238,cs),
(141,277,o),
(168,313,o),
(209,313,cs),
(253,313,ls),
(280,313,o),
(300,314,o),
(320,294,cs),
(331,283,o),
(339,269,o),
(342,254,cs),
(343,248,o),
(343,241,o),
(344,234,c),
(344,168,o),
(343,102,o),
(343,36,cs),
(343,27,o),
(343,19,o),
(344,11,cs),
(347,-10,o),
(369,-22,o),
(389,-22,cs),
(409,-22,o),
(431,-10,o),
(434,11,cs),
(435,19,o),
(435,27,o),
(435,35,cs),
(435,103,o),
(434,171,o),
(434,238,cs),
(434,277,o),
(461,313,o),
(502,313,cs),
(515,313,o),
(528,314,o),
(541,314,cs),
(558,314,o),
(582,314,o),
(597,306,cs),
(614,297,o),
(627,280,o),
(633,262,cs),
(638,246,o),
(638,179,o),
(638,160,cs),
(638,127,o),
(637,95,o),
(637,63,cs),
(637,26,ls),
(637,7,o),
(638,-4,o),
(655,-14,cs),
(663,-19,o),
(673,-21,o),
(682,-21,cs),
(702,-21,o),
(727,-8,o),
(727,15,cs),
(727,80,o),
(727,146,o),
(727,211,cs),
(727,229,o),
(727,247,o),
(724,265,cs),
(713,325,o),
(660,369,o),
(603,381,cs),
(585,385,o),
(567,386,o),
(549,386,cs),
(545,386,o),
(541,386,o),
(537,386,cs),
(513,385,ls),
(509,385,o),
(505,385,o),
(501,385,cs),
(457,385,o),
(417,369,o),
(388,341,c),
(348,379,o),
(304,386,o),
(252,386,cs),
(237,386,o),
(222,385,o),
(208,385,cs),
(125,385,o),
(51,325,o),
(51,239,cs),
(51,172,o),
(50,104,o),
(50,37,cs),
(50,5,o),
(55,-22,o),
(96,-22,cs)
);
}
);
width = 778;
}
);
note = m;
unicode = 109;
},
{
color = 4;
glyphname = n;
lastChange = "2023-10-25 20:56:25 +0000";
layers = (
{
hints = (
{
horizontal = 1;
place = (337,27);
type = Stem;
},
{
horizontal = 1;
place = (0,21);
target = up;
type = BottomGhost;
},
{
place = (397,30);
type = Stem;
},
{
place = (66,30);
type = Stem;
}
);
layerId = m01;
shapes = (
{
closed = 1;
nodes = (
(127,-13,o),
(132,-5,o),
(132,16,cs),
(132,274,ls),
(132,398,o),
(181,461,o),
(292,461,cs),
(403,461,o),
(452,398,o),
(452,274,cs),
(452,16,ls),
(452,-5,o),
(457,-13,o),
(470,-13,cs),
(483,-13,o),
(488,-5,o),
(488,16,cs),
(488,273,ls),
(488,421,o),
(424,492,o),
(292,492,cs),
(160,492,o),
(96,421,o),
(96,273,cs),
(96,16,ls),
(96,-5,o),
(101,-13,o),
(114,-13,cs)
);
}
);
width = 584;
},
{
background = {
shapes = (
{
pos = (7,0);
ref = o;
}
);
};
hints = (
{
horizontal = 1;
place = (314,72);
type = Stem;
},
{
horizontal = 1;
place = (-22,21);
target = up;
type = BottomGhost;
},
{
horizontal = 1;
place = (-23,21);
target = up;
type = BottomGhost;
},
{
place = (382,90);
type = Stem;
},
{
place = (51,90);
type = Stem;
}
);
layerId = "2F065738-4B59-43EB-A5F2-FD5F277958EA";
shapes = (
{
closed = 1;
nodes = (
(163,-13,o),
(176,3,o),
(176,46,cs),
(176,273,ls),
(176,371,o),
(212,412,o),
(299,412,cs),
(386,412,o),
(422,371,o),
(422,273,cs),
(422,46,ls),
(422,3,o),
(435,-13,o),
(468,-13,cs),
(501,-13,o),
(514,3,o),
(514,46,cs),
(514,263,ls),
(514,428,o),
(445,492,o),
(299,492,cs),
(153,492,o),
(84,430,o),
(84,263,cs),
(84,46,ls),
(84,3,o),
(97,-13,o),
(130,-13,cs)
);
}
);
width = 598;
}
);
note = n;
unicode = 110;
},
{
color = 4;
glyphname = o;
lastChange = "2023-10-25 20:56:35 +0000";
layers = (
{
hints = (
{
horizontal = 1;
place = (337,27);
type = Stem;
},
{
horizontal = 1;
place = (-4,28);
type = Stem;
},
{
place = (392,30);
type = Stem;
},
{
place = (65,30);
type = Stem;
}
);
layerId = m01;
shapes = (
{
closed = 1;
nodes = (
(438,-12,o),
(498,91,o),
(498,240,cs),
(498,389,o),
(438,492,o),
(297,492,cs),
(156,492,o),
(96,389,o),
(96,240,cs),
(96,91,o),
(156,-12,o),
(297,-12,cs)
);
},
{
closed = 1;
nodes = (
(183,17,o),
(132,104,o),
(132,240,cs),
(132,376,o),
(183,463,o),
(297,463,cs),
(411,463,o),
(462,376,o),
(462,240,cs),
(462,104,o),
(411,17,o),
(297,17,cs)
);
}
);
width = 594;
},
{
hints = (
{
horizontal = 1;
place = (314,72);
type = Stem;
},
{
horizontal = 1;
place = (-26,72);
type = Stem;
},
{
place = (377,90);
type = Stem;
},
{
place = (50,90);
type = Stem;
}
);
layerId = "2F065738-4B59-43EB-A5F2-FD5F277958EA";
shapes = (
{
closed = 1;
nodes = (
(462,-12,o),
(514,95,o),
(514,240,cs),
(514,385,o),
(462,492,o),
(293,492,cs),
(124,492,o),
(72,385,o),
(72,240,cs),
(72,95,o),
(124,-12,o),
(293,-12,cs)
);
},
{
closed = 1;
nodes = (
(198,62,o),
(164,115,o),
(164,240,cs),
(164,365,o),
(198,418,o),
(293,418,cs),
(388,418,o),
(422,365,o),
(422,240,cs),
(422,115,o),
(388,62,o),
(293,62,cs)
);
}
);
width = 586;
}
);
note = o;
unicode = 111;
},
{
color = 0;
glyphname = p;
lastChange = "2023-10-25 20:36:27 +0000";
layers = (
{
hints = (
{
horizontal = 1;
place = (337,27);
type = Stem;
},
{
horizontal = 1;
place = (-2,27);
type = Stem;
},
{
place = (404,30);
type = Stem;
},
{
place = (66,30);
type = Stem;
}
);
layerId = m01;
shapes = (
{
closed = 1;
nodes = (
(88,-340,o),
(96,-334,o),
(96,-326,cs),
(96,-202,o),
(96,-79,o),
(96,45,c),
(121,16,o),
(159,-2,o),
(201,-2,cs),
(304,-2,ls),
(379,-2,o),
(434,58,o),
(434,132,cs),
(434,235,ls),
(434,310,o),
(373,364,o),
(299,364,cs),
(196,364,ls),
(132,364,o),
(71,313,o),
(67,247,cs),
(65,222,o),
(65,197,o),
(65,171,cs),
(65,6,o),
(66,-160,o),
(66,-326,cs),
(66,-334,o),
(74,-340,o),
(81,-340,cs)
);
},
{
closed = 1;
nodes = (
(152,25,o),
(116,53,o),
(102,95,cs),
(101,98,o),
(101,101,o),
(100,103,c),
(98,120,l),
(97,123,o),
(97,125,o),
(96,128,c),
(96,159,o),
(96,190,o),
(96,220,cs),
(96,239,o),
(97,257,o),
(104,275,cs),
(120,312,o),
(156,337,o),
(197,337,cs),
(304,337,ls),
(360,337,o),
(404,290,o),
(404,235,cs),
(404,127,ls),
(404,72,o),
(360,25,o),
(304,25,cs),
(197,25,ls)
);
}
);
width = 500;
},
{
hints = (
{
horizontal = 1;
place = (314,72);
type = Stem;
},
{
horizontal = 1;
place = (-24,72);
type = Stem;
},
{
horizontal = 1;
place = (-9,21);
target = up;
type = BottomGhost;
},
{
horizontal = 1;
place = (-362,21);
target = up;
type = BottomGhost;
},
{
place = (389,90);
type = Stem;
},
{
place = (51,90);
type = Stem;
}
);
layerId = "2F065738-4B59-43EB-A5F2-FD5F277958EA";
shapes = (
{
closed = 1;
nodes = (
(113,-362,o),
(130,-354,o),
(138,-338,cs),
(142,-331,o),
(141,-319,o),
(141,-310,cs),
(141,-210,o),
(141,-109,o),
(141,-9,c),
(162,-19,o),
(186,-24,o),
(211,-24,cs),
(319,-24,ls),
(403,-24,o),
(479,40,o),
(479,127,cs),
(479,235,ls),
(479,322,o),
(403,386,o),
(319,386,cs),
(211,386,ls),
(147,386,o),
(90,351,o),
(63,292,cs),
(53,270,o),
(51,245,o),
(51,222,cs),
(51,-326,ls),
(51,-349,o),
(76,-362,o),
(96,-362,cs)
);
},
{
closed = 1;
nodes = (
(178,48,o),
(149,77,o),
(143,110,cs),
(141,117,o),
(142,125,o),
(140,133,c),
(140,154,o),
(140,175,o),
(140,196,cs),
(140,213,o),
(140,245,o),
(145,260,cs),
(154,290,o),
(181,314,o),
(212,314,cs),
(318,314,ls),
(360,314,o),
(389,274,o),
(389,234,cs),
(389,128,ls),
(389,88,o),
(360,48,o),
(318,48,cs),
(212,48,ls)
);
}
);
width = 530;
}
);
note = p;
unicode = 112;
},
{
color = 0;
glyphname = q;
lastChange = "2023-10-25 20:36:27 +0000";
layers = (
{
hints = (
{
horizontal = 1;
place = (337,27);
type = Stem;
},
{
horizontal = 1;
place = (-2,27);
type = Stem;
},
{
place = (405,30);
type = Stem;
},
{
place = (66,30);
type = Stem;
}
);
layerId = m01;
shapes = (
{
closed = 1;
nodes = (
(428,-340,o),
(435,-334,o),
(435,-326,cs),
(435,165,ls),
(435,185,o),
(435,206,o),
(434,226,cs),
(435,347,ls),
(435,355,o),
(427,360,o),
(420,360,cs),
(413,360,o),
(405,355,o),
(405,347,cs),
(405,316,l),
(379,346,o),
(340,364,o),
(299,364,cs),
(196,364,ls),
(121,364,o),
(66,304,o),
(66,230,cs),
(66,127,ls),
(66,52,o),
(127,-2,o),
(201,-2,cs),
(304,-2,ls),
(342,-2,o),
(380,17,o),
(404,45,c),
(405,-326,ls),
(405,-334,o),
(413,-340,o),
(420,-340,cs)
);
},
{
closed = 1;
nodes = (
(140,25,o),
(96,72,o),
(96,127,cs),
(96,235,ls),
(96,290,o),
(140,337,o),
(196,337,cs),
(304,337,ls),
(355,337,o),
(398,297,o),
(403,246,cs),
(404,240,o),
(404,235,o),
(404,230,cs),
(404,154,ls),
(404,109,o),
(402,74,o),
(363,45,cs),
(346,33,o),
(325,25,o),
(304,25,cs),
(196,25,ls)
);
}
);
width = 501;
},
{
hints = (
{
horizontal = 1;
place = (314,72);
type = Stem;
},
{
horizontal = 1;
place = (-24,72);
type = Stem;
},
{
horizontal = 1;
place = (-362,21);
target = up;
type = BottomGhost;
},
{
place = (390,90);
type = Stem;
},
{
place = (51,90);
type = Stem;
}
);
layerId = "2F065738-4B59-43EB-A5F2-FD5F277958EA";
shapes = (
{
closed = 1;
nodes = (
(456,-362,o),
(480,-349,o),
(480,-326,cs),
(480,-102,o),
(480,122,o),
(480,347,cs),
(480,370,o),
(455,383,o),
(435,383,cs),
(412,383,o),
(393,370,o),
(390,347,c),
(361,372,o),
(323,386,o),
(283,386,cs),
(211,386,ls),
(127,386,o),
(51,322,o),
(51,235,cs),
(51,127,ls),
(51,40,o),
(127,-24,o),
(211,-24,cs),
(283,-24,ls),
(323,-24,o),
(360,-10,o),
(389,14,c),
(389,-49,o),
(390,-112,o),
(390,-176,cs),
(390,-276,ls),
(390,-293,o),
(389,-311,o),
(390,-328,cs),
(392,-350,o),
(415,-362,o),
(435,-362,cs)
);
},
{
closed = 1;
nodes = (
(170,48,o),
(141,88,o),
(141,128,cs),
(141,234,ls),
(141,274,o),
(170,314,o),
(212,314,cs),
(318,314,ls),
(366,314,o),
(389,269,o),
(389,227,cs),
(389,150,ls),
(389,115,o),
(388,84,o),
(357,61,cs),
(346,53,o),
(332,48,o),
(318,48,cs),
(212,48,ls)
);
}
);
width = 531;
}
);
note = q;
unicode = 113;
},
{
color = 0;
glyphname = r;
lastChange = "2023-10-25 20:36:27 +0000";
layers = (
{
hints = (
{
horizontal = 1;
place = (337,27);
type = Stem;
},
{
horizontal = 1;
place = (-2,21);
target = up;
type = BottomGhost;
},
{
place = (67,30);
type = Stem;
}
);
layerId = m01;
shapes = (
{
closed = 1;
nodes = (
(90,-2,o),
(97,4,o),
(97,12,cs),
(97,241,ls),
(97,286,o),
(128,326,o),
(173,335,cs),
(196,339,o),
(219,337,o),
(243,337,cs),
(251,337,o),
(261,340,o),
(261,350,cs),
(261,369,o),
(225,364,o),
(212,364,cs),
(167,364,o),
(129,359,o),
(97,321,c),
(97,347,ls),
(97,355,o),
(90,361,o),
(82,361,cs),
(75,361,o),
(67,355,o),
(67,347,cs),
(67,12,ls),
(67,4,o),
(75,-2,o),
(82,-2,cs)
);
}
);
width = 291;
},
{
hints = (
{
horizontal = 1;
place = (315,72);
type = Stem;
},
{
horizontal = 1;
place = (-24,21);
target = up;
type = BottomGhost;
},
{
place = (51,92);
type = Stem;
}
);
layerId = "2F065738-4B59-43EB-A5F2-FD5F277958EA";
shapes = (
{
closed = 1;
nodes = (
(117,-24,o),
(139,-13,o),
(142,9,cs),
(143,17,o),
(143,25,o),
(143,33,cs),
(143,102,o),
(142,171,o),
(142,240,cs),
(142,246,o),
(142,249,o),
(142,253,c),
(148,292,o),
(178,315,o),
(219,315,cs),
(231,315,o),
(242,314,o),
(253,314,cs),
(276,314,o),
(306,322,o),
(306,350,cs),
(306,391,o),
(248,387,o),
(220,387,cs),
(188,387,o),
(151,369,o),
(132,332,c),
(130,360,o),
(121,383,o),
(97,383,cs),
(66,383,o),
(51,365,o),
(51,335,cs),
(52,85,ls),
(52,68,o),
(51,51,o),
(51,34,cs),
(51,26,o),
(51,17,o),
(52,9,cs),
(55,-13,o),
(77,-24,o),
(97,-24,cs)
);
}
);
width = 336;
}
);
note = r;
unicode = 114;
},
{
color = 0;
glyphname = s;
lastChange = "2023-10-25 20:36:27 +0000";
layers = (
{
hints = (
{
horizontal = 1;
place = (337,27);
type = Stem;
},
{
horizontal = 1;
place = (174,27);
type = Stem;
},
{
horizontal = 1;
place = (-1,27);
type = Stem;
},
{
place = (369,30);
type = Stem;
},
{
place = (41,30);
type = Stem;
}
);
layerId = m01;
shapes = (
{
closed = 1;
nodes = (
(272,-1,ls),
(326,-1,o),
(399,27,o),
(399,91,cs),
(399,150,o),
(364,183,o),
(309,197,cs),
(288,202,o),
(265,201,o),
(243,201,cs),
(237,201,o),
(231,201,o),
(224,201,cs),
(187,200,ls),
(181,200,o),
(174,200,o),
(168,200,cs),
(127,200,o),
(71,220,o),
(71,269,cs),
(71,312,o),
(131,337,o),
(168,337,cs),
(272,337,ls),
(307,337,o),
(341,317,o),
(357,286,cs),
(362,275,o),
(364,253,o),
(380,253,cs),
(388,253,o),
(395,258,o),
(395,266,cs),
(395,272,o),
(392,279,o),
(390,284,cs),
(369,336,o),
(322,364,o),
(267,364,cs),
(168,364,ls),
(117,364,o),
(41,329,o),
(41,271,cs),
(41,269,ls),
(47,184,o),
(130,172,o),
(198,172,cs),
(222,172,o),
(247,174,o),
(272,174,cs),
(322,174,o),
(369,150,o),
(369,94,cs),
(369,27,o),
(284,25,o),
(236,25,cs),
(210,25,l),
(206,26,o),
(202,26,o),
(197,26,cs),
(74,26,ls),
(65,26,o),
(52,25,o),
(52,12,cs),
(52,4,o),
(60,-1,o),
(67,-1,cs)
);
}
);
width = 464;
},
{
hints = (
{
horizontal = 1;
place = (314,72);
type = Stem;
},
{
horizontal = 1;
place = (151,72);
type = Stem;
},
{
horizontal = 1;
place = (-24,71);
type = Stem;
},
{
place = (378,90);
type = Stem;
},
{
place = (50,90);
type = Stem;
}
);
layerId = "2F065738-4B59-43EB-A5F2-FD5F277958EA";
shapes = (
{
closed = 1;
nodes = (
(311,-24,ls),
(381,-24,o),
(468,13,o),
(468,94,cs),
(468,237,o),
(304,223,o),
(207,223,cs),
(179,223,o),
(140,234,o),
(140,268,cs),
(140,298,o),
(183,314,o),
(208,314,cs),
(310,314,ls),
(383,314,o),
(357,230,o),
(419,230,cs),
(440,230,o),
(464,243,o),
(464,266,cs),
(464,278,o),
(458,291,o),
(453,302,cs),
(426,355,o),
(370,386,o),
(311,386,cs),
(206,386,ls),
(141,386,o),
(50,344,o),
(50,269,cs),
(50,245,o),
(59,222,o),
(74,204,cs),
(129,137,o),
(234,151,o),
(310,151,cs),
(347,151,o),
(378,135,o),
(378,94,cs),
(378,50,o),
(323,47,o),
(291,47,cs),
(235,47,o),
(180,49,o),
(125,49,cs),
(100,49,o),
(61,46,o),
(61,12,cs),
(61,-11,o),
(86,-24,o),
(106,-24,cs)
);
}
);
width = 518;
}
);
note = s;
unicode = 115;
},
{
color = 0;
glyphname = t;
lastChange = "2023-10-25 20:36:27 +0000";
layers = (
{
hints = (
{
horizontal = 1;
place = (702,-20);
target = down;
type = TopGhost;
},
{
horizontal = 1;
place = (337,27);
type = Stem;
},
{
horizontal = 1;
place = (-2,28);
type = Stem;
},
{
place = (66,30);
type = Stem;
}
);
layerId = m01;
shapes = (
{
closed = 1;
nodes = (
(252,-2,o),
(265,0,o),
(265,12,cs),
(265,20,o),
(257,26,o),
(250,26,cs),
(226,26,o),
(200,23,o),
(176,28,cs),
(129,38,o),
(96,80,o),
(96,127,cs),
(96,246,l),
(103,312,o),
(148,337,o),
(208,337,cs),
(221,337,o),
(265,330,o),
(265,350,cs),
(265,369,o),
(228,364,o),
(216,364,cs),
(167,364,o),
(130,360,o),
(96,320,c),
(96,688,ls),
(96,696,o),
(89,702,o),
(81,702,cs),
(74,702,o),
(66,696,o),
(66,688,cs),
(66,254,l),
(65,249,o),
(65,244,o),
(65,239,cs),
(65,237,o),
(65,236,o),
(66,234,c),
(66,132,ls),
(66,58,o),
(121,-1,o),
(196,-1,cs),
(243,-2,ls)
);
}
);
width = 319;
},
{
hints = (
{
horizontal = 1;
place = (724,-20);
target = down;
type = TopGhost;
},
{
horizontal = 1;
place = (314,72);
type = Stem;
},
{
horizontal = 1;
place = (-25,73);
type = Stem;
},
{
place = (51,90);
type = Stem;
}
);
layerId = "2F065738-4B59-43EB-A5F2-FD5F277958EA";
shapes = (
{
closed = 1;
nodes = (
(269,-25,o),
(310,-22,o),
(310,12,cs),
(310,35,o),
(285,48,o),
(265,48,cs),
(223,48,o),
(180,40,o),
(154,82,cs),
(146,96,o),
(141,112,o),
(141,128,cs),
(141,251,l),
(147,292,o),
(177,314,o),
(218,314,cs),
(246,314,o),
(310,306,o),
(310,350,cs),
(310,392,o),
(251,386,o),
(223,386,cs),
(193,386,o),
(169,384,o),
(141,372,c),
(141,505,l),
(141,630,ls),
(141,669,o),
(154,724,o),
(96,724,cs),
(79,724,o),
(60,716,o),
(53,699,cs),
(50,691,o),
(51,678,o),
(51,669,cs),
(51,488,o),
(51,308,o),
(51,127,cs),
(51,40,o),
(127,-24,o),
(211,-24,cs),
(222,-24,o),
(233,-25,o),
(244,-25,cs)
);
}
);
width = 360;
}
);
note = t;
unicode = 116;
},
{
color = 0;
glyphname = u;
lastChange = "2023-10-25 20:36:27 +0000";
layers = (
{
hints = (
{
horizontal = 1;
place = (-1,26);
type = Stem;
},
{
horizontal = 1;
place = (-2,27);
type = Stem;
},
{
place = (397,30);
type = Stem;
},
{
place = (67,29);
type = Stem;
}
);
layerId = m01;
shapes = (
{
closed = 1;
nodes = (
(301,-2,ls),
(340,-2,o),
(374,15,o),
(397,42,c),
(397,15,ls),
(397,7,o),
(404,1,o),
(412,1,cs),
(419,1,o),
(427,7,o),
(427,15,cs),
(427,350,ls),
(427,358,o),
(419,364,o),
(412,364,cs),
(405,364,o),
(397,358,o),
(397,350,cs),
(397,116,l),
(392,53,o),
(342,25,o),
(285,25,cs),
(240,25,ls),
(221,25,o),
(184,25,o),
(166,30,cs),
(113,47,o),
(96,91,o),
(96,143,cs),
(96,160,o),
(96,178,o),
(96,195,cs),
(97,298,ls),
(97,316,o),
(97,333,o),
(97,350,cs),
(97,358,o),
(90,363,o),
(82,363,cs),
(75,363,o),
(67,358,o),
(67,350,cs),
(67,125,ls),
(67,62,o),
(119,4,o),
(182,-1,cs),
(201,-2,o),
(220,-2,o),
(239,-2,cs)
);
}
);
width = 494;
},
{
hints = (
{
horizontal = 1;
place = (-24,72);
type = Stem;
},
{
horizontal = 1;
place = (-2,21);
target = up;
type = BottomGhost;
},
{
place = (380,92);
type = Stem;
},
{
place = (51,90);
type = Stem;
}
);
layerId = "2F065738-4B59-43EB-A5F2-FD5F277958EA";
shapes = (
{
closed = 1;
nodes = (
(292,-24,ls),
(309,-24,o),
(348,-19,o),
(385,-2,c),
(393,-15,o),
(411,-22,o),
(426,-22,cs),
(435,-22,o),
(444,-19,o),
(452,-14,cs),
(478,1,o),
(471,34,o),
(471,59,cs),
(471,81,o),
(471,77,o),
(471,112,cs),
(471,117,o),
(471,120,o),
(471,124,cs),
(471,191,o),
(472,258,o),
(472,325,cs),
(472,335,o),
(472,344,o),
(471,353,cs),
(468,375,o),
(446,386,o),
(426,386,cs),
(406,386,o),
(384,375,o),
(381,353,cs),
(380,345,o),
(380,337,o),
(380,329,cs),
(380,266,o),
(381,202,o),
(381,139,c),
(380,130,o),
(380,120,o),
(380,111,c),
(375,78,o),
(350,48,o),
(314,48,cs),
(309,48,o),
(304,48,o),
(299,48,cs),
(270,48,ls),
(265,48,o),
(261,48,o),
(256,48,cs),
(242,48,o),
(204,47,o),
(192,51,cs),
(149,65,o),
(140,104,o),
(140,144,cs),
(140,212,o),
(141,281,o),
(141,350,cs),
(141,373,o),
(117,386,o),
(96,386,cs),
(76,386,o),
(54,374,o),
(52,353,c),
(50,344,o),
(50,335,o),
(50,326,cs),
(50,310,o),
(51,294,o),
(51,278,cs),
(51,227,o),
(51,176,o),
(51,125,cs),
(51,94,o),
(61,64,o),
(79,40,cs),
(106,4,o),
(147,-24,o),
(191,-24,cs)
);
}
);
width = 522;
}
);
note = u;
unicode = 117;
},
{
color = 0;
glyphname = v;
lastChange = "2023-10-25 20:36:27 +0000";
layers = (
{
hints = (
{
horizontal = 1;
place = (-2,27);
type = Stem;
},
{
place = (393,29);
type = Stem;
},
{
place = (65,30);
type = Stem;
}
);
layerId = m01;
shapes = (
{
closed = 1;
nodes = (
(222,-2,ls),
(251,-2,o),
(280,-3,o),
(308,-1,cs),
(375,4,o),
(422,61,o),
(422,127,cs),
(422,350,ls),
(422,358,o),
(415,364,o),
(407,364,cs),
(400,364,o),
(392,358,o),
(392,350,cs),
(392,333,o),
(392,316,o),
(392,298,cs),
(393,195,ls),
(393,178,o),
(393,160,o),
(393,143,cs),
(393,133,o),
(393,122,o),
(392,112,cs),
(385,52,o),
(337,25,o),
(281,25,cs),
(219,25,o),
(157,25,o),
(95,25,c),
(93,61,o),
(95,97,o),
(95,133,cs),
(95,350,ls),
(95,358,o),
(88,364,o),
(80,364,cs),
(73,364,o),
(65,358,o),
(65,350,cs),
(65,12,ls),
(65,4,o),
(73,-2,o),
(80,-2,cs)
);
}
);
width = 487;
},
{
hints = (
{
horizontal = 1;
place = (-24,71);
type = Stem;
},
{
place = (378,89);
type = Stem;
},
{
place = (50,91);
type = Stem;
}
);
layerId = "2F065738-4B59-43EB-A5F2-FD5F277958EA";
shapes = (
{
closed = 1;
nodes = (
(296,-25,o),
(319,-25,o),
(343,-21,cs),
(412,-8,o),
(467,51,o),
(467,122,cs),
(467,350,ls),
(467,373,o),
(442,386,o),
(422,386,cs),
(405,386,o),
(387,378,o),
(380,362,cs),
(376,355,o),
(376,306,o),
(376,296,cs),
(376,284,o),
(376,273,o),
(376,261,cs),
(378,190,ls),
(378,179,o),
(378,167,o),
(378,155,cs),
(378,142,o),
(378,127,o),
(377,114,cs),
(373,86,o),
(355,60,o),
(328,51,cs),
(315,47,o),
(249,47,o),
(234,47,cs),
(202,47,o),
(171,48,o),
(140,48,c),
(140,138,o),
(141,228,o),
(141,317,cs),
(141,328,o),
(142,353,o),
(137,362,cs),
(130,378,o),
(112,386,o),
(95,386,cs),
(75,386,o),
(50,373,o),
(50,350,cs),
(50,12,ls),
(50,-11,o),
(75,-24,o),
(95,-24,cs),
(229,-24,ls),
(234,-24,o),
(239,-24,o),
(243,-24,cs),
(272,-25,ls)
);
}
);
width = 517;
}
);
note = v;
unicode = 118;
},
{
color = 0;
glyphname = w;
lastChange = "2023-10-25 20:36:27 +0000";
layers = (
{
hints = (
{
horizontal = 1;
place = (-1,27);
type = Stem;
},
{
place = (652,30);
type = Stem;
},
{
place = (359,30);
type = Stem;
},
{
place = (66,30);
type = Stem;
}
);
layerId = m01;
shapes = (
{
closed = 1;
nodes = (
(206,-1,o),
(221,-1,o),
(235,-1,cs),
(295,-1,o),
(340,9,o),
(374,65,c),
(395,26,o),
(437,-1,o),
(485,-1,cs),
(499,-1,o),
(513,-1,o),
(528,-1,cs),
(547,-1,o),
(574,-1,o),
(592,5,cs),
(639,22,o),
(678,61,o),
(681,112,cs),
(682,126,o),
(682,141,o),
(682,155,cs),
(682,349,ls),
(682,357,o),
(674,363,o),
(667,363,cs),
(660,363,o),
(652,357,o),
(652,349,cs),
(652,281,o),
(652,214,o),
(652,146,cs),
(652,29,o),
(582,26,o),
(486,26,cs),
(465,26,o),
(445,33,o),
(428,45,cs),
(390,73,o),
(389,108,o),
(389,152,cs),
(389,350,ls),
(389,358,o),
(382,363,o),
(374,363,cs),
(367,363,o),
(359,357,o),
(359,349,cs),
(359,129,l),
(354,55,o),
(313,26,o),
(234,26,cs),
(221,26,o),
(207,26,o),
(193,26,cs),
(172,26,o),
(152,33,o),
(135,45,cs),
(97,73,o),
(96,108,o),
(96,152,cs),
(96,350,ls),
(96,358,o),
(89,363,o),
(81,363,cs),
(74,363,o),
(66,358,o),
(66,350,cs),
(66,274,o),
(66,199,o),
(66,123,cs),
(66,54,o),
(123,-1,o),
(192,-1,cs)
);
}
);
width = 747;
},
{
hints = (
{
horizontal = 1;
place = (-24,73);
type = Stem;
},
{
place = (638,89);
type = Stem;
},
{
place = (343,91);
type = Stem;
},
{
place = (51,90);
type = Stem;
}
);
layerId = "2F065738-4B59-43EB-A5F2-FD5F277958EA";
shapes = (
{
closed = 1;
nodes = (
(300,-24,o),
(345,-19,o),
(388,21,c),
(424,-14,o),
(465,-23,o),
(513,-23,cs),
(537,-24,ls),
(559,-24,o),
(581,-24,o),
(603,-20,cs),
(660,-7,o),
(713,37,o),
(724,97,cs),
(727,114,o),
(727,132,o),
(727,149,cs),
(727,216,o),
(727,282,o),
(727,349,cs),
(727,372,o),
(702,385,o),
(682,385,cs),
(673,385,o),
(663,383,o),
(656,378,cs),
(638,368,o),
(637,357,o),
(637,338,cs),
(637,327,o),
(637,315,o),
(637,304,cs),
(638,235,ls),
(638,223,o),
(638,212,o),
(638,200,cs),
(638,180,o),
(638,117,o),
(633,100,cs),
(616,49,o),
(577,48,o),
(531,48,cs),
(512,49,ls),
(465,49,o),
(437,74,o),
(434,122,c),
(434,350,ls),
(434,373,o),
(410,386,o),
(389,386,cs),
(369,386,o),
(347,374,o),
(344,353,cs),
(343,344,o),
(343,335,o),
(343,326,cs),
(343,311,o),
(343,295,o),
(343,279,cs),
(344,186,ls),
(344,170,o),
(344,155,o),
(344,139,cs),
(339,60,o),
(313,48,o),
(238,48,cs),
(219,49,ls),
(155,49,o),
(140,89,o),
(140,143,cs),
(140,160,o),
(140,178,o),
(140,195,cs),
(141,298,ls),
(141,316,o),
(141,333,o),
(141,350,cs),
(141,373,o),
(117,386,o),
(96,386,cs),
(76,386,o),
(54,374,o),
(52,353,c),
(50,344,o),
(50,335,o),
(50,326,cs),
(50,259,o),
(51,191,o),
(51,123,cs),
(51,37,o),
(125,-23,o),
(208,-23,cs),
(212,-23,o),
(216,-23,o),
(220,-23,cs),
(244,-24,ls)
);
}
);
width = 778;
}
);
note = w;
unicode = 119;
},
{
color = 0;
glyphname = x;
lastChange = "2023-10-25 20:36:27 +0000";
layers = (
{
hints = (
{
horizontal = 1;
place = (337,27);
type = Stem;
},
{
horizontal = 1;
place = (-3,27);
type = Stem;
},
{
place = (194,30);
type = Stem;
}
);
layerId = m01;
shapes = (
{
closed = 1;
nodes = (
(98,-3,ls),
(148,-3,o),
(188,24,o),
(209,64,c),
(234,20,o),
(273,-3,o),
(325,-3,cs),
(372,-3,ls),
(379,-3,o),
(387,3,o),
(387,11,cs),
(387,31,o),
(348,24,o),
(335,24,cs),
(275,24,o),
(230,53,o),
(224,115,c),
(224,238,l),
(226,247,o),
(226,256,o),
(229,265,cs),
(238,301,o),
(264,327,o),
(301,335,cs),
(324,339,o),
(348,337,o),
(371,337,cs),
(379,337,o),
(388,341,o),
(388,350,cs),
(388,358,o),
(380,364,o),
(373,364,cs),
(320,364,ls),
(272,364,o),
(230,336,o),
(209,296,c),
(184,341,o),
(144,364,o),
(92,364,cs),
(45,364,ls),
(38,364,o),
(30,358,o),
(30,350,cs),
(30,331,o),
(70,337,o),
(82,337,cs),
(135,337,o),
(180,314,o),
(192,259,c),
(193,250,o),
(194,240,o),
(194,228,cs),
(194,206,ls),
(194,187,o),
(193,168,o),
(193,153,cs),
(193,140,o),
(193,128,o),
(194,116,c),
(188,56,o),
(146,24,o),
(83,24,cs),
(57,25,ls),
(47,25,o),
(31,25,o),
(31,11,cs),
(31,3,o),
(39,-3,o),
(46,-3,cs)
);
}
);
width = 418;
},
{
hints = (
{
horizontal = 1;
place = (314,72);
type = Stem;
},
{
horizontal = 1;
place = (-25,72);
type = Stem;
},
{
place = (214,90);
type = Stem;
}
);
layerId = "2F065738-4B59-43EB-A5F2-FD5F277958EA";
shapes = (
{
closed = 1;
nodes = (
(148,-25,ls),
(190,-25,o),
(230,-9,o),
(259,19,c),
(287,-9,o),
(326,-25,o),
(370,-25,cs),
(422,-25,ls),
(442,-25,o),
(467,-12,o),
(467,11,cs),
(467,19,o),
(463,27,o),
(458,33,cs),
(439,53,o),
(407,47,o),
(382,47,cs),
(336,47,o),
(308,71,o),
(304,116,c),
(304,243,l),
(308,277,o),
(328,309,o),
(365,314,cs),
(377,315,o),
(391,314,o),
(403,314,cs),
(429,314,o),
(468,316,o),
(468,350,cs),
(468,373,o),
(443,386,o),
(423,386,cs),
(370,386,ls),
(328,386,o),
(288,369,o),
(259,342,c),
(231,369,o),
(192,386,o),
(148,386,cs),
(95,386,ls),
(75,386,o),
(50,373,o),
(50,350,cs),
(50,342,o),
(54,334,o),
(59,329,cs),
(78,308,o),
(110,315,o),
(135,315,cs),
(198,315,o),
(214,273,o),
(214,219,cs),
(213,129,ls),
(213,126,o),
(213,123,o),
(214,120,c),
(207,65,o),
(182,47,o),
(128,47,cs),
(112,48,ls),
(87,48,o),
(51,43,o),
(51,11,cs),
(51,-12,o),
(76,-25,o),
(96,-25,cs)
);
}
);
width = 518;
}
);
note = x;
unicode = 120;
},
